<svg width="318" height="118" viewBox="0 0 318 118" fill="none" xmlns="http://www.w3.org/2000/svg">
<path d="M315.134 1.5C327.134 67 211.449 138.693 151.548 95.7171C135.27 84.0389 126.045 71.3925 118.563 56.4285C115.171 49.6434 110.646 36.2887 116.432 30.0198C126.04 19.6112 143.937 29.1496 150.134 39.5C159.552 55.2303 144.713 84.2582 131.257 91.5473C106.279 105.078 69.2588 101.847 41.8458 100.628C30.9005 100.142 19.7617 97.385 8.9537 97.385C4.76038 97.385 14.8939 92.1219 16.4587 90.7134C25.6919 82.4026 26.1803 82.5571 14.7909 89.8794C13.2137 90.8933 1.63409 97.1314 1.63409 98.219C1.63409 98.978 21.3308 113.483 23.1299 115.732" stroke="#1C1C1C" stroke-width="3" stroke-linecap="round"/>
</svg>
