<svg width="63" height="79" viewBox="0 0 63 79" fill="none" xmlns="http://www.w3.org/2000/svg">
<mask id="path-1-inside-1_2357_6294" fill="white">
<path d="M19.4609 0.239258C17.4788 0.312879 15.5149 0.646984 13.6199 1.23297C12.3353 1.62076 3.9251 4.45648 0.992433 11.9214C0.0136214 14.7814 -0.24631 17.8382 0.235548 20.8224C0.717405 23.8065 1.92624 26.6262 3.75544 29.0327C12.2384 40.3513 27.9923 31.4564 41.8558 42.0237C54.7014 51.7184 53.0533 68.6842 56.398 68.248C60.9303 67.7875 69.704 37.5398 54.1924 17.3505C50.016 12.2771 44.815 8.14322 38.9299 5.21951C33.0449 2.29579 26.6086 0.648209 20.0426 0.384673H19.3882"/>
</mask>
<path d="M13.6199 1.23297L13.9089 2.19032L13.9153 2.18834L13.6199 1.23297ZM0.992433 11.9214L0.0616815 11.5558L0.0535299 11.5765L0.0463112 11.5976L0.992433 11.9214ZM3.75544 29.0327L4.55566 28.4329L4.55156 28.4275L3.75544 29.0327ZM41.8558 42.0237L41.2496 42.819L41.2534 42.8218L41.8558 42.0237ZM56.398 68.248L56.2969 67.2531L56.2827 67.2545L56.2686 67.2564L56.398 68.248ZM54.1924 17.3505L54.9854 16.7412L54.9752 16.7279L54.9645 16.7149L54.1924 17.3505ZM20.0426 0.384673L20.0827 -0.614522L20.0627 -0.615327H20.0426V0.384673ZM19.4238 -0.760053C17.354 -0.683176 15.3033 -0.334296 13.3245 0.277603L13.9153 2.18834C15.7265 1.62826 17.6035 1.30893 19.4981 1.23857L19.4238 -0.760053ZM13.3309 0.275642C12.6358 0.485478 10.1177 1.32438 7.38344 3.08209C4.65272 4.83754 1.63225 7.55799 0.0616815 11.5558L1.92318 12.2871C3.28528 8.81993 5.93625 6.39003 8.46495 4.76444C10.9901 3.14111 13.3194 2.36825 13.9089 2.1903L13.3309 0.275642ZM0.0463112 11.5976C-0.98564 14.6128 -1.25968 17.8356 -0.751665 20.9818L1.22276 20.663C0.767062 17.8408 1.01288 14.9499 1.93855 12.2453L0.0463112 11.5976ZM-0.751665 20.9818C-0.243649 24.1279 1.03081 27.1007 2.95932 29.6378L4.55156 28.4275C2.82167 26.1517 1.67846 23.4851 1.22276 20.663L-0.751665 20.9818ZM2.95523 29.6324C7.50172 35.6987 14.0312 36.2989 20.7121 36.807C27.4801 37.3218 34.5862 37.7398 41.2496 42.819L42.4621 41.2284C35.262 35.7402 27.5594 35.3221 20.8638 34.8128C14.081 34.2969 8.49207 33.6853 4.55564 28.433L2.95523 29.6324ZM41.2534 42.8218C47.425 47.4796 50.1433 53.9011 51.7315 59.221C52.1283 60.5501 52.4528 61.8039 52.7452 62.9463C53.0349 64.0785 53.2982 65.1228 53.5653 65.9916C53.8266 66.8419 54.122 67.632 54.5129 68.2066C54.9208 68.806 55.5809 69.363 56.5273 69.2396L56.2686 67.2564C56.2678 67.2565 56.2802 67.2551 56.2998 67.2591C56.3087 67.261 56.3164 67.2634 56.3225 67.2658C56.3286 67.2681 56.3314 67.2698 56.3311 67.2696C56.3258 67.2665 56.2658 67.2275 56.1665 67.0815C55.9572 66.7739 55.7322 66.2344 55.477 65.404C55.2275 64.5922 54.9781 63.6047 54.6827 62.4505C54.39 61.3065 54.057 60.0192 53.6479 58.6489C52.0127 53.1713 49.1322 46.2624 42.4583 41.2255L41.2534 42.8218ZM56.4991 69.2429C57.045 69.1874 57.5247 68.9209 57.9216 68.598C58.3241 68.2706 58.7029 67.8356 59.0574 67.3339C59.7667 66.33 60.456 64.9475 61.082 63.2942C62.337 59.9791 63.3914 55.4304 63.8084 50.2782C64.6414 39.9869 62.9436 27.0994 54.9854 16.7412L53.3994 17.9598C60.9528 27.791 62.624 40.1219 61.8149 50.1169C61.4109 55.1078 60.3915 59.4692 59.2115 62.586C58.6199 64.1487 58.0014 65.3625 57.424 66.1798C57.1351 66.5887 56.8759 66.8705 56.6594 67.0466C56.4375 67.2272 56.3175 67.251 56.2969 67.2531L56.4991 69.2429ZM54.9645 16.7149C50.6985 11.5328 45.386 7.31032 39.3749 4.32394L38.485 6.11507C44.2439 8.97613 49.3334 13.0214 53.4204 17.9861L54.9645 16.7149ZM39.3749 4.32394C33.3637 1.33755 26.7895 -0.345338 20.0827 -0.614522L20.0025 1.38387C26.4278 1.64176 32.7261 3.25402 38.485 6.11507L39.3749 4.32394ZM20.0426 -0.615327H19.3882V1.38467H20.0426V-0.615327Z" fill="#343434" mask="url(#path-1-inside-1_2357_6294)"/>
<mask id="path-3-inside-2_2357_6294" fill="white">
<path d="M24.724 45.5459C23.76 45.5817 22.805 45.7442 21.8834 46.0292C21.2587 46.2178 17.1686 47.5968 15.7424 51.2272C15.2664 52.618 15.14 54.1046 15.3743 55.5559C15.6087 57.0071 16.1965 58.3784 17.0861 59.5487C21.2115 65.0532 28.873 60.7274 35.6151 65.8665C41.8622 70.5813 41.0606 78.8321 42.6872 78.6199C44.8914 78.396 49.1582 63.6859 41.6146 53.8674C39.5835 51.4002 37.0542 49.3898 34.1922 47.9679C31.3302 46.546 28.2001 45.7448 25.0069 45.6166H24.6887"/>
</mask>
<path d="M21.8834 46.0292L22.1724 46.9865L22.1788 46.9845L21.8834 46.0292ZM15.7424 51.2272L14.8117 50.8615L14.8035 50.8823L14.7963 50.9034L15.7424 51.2272ZM17.0861 59.5487L17.8863 58.949L17.8822 58.9436L17.0861 59.5487ZM35.6151 65.8665L35.0089 66.6618L35.0127 66.6647L35.6151 65.8665ZM42.6872 78.6199L42.5862 77.625L42.572 77.6265L42.5579 77.6283L42.6872 78.6199ZM41.6146 53.8674L42.4076 53.2582L42.3974 53.2449L42.3867 53.2319L41.6146 53.8674ZM25.0069 45.6166L25.047 44.6174L25.027 44.6166H25.0069V45.6166ZM24.6869 44.5466C23.6353 44.5856 22.5933 44.7629 21.588 45.0738L22.1788 46.9845C23.0166 46.7255 23.8848 46.5778 24.7611 46.5452L24.6869 44.5466ZM21.5944 45.0718C21.2292 45.1821 19.9561 45.607 18.5727 46.4963C17.1928 47.3834 15.629 48.781 14.8117 50.8615L16.6732 51.5928C17.282 50.043 18.4763 48.9359 19.6542 48.1787C20.8286 47.4237 21.9128 47.0648 22.1724 46.9865L21.5944 45.0718ZM14.7963 50.9034C14.2671 52.4495 14.1266 54.102 14.3871 55.7153L16.3615 55.3965C16.1534 54.1072 16.2657 52.7866 16.6885 51.551L14.7963 50.9034ZM14.3871 55.7153C14.6476 57.3285 15.3011 58.8529 16.29 60.1539L17.8822 58.9436C17.092 57.9039 16.5697 56.6857 16.3615 55.3965L14.3871 55.7153ZM16.2859 60.1484C18.6536 63.3077 22.0706 63.5966 25.2935 63.8417C28.6035 64.0935 31.9061 64.2968 35.0089 66.6618L36.2213 65.0712C32.582 62.2972 28.6828 62.0938 25.4452 61.8475C22.1205 61.5946 19.644 61.2942 17.8863 58.949L16.2859 60.1484ZM35.0127 66.6647C37.885 68.8325 39.1653 71.8301 39.9256 74.3769C40.1154 75.0126 40.2711 75.6138 40.4132 76.1689C40.5526 76.7139 40.6843 77.2363 40.8186 77.6735C40.9473 78.0921 41.109 78.5408 41.3458 78.8887C41.5995 79.2616 42.0849 79.7069 42.8166 79.6115L42.5579 77.6283C42.8829 77.5859 43.0376 77.8199 42.9993 77.7637C42.9442 77.6826 42.8529 77.4847 42.7304 77.0859C42.6135 76.7057 42.4958 76.2401 42.3507 75.6731C42.2082 75.1164 42.0442 74.4817 41.8421 73.8047C41.0347 71.1004 39.5922 67.6153 36.2175 65.0683L35.0127 66.6647ZM42.7883 79.6148C43.1888 79.5741 43.5144 79.3822 43.7524 79.1886C43.9959 78.9905 44.2109 78.7396 44.4001 78.4718C44.7789 77.9356 45.1323 77.22 45.4456 76.3926C46.0752 74.7295 46.5969 72.4693 46.8031 69.9223C47.2144 64.8413 46.3818 58.4309 42.4076 53.2582L40.8216 54.4767C44.3911 59.1225 45.1969 64.9763 44.8096 69.7609C44.6165 72.1467 44.1297 74.2197 43.5751 75.6845C43.2962 76.4212 43.0136 76.9682 42.7667 77.3177C42.643 77.4927 42.5477 77.5904 42.4902 77.6372C42.4272 77.6884 42.4612 77.6377 42.5862 77.625L42.7883 79.6148ZM42.3867 53.2319C40.2661 50.6559 37.6252 48.5569 34.6371 47.0723L33.7472 48.8635C36.4831 50.2227 38.901 52.1445 40.8426 54.503L42.3867 53.2319ZM34.6371 47.0723C31.649 45.5878 28.3809 44.7512 25.047 44.6174L24.9668 46.6158C28.0192 46.7383 31.0114 47.5043 33.7472 48.8635L34.6371 47.0723ZM25.0069 44.6166H24.6887V46.6166H25.0069V44.6166Z" fill="#343434" mask="url(#path-3-inside-2_2357_6294)"/>
</svg>
