<svg width="1440" height="48" viewBox="0 0 1440 48" fill="none" xmlns="http://www.w3.org/2000/svg">
<path d="M15.4918 39.5179C14.8957 38.9335 14.8415 38.019 15.3292 37.3746L15.4918 37.1899L28.9468 24L15.4918 10.8101C14.8957 10.2257 14.8415 9.31117 15.3292 8.66675L15.4918 8.48213C16.0879 7.89773 17.0207 7.8446 17.6781 8.32275L17.8664 8.48213L32.5082 22.836C33.1043 23.4204 33.1585 24.3349 32.6708 24.9793L32.5082 25.164L17.8664 39.5179C17.2107 40.1607 16.1475 40.1607 15.4918 39.5179Z" fill="#343434"/>
<path d="M103.492 39.5179C102.896 38.9335 102.841 38.019 103.329 37.3746L103.492 37.1899L116.947 24L103.492 10.8101C102.896 10.2257 102.841 9.31117 103.329 8.66675L103.492 8.48213C104.088 7.89773 105.021 7.8446 105.678 8.32275L105.866 8.48213L120.508 22.836C121.104 23.4204 121.159 24.3349 120.671 24.9793L120.508 25.164L105.866 39.5179C105.211 40.1607 104.148 40.1607 103.492 39.5179Z" fill="#343434"/>
<path d="M191.492 39.5179C190.896 38.9335 190.841 38.019 191.329 37.3746L191.492 37.1899L204.947 24L191.492 10.8101C190.896 10.2257 190.841 9.31117 191.329 8.66675L191.492 8.48213C192.088 7.89773 193.021 7.8446 193.678 8.32275L193.866 8.48213L208.508 22.836C209.104 23.4204 209.159 24.3349 208.671 24.9793L208.508 25.164L193.866 39.5179C193.211 40.1607 192.148 40.1607 191.492 39.5179Z" fill="#343434"/>
<path d="M279.492 39.5179C278.896 38.9335 278.841 38.019 279.329 37.3746L279.492 37.1899L292.947 24L279.492 10.8101C278.896 10.2257 278.841 9.31117 279.329 8.66675L279.492 8.48213C280.088 7.89773 281.021 7.8446 281.678 8.32275L281.866 8.48213L296.508 22.836C297.104 23.4204 297.159 24.3349 296.671 24.9793L296.508 25.164L281.866 39.5179C281.211 40.1607 280.148 40.1607 279.492 39.5179Z" fill="#343434"/>
<path d="M367.492 39.5179C366.896 38.9335 366.841 38.019 367.329 37.3746L367.492 37.1899L380.947 24L367.492 10.8101C366.896 10.2257 366.841 9.31117 367.329 8.66675L367.492 8.48213C368.088 7.89773 369.021 7.8446 369.678 8.32275L369.866 8.48213L384.508 22.836C385.104 23.4204 385.159 24.3349 384.671 24.9793L384.508 25.164L369.866 39.5179C369.211 40.1607 368.148 40.1607 367.492 39.5179Z" fill="#343434"/>
<path d="M455.492 39.5179C454.896 38.9335 454.841 38.019 455.329 37.3746L455.492 37.1899L468.947 24L455.492 10.8101C454.896 10.2257 454.841 9.31117 455.329 8.66675L455.492 8.48213C456.088 7.89773 457.021 7.8446 457.678 8.32275L457.866 8.48213L472.508 22.836C473.104 23.4204 473.159 24.3349 472.671 24.9793L472.508 25.164L457.866 39.5179C457.211 40.1607 456.148 40.1607 455.492 39.5179Z" fill="#343434"/>
<path d="M543.492 39.5179C542.896 38.9335 542.841 38.019 543.329 37.3746L543.492 37.1899L556.947 24L543.492 10.8101C542.896 10.2257 542.841 9.31117 543.329 8.66675L543.492 8.48213C544.088 7.89773 545.021 7.8446 545.678 8.32275L545.866 8.48213L560.508 22.836C561.104 23.4204 561.159 24.3349 560.671 24.9793L560.508 25.164L545.866 39.5179C545.211 40.1607 544.148 40.1607 543.492 39.5179Z" fill="#343434"/>
<path d="M631.492 39.5179C630.896 38.9335 630.841 38.019 631.329 37.3746L631.492 37.1899L644.947 24L631.492 10.8101C630.896 10.2257 630.841 9.31117 631.329 8.66675L631.492 8.48213C632.088 7.89773 633.021 7.8446 633.678 8.32275L633.866 8.48213L648.508 22.836C649.104 23.4204 649.159 24.3349 648.671 24.9793L648.508 25.164L633.866 39.5179C633.211 40.1607 632.148 40.1607 631.492 39.5179Z" fill="#343434"/>
<path d="M719.492 39.5179C718.896 38.9335 718.841 38.019 719.329 37.3746L719.492 37.1899L732.947 24L719.492 10.8101C718.896 10.2257 718.841 9.31117 719.329 8.66675L719.492 8.48213C720.088 7.89773 721.021 7.8446 721.678 8.32275L721.866 8.48213L736.508 22.836C737.104 23.4204 737.159 24.3349 736.671 24.9793L736.508 25.164L721.866 39.5179C721.211 40.1607 720.148 40.1607 719.492 39.5179Z" fill="#343434"/>
<path d="M807.492 39.5179C806.896 38.9335 806.841 38.019 807.329 37.3746L807.492 37.1899L820.947 24L807.492 10.8101C806.896 10.2257 806.841 9.31117 807.329 8.66675L807.492 8.48213C808.088 7.89773 809.021 7.8446 809.678 8.32275L809.866 8.48213L824.508 22.836C825.104 23.4204 825.159 24.3349 824.671 24.9793L824.508 25.164L809.866 39.5179C809.211 40.1607 808.148 40.1607 807.492 39.5179Z" fill="#343434"/>
<path d="M895.492 39.5179C894.896 38.9335 894.841 38.019 895.329 37.3746L895.492 37.1899L908.947 24L895.492 10.8101C894.896 10.2257 894.841 9.31117 895.329 8.66675L895.492 8.48213C896.088 7.89773 897.021 7.8446 897.678 8.32275L897.866 8.48213L912.508 22.836C913.104 23.4204 913.159 24.3349 912.671 24.9793L912.508 25.164L897.866 39.5179C897.211 40.1607 896.148 40.1607 895.492 39.5179Z" fill="#343434"/>
<path d="M983.492 39.5179C982.896 38.9335 982.841 38.019 983.329 37.3746L983.492 37.1899L996.947 24L983.492 10.8101C982.896 10.2257 982.841 9.31117 983.329 8.66675L983.492 8.48213C984.088 7.89773 985.021 7.8446 985.678 8.32275L985.866 8.48213L1000.51 22.836C1001.1 23.4204 1001.16 24.3349 1000.67 24.9793L1000.51 25.164L985.866 39.5179C985.211 40.1607 984.148 40.1607 983.492 39.5179Z" fill="#343434"/>
<path d="M1071.49 39.5179C1070.9 38.9335 1070.84 38.019 1071.33 37.3746L1071.49 37.1899L1084.95 24L1071.49 10.8101C1070.9 10.2257 1070.84 9.31117 1071.33 8.66675L1071.49 8.48213C1072.09 7.89773 1073.02 7.8446 1073.68 8.32275L1073.87 8.48213L1088.51 22.836C1089.1 23.4204 1089.16 24.3349 1088.67 24.9793L1088.51 25.164L1073.87 39.5179C1073.21 40.1607 1072.15 40.1607 1071.49 39.5179Z" fill="#343434"/>
<path d="M1159.49 39.5179C1158.9 38.9335 1158.84 38.019 1159.33 37.3746L1159.49 37.1899L1172.95 24L1159.49 10.8101C1158.9 10.2257 1158.84 9.31117 1159.33 8.66675L1159.49 8.48213C1160.09 7.89773 1161.02 7.8446 1161.68 8.32275L1161.87 8.48213L1176.51 22.836C1177.1 23.4204 1177.16 24.3349 1176.67 24.9793L1176.51 25.164L1161.87 39.5179C1161.21 40.1607 1160.15 40.1607 1159.49 39.5179Z" fill="#343434"/>
<path d="M1247.49 39.5179C1246.9 38.9335 1246.84 38.019 1247.33 37.3746L1247.49 37.1899L1260.95 24L1247.49 10.8101C1246.9 10.2257 1246.84 9.31117 1247.33 8.66675L1247.49 8.48213C1248.09 7.89773 1249.02 7.8446 1249.68 8.32275L1249.87 8.48213L1264.51 22.836C1265.1 23.4204 1265.16 24.3349 1264.67 24.9793L1264.51 25.164L1249.87 39.5179C1249.21 40.1607 1248.15 40.1607 1247.49 39.5179Z" fill="#343434"/>
<path d="M1335.49 39.5179C1334.9 38.9335 1334.84 38.019 1335.33 37.3746L1335.49 37.1899L1348.95 24L1335.49 10.8101C1334.9 10.2257 1334.84 9.31117 1335.33 8.66675L1335.49 8.48213C1336.09 7.89773 1337.02 7.8446 1337.68 8.32275L1337.87 8.48213L1352.51 22.836C1353.1 23.4204 1353.16 24.3349 1352.67 24.9793L1352.51 25.164L1337.87 39.5179C1337.21 40.1607 1336.15 40.1607 1335.49 39.5179Z" fill="#343434"/>
<path d="M1423.49 39.5179C1422.9 38.9335 1422.84 38.019 1423.33 37.3746L1423.49 37.1899L1436.95 24L1423.49 10.8101C1422.9 10.2257 1422.84 9.31117 1423.33 8.66675L1423.49 8.48213C1424.09 7.89773 1425.02 7.8446 1425.68 8.32275L1425.87 8.48213L1440.51 22.836C1441.1 23.4204 1441.16 24.3349 1440.67 24.9793L1440.51 25.164L1425.87 39.5179C1425.21 40.1607 1424.15 40.1607 1423.49 39.5179Z" fill="#343434"/>
</svg>
