<svg width="85" height="106" viewBox="0 0 85 106" fill="none" xmlns="http://www.w3.org/2000/svg">
<mask id="mask0_2357_6283" style="mask-type:luminance" maskUnits="userSpaceOnUse" x="0" y="0" width="85" height="92">
<path d="M26.1789 0C23.5124 0.0990359 20.8707 0.548474 18.3215 1.33674C16.5935 1.8584 5.28005 5.67301 1.33502 15.7149C0.0183236 19.5621 -0.331336 23.6742 0.316859 27.6884C0.965055 31.7027 2.59118 35.4957 5.05182 38.733C16.4631 53.9588 37.6553 41.9933 56.3046 56.2085C73.5844 69.2499 71.3674 92.0723 75.8667 91.4855C81.9635 90.866 93.766 50.1768 72.8997 23.0181C67.2816 16.1934 60.2852 10.6324 52.3686 6.69944C44.4521 2.76645 35.794 0.550122 26.9614 0.195613H26.0811" fill="white"/>
</mask>
<g mask="url(#mask0_2357_6283)">
<path d="M51.8966 -47.404L-47.2793 40.4629L40.3714 139.395L139.547 51.5278L51.8966 -47.404Z" fill="url(#paint0_linear_2357_6283)"/>
</g>
<mask id="mask1_2357_6283" style="mask-type:luminance" maskUnits="userSpaceOnUse" x="20" y="60" width="42" height="46">
<path d="M33.2587 60.9463C31.9619 60.9945 30.6772 61.213 29.4374 61.5964C28.5971 61.8501 23.0951 63.7052 21.1766 68.5888C20.5363 70.4597 20.3662 72.4595 20.6814 74.4117C20.9967 76.3639 21.7875 78.2086 22.9841 79.7829C28.5337 87.1875 38.8399 81.3685 47.9094 88.2816C56.3129 94.6239 55.2347 105.723 57.4228 105.438C60.3879 105.136 66.1276 85.3483 55.98 72.1404C53.2477 68.8215 49.8452 66.1171 45.9953 64.2044C42.1453 62.2917 37.9347 61.2138 33.6392 61.0414H33.2111" fill="white"/>
</mask>
<g mask="url(#mask1_2357_6283)">
<path d="M45.7664 37.8936L-2.46484 80.625L40.1614 128.738L88.3927 86.0061L45.7664 37.8936Z" fill="url(#paint1_linear_2357_6283)"/>
</g>
<defs>
<linearGradient id="paint0_linear_2357_6283" x1="-442.263" y1="473.47" x2="42.9523" y2="43.5841" gradientUnits="userSpaceOnUse">
<stop stop-color="white"/>
</linearGradient>
<linearGradient id="paint1_linear_2357_6283" x1="-194.553" y1="291.205" x2="41.4166" y2="82.1429" gradientUnits="userSpaceOnUse">
<stop stop-color="white"/>
</linearGradient>
</defs>
</svg>
