<svg width="36" height="30" viewBox="0 0 36 30" fill="none" xmlns="http://www.w3.org/2000/svg">
<path fill-rule="evenodd" clip-rule="evenodd" d="M34.5857 16.6457C35.3844 16.5357 36 15.8409 36 15.0002C36 14.0831 35.2674 13.3396 34.3636 13.3396L5.60013 13.3396L15.9906 2.83732L16.1494 2.6514C16.6261 2.00229 16.5751 1.07961 15.9954 0.488824C15.3577 -0.161038 14.3216 -0.163215 13.6812 0.483961L0.50452 13.8009C0.426083 13.8772 0.35511 13.9613 0.292831 14.052C-0.153271 14.7005 -0.0904312 15.6001 0.481339 16.1779L13.6813 29.5161L13.8652 29.6765C14.5068 30.1575 15.4158 30.1019 15.9955 29.5111C16.6332 28.8612 16.6309 27.8097 15.9905 27.1626L5.59754 16.6609L34.3636 16.6609L34.5857 16.6457Z" fill="#200E32"/>
</svg>
