<svg width="16" height="19" viewBox="0 0 16 19" fill="none" xmlns="http://www.w3.org/2000/svg">
<mask id="mask0_568_6101" style="mask-type:luminance" maskUnits="userSpaceOnUse" x="0" y="0" width="16" height="17">
<path d="M5.4466 0.304932C4.98156 0.322204 4.52081 0.400588 4.07622 0.538067C3.77485 0.629047 1.80173 1.29434 1.11369 3.04569C0.884055 3.71666 0.823073 4.43383 0.936121 5.13394C1.04917 5.83405 1.33278 6.49558 1.76192 7.06017C3.7521 9.71564 7.44815 7.62879 10.7007 10.108C13.7144 12.3825 13.3277 16.3628 14.1124 16.2605C15.1757 16.1524 17.2341 9.05604 13.595 4.31941C12.6151 3.12914 11.3949 2.15928 10.0142 1.47335C8.63354 0.787415 7.12352 0.400876 5.58307 0.339048H5.42954" fill="white"/>
</mask>
<g mask="url(#mask0_568_6101)">
<path d="M9.93156 -7.96215L-7.36523 7.3623L7.92151 24.6165L25.2183 9.29209L9.93156 -7.96215Z" fill="#FED85F"/>
</g>
<mask id="mask1_568_6101" style="mask-type:luminance" maskUnits="userSpaceOnUse" x="4" y="10" width="8" height="9">
<path d="M6.68135 10.9346C6.45519 10.943 6.23112 10.9811 6.01491 11.0479C5.86834 11.0922 4.90877 11.4157 4.57417 12.2675C4.46249 12.5938 4.43283 12.9425 4.48781 13.283C4.54279 13.6235 4.68071 13.9452 4.88942 14.2198C5.85728 15.5112 7.65474 14.4963 9.23651 15.702C10.7021 16.8081 10.5141 18.7439 10.8957 18.6941C11.4128 18.6415 12.4139 15.1904 10.6441 12.8869C10.1675 12.308 9.57413 11.8364 8.90268 11.5028C8.23122 11.1692 7.49687 10.9812 6.74772 10.9512H6.67305" fill="white"/>
</mask>
<g mask="url(#mask1_568_6101)">
<path d="M8.86295 6.91411L0.451172 14.3667L7.88542 22.7578L16.2972 15.3052L8.86295 6.91411Z" fill="#FED85F"/>
</g>
</svg>
