<svg width="81" height="81" viewBox="0 0 81 81" fill="none" xmlns="http://www.w3.org/2000/svg">
<g filter="url(#filter0_dd_568_6086)">
<circle cx="40.5" cy="36.5" r="29.5" fill="white"/>
</g>
<mask id="mask0_568_6086" style="mask-type:luminance" maskUnits="userSpaceOnUse" x="26" y="19" width="29" height="31">
<path d="M34.6896 19C33.8046 19.0329 32.9277 19.1821 32.0815 19.4437C31.5079 19.6169 27.7526 20.8831 26.4431 24.2163C26.0061 25.4933 25.89 26.8582 26.1052 28.1907C26.3203 29.5232 26.8601 30.7822 27.6769 31.8567C31.4646 36.9107 38.499 32.939 44.6893 37.6574C50.4251 41.9863 49.6892 49.5618 51.1826 49.367C53.2064 49.1614 57.124 35.6553 50.1978 26.6405C48.333 24.3751 46.0106 22.5293 43.3829 21.2238C40.7551 19.9183 37.8812 19.1826 34.9494 19.0649H34.6572" fill="white"/>
</mask>
<g mask="url(#mask0_568_6086)">
<path d="M43.2264 3.2655L10.3066 32.4314L39.4008 65.2701L72.3205 36.1042L43.2264 3.2655Z" fill="#FED85F"/>
</g>
<mask id="mask1_568_6086" style="mask-type:luminance" maskUnits="userSpaceOnUse" x="32" y="39" width="15" height="15">
<path d="M37.0404 39.2302C36.61 39.2462 36.1835 39.3188 35.772 39.446C35.4931 39.5302 33.6668 40.146 33.03 41.767C32.8174 42.388 32.761 43.0518 32.8656 43.6998C32.9702 44.3478 33.2327 44.9601 33.6299 45.4827C35.472 47.9406 38.893 46.009 41.9034 48.3037C44.6929 50.4089 44.335 54.0931 45.0613 53.9983C46.0455 53.8983 47.9507 47.33 44.5823 42.9459C43.6754 41.8442 42.546 40.9466 41.2681 40.3117C39.9902 39.6768 38.5925 39.319 37.1667 39.2618H37.0246" fill="white"/>
</mask>
<g mask="url(#mask1_568_6086)">
<path d="M41.1912 31.5785L25.1816 45.7625L39.3307 61.7326L55.3402 47.5486L41.1912 31.5785Z" fill="#FED85F"/>
</g>
<defs>
<filter id="filter0_dd_568_6086" x="0" y="0" width="81" height="81" filterUnits="userSpaceOnUse" color-interpolation-filters="sRGB">
<feFlood flood-opacity="0" result="BackgroundImageFix"/>
<feColorMatrix in="SourceAlpha" type="matrix" values="0 0 0 0 0 0 0 0 0 0 0 0 0 0 0 0 0 0 127 0" result="hardAlpha"/>
<feOffset dy="1"/>
<feGaussianBlur stdDeviation="1.5"/>
<feColorMatrix type="matrix" values="0 0 0 0 1 0 0 0 0 1 0 0 0 0 1 0 0 0 0.3 0"/>
<feBlend mode="normal" in2="BackgroundImageFix" result="effect1_dropShadow_568_6086"/>
<feColorMatrix in="SourceAlpha" type="matrix" values="0 0 0 0 0 0 0 0 0 0 0 0 0 0 0 0 0 0 127 0" result="hardAlpha"/>
<feMorphology radius="3" operator="dilate" in="SourceAlpha" result="effect2_dropShadow_568_6086"/>
<feOffset dy="4"/>
<feGaussianBlur stdDeviation="4"/>
<feColorMatrix type="matrix" values="0 0 0 0 1 0 0 0 0 1 0 0 0 0 1 0 0 0 0.15 0"/>
<feBlend mode="normal" in2="effect1_dropShadow_568_6086" result="effect2_dropShadow_568_6086"/>
<feBlend mode="normal" in="SourceGraphic" in2="effect2_dropShadow_568_6086" result="shape"/>
</filter>
</defs>
</svg>
