<svg width="454" height="165" viewBox="0 0 454 165" fill="none" xmlns="http://www.w3.org/2000/svg">
<path d="M242.592 63.3245C246.572 64.5922 250.296 67.0503 253.179 70.3041C256.139 73.4962 258.264 77.4361 259.457 81.5315C259.598 82.0149 259.67 82.5122 259.794 83.0044C259.897 83.4969 260.033 83.9716 260.08 84.5039C260.211 85.5376 260.36 86.5624 260.379 87.6106C260.522 89.697 260.378 91.8002 260.131 93.8918C259.55 98.0762 258.349 102.243 256.565 106.21C254.807 110.185 252.584 113.997 250.002 117.58C248.737 119.391 247.337 121.108 245.889 122.796C244.497 124.53 242.909 126.094 241.403 127.735C238.235 130.858 234.904 133.836 231.326 136.506C227.726 139.132 224.02 141.639 220.075 143.767C216.148 145.909 212.114 147.865 207.924 149.477L206.361 150.101L204.775 150.659C203.711 151.025 202.66 151.416 201.599 151.768C199.448 152.412 197.314 153.113 195.126 153.645C194.242 153.873 193.349 154.085 192.446 154.257L189.733 154.723L189.893 154.673C184.583 155.806 179.19 156.611 173.762 157.074C168.329 157.507 162.875 157.603 157.424 157.39C146.524 156.987 135.672 155.163 125.198 152.15C119.14 150.386 113.211 148.196 107.48 145.566L98.9586 141.357L90.6986 136.642C79.8614 130.043 69.7774 122.203 60.4692 113.503C41.848 96.0738 26.3675 75.3827 13.1211 53.4484C12.0405 51.7603 10.924 49.6871 9.68224 47.6242C8.46624 45.5481 7.1723 43.4687 6.04563 41.5862C3.74934 37.8436 1.69284 35.1332 0.779242 35.7477C-1.07376 36.9902 1.82489 45.9411 9.13482 58.151L12.4869 63.66L16.0022 69.0846L17.7643 71.7946L19.6077 74.4515L23.3033 79.7609C28.4122 86.7063 33.637 93.5807 39.3669 100.041C42.1377 103.353 45.1436 106.445 48.0854 109.602L49.1892 110.787L54.9554 116.455C55.7197 117.215 56.4926 117.972 57.3038 118.676C60.523 121.548 63.6482 124.513 67.042 127.175C68.7197 128.521 70.3423 129.95 72.0582 131.244L77.2357 135.1C87.4263 142.514 98.453 148.742 110.103 153.71C121.824 158.543 134.218 161.62 146.792 163.088C159.358 164.539 172.129 164.345 184.645 162.352C197.153 160.363 209.423 156.523 220.758 150.69C230.916 145.445 240.324 138.581 248.119 130.118C252.013 125.911 255.646 121.39 258.624 116.402C261.636 111.44 264.076 106.065 265.575 100.326C266.3 97.4521 266.791 94.5037 266.982 91.503C267.117 88.4987 266.961 85.481 266.447 82.4855C265.316 76.3833 262.431 70.7857 258.361 66.2482C256.353 63.9487 253.97 61.9749 251.353 60.3293C250.067 59.4671 248.646 58.8278 247.243 58.1579L245.031 57.3603C244.304 57.0711 243.506 56.9606 242.745 56.7543C236.58 55.3515 229.685 56.4758 224.422 60.2902C221.953 62.0479 219.863 64.2857 218.257 66.764C216.651 69.2422 215.477 71.9442 214.663 74.7107C213.053 80.2564 212.833 86.065 213.801 91.6842C214.785 97.2946 217.016 102.784 220.684 107.388C221.142 107.958 221.614 108.532 222.128 109.062L222.884 109.871L223.67 110.588C224.731 111.523 225.728 112.544 226.887 113.352C228.017 114.208 229.133 115.081 230.352 115.792L232.143 116.916C232.758 117.263 233.386 117.571 234.006 117.905C238.997 120.493 244.351 122.184 249.74 123.225C255.142 124.27 260.586 124.681 265.991 124.699C271.391 124.709 276.767 124.315 282.062 123.637L289.943 122.417L293.884 121.797C295.197 121.597 296.487 121.246 297.787 120.977C315.761 117.272 333.193 111.11 349.558 102.948C365.94 94.776 381.285 84.6212 395.256 72.8646C396.086 72.1732 396.917 71.4818 397.756 70.786C398.603 70.1073 399.42 69.3684 400.219 68.6168C401.835 67.1262 403.463 65.6398 405.092 64.1751C408.438 61.3311 411.491 58.2787 414.64 55.6453L414.56 55.7633C417.757 51.9378 421.298 47.8911 424.94 43.934C426.805 41.9981 428.38 39.8192 429.94 37.7358C431.478 35.6311 432.885 33.5065 434.045 31.3679C435.876 28.5443 437.666 25.6 439.55 22.9231C440.089 22.1533 440.603 21.4185 441.091 20.7187C441.561 20.0062 441.958 19.2989 442.347 18.6394C443.125 17.3205 443.805 16.1286 444.379 15.068C445.531 12.9555 446.293 11.3725 446.65 10.2932C447.372 8.13014 446.5 7.98162 444.157 9.52099C443.132 10.1934 443.129 8.75509 441.009 11.6519C441.005 11.6649 440.909 11.9001 440.909 11.9001L440.929 11.7915C439.294 13.7286 437.796 15.8891 436.23 18.1068C434.585 20.278 432.985 22.5786 431.403 24.9352C430.602 26.1028 429.853 27.3304 429.025 28.4897C428.171 29.6407 427.321 30.8002 426.476 31.9468C424.772 34.2357 423.125 36.5715 421.384 38.7266C404.028 59.6749 382.961 77.6233 359.199 90.9115C353.347 94.3873 347.165 97.248 341.036 100.19L331.63 104.13C330.073 104.827 328.456 105.347 326.854 105.914L322.041 107.608C320.433 108.146 318.845 108.782 317.214 109.255L312.311 110.647C309.033 111.558 305.8 112.598 302.457 113.237C299.137 113.94 295.832 114.756 292.489 115.373L282.422 116.939C274.198 118.107 265.898 118.518 257.765 117.818C249.645 117.143 241.669 115.085 234.819 111.135C233.989 110.605 233.133 110.109 232.315 109.561L229.956 107.804C228.487 106.502 226.967 105.227 225.803 103.8C223.363 100.939 221.668 97.4095 220.598 93.7197C219.558 90.0034 219.194 86.0787 219.521 82.2443C219.873 78.4182 220.889 74.6525 222.706 71.4436C224.682 67.9119 227.666 65.1681 231.24 63.7984L232.602 63.3337L234.013 62.9855L235.448 62.7885L236.165 62.6791C236.407 62.6628 236.654 62.6768 236.888 62.665L238.343 62.6323L239.795 62.786L240.528 62.8541L241.254 63.0133L242.713 63.3271C242.679 63.3449 242.631 63.337 242.592 63.3245Z" fill="#1EA48B"/>
<path d="M448.849 5.65407C448.627 4.69957 448.43 3.62342 448.136 2.71756L447.371 0.418674C445.185 2.25921 442.897 4.32634 440.777 5.95802C440.644 6.05947 440.449 6.04045 440.285 6.08166L440.294 6.05553L438.631 7.30841C438.22 7.60859 437.791 7.89603 437.349 8.15762C435.292 9.36386 433.229 10.4532 431.324 12.0603C431.025 12.3026 430.444 12.5704 431.291 14.5866C432.174 16.6933 433.124 17.7289 433.768 17.352C435.301 16.4387 436.63 15.1947 438.334 14.6951C439.588 14.3185 440.723 13.7096 441.804 13.0191C442.075 12.8465 442.341 12.6653 442.606 12.4841L443.237 12.038C443.412 11.9143 443.515 11.8393 443.606 11.8035C443.761 11.745 443.894 11.6436 444.03 11.5291C444.11 11.6623 444.175 11.9344 444.182 12.1596C444.179 12.2593 444.159 12.3678 444.126 12.4506L444.109 12.4812L444.138 12.6627L444.204 13.0431L444.34 13.8124C444.519 14.8325 444.728 15.8478 445.045 16.8183C445.602 18.5048 446.68 20.0197 447.422 21.643C447.596 22.0219 447.844 22.4172 447.165 23.0416L447.135 23.0463C448.228 23.2005 446.628 24.301 448.174 24.2974C448.259 24.4392 448.451 24.5579 448.423 24.7359C448.296 25.5435 449.105 25.4849 451.412 24.4876C451.92 24.2684 452.623 24.1116 452.931 23.8215L452.887 23.8221L452.926 23.8129C454.389 22.827 453.432 22.4933 453.298 21.9622C452.637 19.337 451.83 16.7441 451.083 14.1416L450.352 11.7599C450.229 11.3543 450.137 10.9874 450.022 10.534C449.822 9.80885 449.642 9.06167 449.466 8.27985C449.286 7.44612 449.265 6.3113 448.848 5.63239L448.849 5.65407Z" fill="#1EA48B"/>
</svg>
