<svg width="497" height="122" viewBox="0 0 497 122" fill="none" xmlns="http://www.w3.org/2000/svg">
<path d="M0.304688 41.7761C0.304688 41.2214 0.496688 40.5174 0.880687 39.6641L16.4967 4.40009C17.0514 3.16276 17.8194 2.20276 18.8007 1.52009C19.782 0.837426 20.934 0.496094 22.2567 0.496094H22.8327C24.1554 0.496094 25.286 0.837426 26.2247 1.52009C27.206 2.20276 27.974 3.16276 28.5287 4.40009L44.1447 39.6641C44.486 40.4321 44.6567 41.0934 44.6567 41.6481C44.6567 42.9708 44.2087 44.1014 43.3127 45.0401C42.4167 45.9361 41.3074 46.3841 39.9847 46.3841C37.8087 46.3841 36.23 45.2534 35.2487 42.9921L32.2407 35.9521H12.5287L9.39269 43.3121C8.96602 44.2934 8.34735 45.0614 7.53669 45.6161C6.76869 46.1281 5.87269 46.3841 4.84869 46.3841C3.56869 46.3841 2.48069 45.9361 1.58469 45.0401C0.731354 44.1441 0.304688 43.0561 0.304688 41.7761ZM22.3847 12.4641L16.1767 27.2481H28.5927L22.3847 12.4641Z" fill="#0F172A"/>
<path d="M87.5002 46.6401C84.5135 46.6401 81.5695 46.1921 78.6682 45.2961C75.8095 44.3574 73.1429 43.0134 70.6682 41.2641C70.1135 40.8801 69.6655 40.3681 69.3242 39.7281C68.9829 39.0454 68.8122 38.3201 68.8122 37.5521C68.8122 36.2721 69.2602 35.2054 70.1562 34.3521C71.0522 33.4561 72.1402 33.0081 73.4202 33.0081C74.4442 33.0081 75.3829 33.3068 76.2362 33.9041C79.9055 36.5921 83.7242 37.9361 87.6922 37.9361C89.6975 37.9361 91.2762 37.5734 92.4282 36.8481C93.5802 36.0801 94.1562 35.0348 94.1562 33.7121V33.5841C94.1562 32.6881 93.9215 31.9414 93.4522 31.3441C92.9828 30.7468 92.0869 30.1921 90.7642 29.6801C89.4842 29.1254 87.6069 28.5281 85.1322 27.8881C81.7189 26.9921 78.9669 26.0748 76.8762 25.1361C74.8282 24.1548 73.2068 22.8108 72.0122 21.1041C70.8602 19.3548 70.2842 17.0508 70.2842 14.1921V14.0641C70.2842 11.3761 70.9455 9.02943 72.2682 7.02409C73.6335 4.97609 75.4895 3.39743 77.8362 2.28809C80.2255 1.13609 82.9349 0.560093 85.9642 0.560093C91.2549 0.560093 95.9909 1.88276 100.172 4.5281C100.77 4.86943 101.282 5.38143 101.708 6.06409C102.135 6.74676 102.348 7.53609 102.348 8.43209C102.348 9.71209 101.9 10.8001 101.004 11.6961C100.108 12.5494 99.0202 12.9761 97.7402 12.9761C96.8869 12.9761 96.0549 12.7414 95.2442 12.2721C91.8309 10.2668 88.6949 9.2641 85.8362 9.2641C84.0015 9.2641 82.5722 9.62676 81.5482 10.3521C80.5669 11.0774 80.0762 12.0161 80.0762 13.1681V13.2961C80.0762 14.2774 80.3322 15.0881 80.8442 15.7281C81.3988 16.3254 82.3375 16.8801 83.6602 17.3921C84.9829 17.9041 87.0095 18.5014 89.7402 19.1841C94.6042 20.4641 98.1882 22.1068 100.492 24.1121C102.796 26.0748 103.948 28.9121 103.948 32.6241V32.7521C103.948 37.1041 102.434 40.5174 99.4042 42.9921C96.4175 45.4241 92.4495 46.6401 87.5002 46.6401Z" fill="#0F172A"/>
<path d="M122.749 46.5761C119.549 46.5761 117.075 45.8081 115.325 44.2721C113.619 42.6934 112.765 40.0268 112.765 36.2721V20.0161H112.445C111.293 20.0161 110.312 19.6108 109.501 18.8001C108.691 17.9894 108.285 17.0081 108.285 15.8561C108.285 14.7041 108.691 13.7228 109.501 12.9121C110.312 12.1014 111.293 11.6961 112.445 11.6961H112.765V7.40809C112.765 6.04276 113.235 4.89076 114.173 3.9521C115.155 3.01343 116.307 2.54409 117.629 2.54409C118.995 2.54409 120.147 3.01343 121.085 3.9521C122.024 4.89076 122.493 6.04276 122.493 7.40809V11.6961H126.781C127.933 11.6961 128.915 12.1014 129.725 12.9121C130.536 13.7228 130.941 14.7041 130.941 15.8561C130.941 17.0081 130.536 17.9894 129.725 18.8001C128.915 19.6108 127.933 20.0161 126.781 20.0161H122.493V34.6721C122.493 35.7814 122.749 36.6134 123.261 37.1681C123.773 37.7228 124.563 38.0001 125.629 38.0001L126.781 37.9361C127.891 37.9361 128.829 38.3414 129.597 39.1521C130.408 39.9201 130.813 40.8588 130.813 41.9681C130.813 42.8214 130.557 43.5894 130.045 44.2721C129.576 44.9121 129 45.3601 128.317 45.6161C126.696 46.2561 124.84 46.5761 122.749 46.5761Z" fill="#0F172A"/>
<path d="M137.728 16.1761C137.728 14.8108 138.197 13.6588 139.136 12.7201C140.117 11.7814 141.269 11.3121 142.592 11.3121C143.957 11.3121 145.109 11.7814 146.048 12.7201C146.986 13.6588 147.456 14.8108 147.456 16.1761V17.7121C148.224 15.8774 149.184 14.3628 150.336 13.1681C151.488 11.9308 152.725 11.3121 154.048 11.3121C155.541 11.3121 156.693 11.7601 157.504 12.6561C158.357 13.5094 158.784 14.6401 158.784 16.0481C158.784 17.2854 158.442 18.2881 157.76 19.0561C157.077 19.8241 156.202 20.3361 155.136 20.5921C150.016 21.7868 147.456 25.7334 147.456 32.4321V41.5201C147.456 42.8428 146.986 43.9948 146.048 44.9761C145.109 45.9148 143.957 46.3841 142.592 46.3841C141.269 46.3841 140.117 45.9148 139.136 44.9761C138.197 43.9948 137.728 42.8428 137.728 41.5201V16.1761Z" fill="#0F172A"/>
<path d="M180.372 46.7681C176.916 46.7681 173.759 45.9788 170.9 44.4001C168.084 42.8214 165.866 40.6881 164.244 38.0001C162.666 35.2694 161.876 32.2828 161.876 29.0401V28.9121C161.876 25.6694 162.687 22.6828 164.308 19.9521C165.93 17.2214 168.148 15.0668 170.964 13.4881C173.823 11.8668 177.002 11.0561 180.5 11.0561C183.956 11.0561 187.092 11.8454 189.908 13.4241C192.767 15.0028 194.986 17.1574 196.564 19.8881C198.186 22.5761 198.996 25.5414 198.996 28.7841V28.9121C198.996 32.1548 198.186 35.1414 196.564 37.8721C194.943 40.6028 192.703 42.7788 189.844 44.4001C187.028 45.9788 183.871 46.7681 180.372 46.7681ZM180.5 38.3841C183.188 38.3841 185.343 37.4881 186.964 35.6961C188.586 33.9041 189.396 31.6854 189.396 29.0401V28.9121C189.396 27.2054 189.012 25.6481 188.244 24.2401C187.476 22.7894 186.41 21.6374 185.044 20.7841C183.679 19.8881 182.122 19.4401 180.372 19.4401C177.684 19.4401 175.53 20.3361 173.908 22.1281C172.287 23.9201 171.476 26.1388 171.476 28.7841V28.9121C171.476 30.6188 171.86 32.1974 172.628 33.6481C173.396 35.0561 174.463 36.2081 175.828 37.1041C177.194 37.9574 178.751 38.3841 180.5 38.3841Z" fill="#0F172A"/>
<path d="M206.04 16.1761C206.04 14.8108 206.51 13.6588 207.448 12.7201C208.43 11.7814 209.582 11.3121 210.904 11.3121C212.27 11.3121 213.422 11.7814 214.36 12.7201C215.299 13.6588 215.768 14.8108 215.768 16.1761V16.5601C217.091 14.8534 218.52 13.5094 220.056 12.5281C221.635 11.5468 223.555 11.0561 225.816 11.0561C229.486 11.0561 232.344 12.1868 234.392 14.4481C236.44 16.7094 237.464 19.8241 237.464 23.7921V41.5201C237.464 42.8428 236.995 43.9948 236.056 44.9761C235.118 45.9148 233.966 46.3841 232.6 46.3841C231.278 46.3841 230.126 45.9148 229.144 44.9761C228.206 43.9948 227.736 42.8428 227.736 41.5201V26.8641C227.736 24.6028 227.224 22.8748 226.2 21.6801C225.176 20.4854 223.726 19.8881 221.848 19.8881C219.971 19.8881 218.478 20.4854 217.368 21.6801C216.302 22.8748 215.768 24.6028 215.768 26.8641V41.5201C215.768 42.8428 215.299 43.9948 214.36 44.9761C213.422 45.9148 212.27 46.3841 210.904 46.3841C209.582 46.3841 208.43 45.9148 207.448 44.9761C206.51 43.9948 206.04 42.8428 206.04 41.5201V16.1761Z" fill="#0F172A"/>
<path d="M261.275 56.3681C256.881 56.3681 252.699 55.5788 248.731 54.0001C247.878 53.6588 247.195 53.1681 246.683 52.5281C246.214 51.8881 245.979 51.1201 245.979 50.2241C245.979 49.1574 246.363 48.2188 247.131 47.4081C247.942 46.6401 248.881 46.2561 249.947 46.2561C250.502 46.2561 251.035 46.3628 251.547 46.5761C254.534 47.9414 257.691 48.6241 261.019 48.6241C267.547 48.6241 270.811 45.5094 270.811 39.2801V37.6161C269.275 39.4934 267.633 40.9014 265.883 41.8401C264.177 42.7361 262.086 43.1841 259.611 43.1841C256.881 43.1841 254.342 42.5441 251.995 41.2641C249.691 39.9841 247.835 38.1494 246.427 35.7601C245.062 33.3281 244.379 30.4694 244.379 27.1841V27.0561C244.379 23.7708 245.083 20.9334 246.491 18.5441C247.899 16.1121 249.755 14.2561 252.059 12.9761C254.406 11.6961 256.923 11.0561 259.611 11.0561C262.086 11.0561 264.177 11.5041 265.883 12.4001C267.59 13.2961 269.19 14.5548 270.683 16.1761V16.1121C270.683 14.7894 271.153 13.6588 272.091 12.7201C273.073 11.7814 274.225 11.3121 275.547 11.3121C276.913 11.3121 278.065 11.7814 279.003 12.7201C279.942 13.6588 280.411 14.8108 280.411 16.1761V38.2561C280.411 44.3574 278.961 48.8588 276.059 51.7601C272.987 54.8321 268.059 56.3681 261.275 56.3681ZM262.427 35.1201C264.817 35.1201 266.801 34.3734 268.379 32.8801C270.001 31.3868 270.811 29.4881 270.811 27.1841V27.0561C270.811 24.7521 270.001 22.8534 268.379 21.3601C266.801 19.8668 264.817 19.1201 262.427 19.1201C260.038 19.1201 258.054 19.8668 256.475 21.3601C254.897 22.8534 254.107 24.7521 254.107 27.0561V27.1841C254.107 29.5308 254.897 31.4508 256.475 32.9441C258.054 34.3948 260.038 35.1201 262.427 35.1201Z" fill="#0F172A"/>
<path d="M19.3127 121.64C16.326 121.64 13.382 121.192 10.4807 120.296C7.62202 119.357 4.95535 118.013 2.48069 116.264C1.92602 115.88 1.47802 115.368 1.13669 114.728C0.795354 114.045 0.624687 113.32 0.624687 112.552C0.624687 111.272 1.07269 110.205 1.96869 109.352C2.86469 108.456 3.95269 108.008 5.23269 108.008C6.25669 108.008 7.19535 108.307 8.04869 108.904C11.718 111.592 15.5367 112.936 19.5047 112.936C21.51 112.936 23.0887 112.573 24.2407 111.848C25.3927 111.08 25.9687 110.035 25.9687 108.712V108.584C25.9687 107.688 25.734 106.941 25.2647 106.344C24.7954 105.747 23.8994 105.192 22.5767 104.68C21.2967 104.125 19.4194 103.528 16.9447 102.888C13.5314 101.992 10.7794 101.075 8.68869 100.136C6.64069 99.1548 5.01935 97.8108 3.82469 96.1041C2.67269 94.3548 2.09669 92.0508 2.09669 89.1921V89.0641C2.09669 86.3761 2.75802 84.0294 4.08069 82.0241C5.44602 79.9761 7.30202 78.3974 9.64869 77.2881C12.038 76.1361 14.7474 75.5601 17.7767 75.5601C23.0674 75.5601 27.8034 76.8828 31.9847 79.5281C32.582 79.8694 33.094 80.3814 33.5207 81.0641C33.9474 81.7468 34.1607 82.5361 34.1607 83.4321C34.1607 84.7121 33.7127 85.8001 32.8167 86.6961C31.9207 87.5494 30.8327 87.9761 29.5527 87.9761C28.6994 87.9761 27.8674 87.7414 27.0567 87.2721C23.6434 85.2668 20.5074 84.2641 17.6487 84.2641C15.814 84.2641 14.3847 84.6268 13.3607 85.3521C12.3794 86.0774 11.8887 87.0161 11.8887 88.1681V88.2961C11.8887 89.2774 12.1447 90.0881 12.6567 90.7281C13.2114 91.3254 14.15 91.8801 15.4727 92.3921C16.7954 92.9041 18.822 93.5014 21.5527 94.1841C26.4167 95.4641 30.0007 97.1068 32.3047 99.1121C34.6087 101.075 35.7607 103.912 35.7607 107.624V107.752C35.7607 112.104 34.246 115.517 31.2167 117.992C28.23 120.424 24.262 121.64 19.3127 121.64Z" fill="#0F172A"/>
<path d="M54.5617 121.576C51.3617 121.576 48.887 120.808 47.1377 119.272C45.431 117.693 44.5777 115.027 44.5777 111.272V95.0161H44.2577C43.1057 95.0161 42.1244 94.6108 41.3137 93.8001C40.503 92.9894 40.0977 92.0081 40.0977 90.8561C40.0977 89.7041 40.503 88.7228 41.3137 87.9121C42.1244 87.1014 43.1057 86.6961 44.2577 86.6961H44.5777V82.4081C44.5777 81.0428 45.047 79.8908 45.9857 78.9521C46.967 78.0134 48.119 77.5441 49.4417 77.5441C50.807 77.5441 51.959 78.0134 52.8977 78.9521C53.8364 79.8908 54.3057 81.0428 54.3057 82.4081V86.6961H58.5937C59.7457 86.6961 60.727 87.1014 61.5377 87.9121C62.3484 88.7228 62.7537 89.7041 62.7537 90.8561C62.7537 92.0081 62.3484 92.9894 61.5377 93.8001C60.727 94.6108 59.7457 95.0161 58.5937 95.0161H54.3057V109.672C54.3057 110.781 54.5617 111.613 55.0737 112.168C55.5857 112.723 56.375 113 57.4417 113L58.5937 112.936C59.703 112.936 60.6417 113.341 61.4097 114.152C62.2204 114.92 62.6257 115.859 62.6257 116.968C62.6257 117.821 62.3697 118.589 61.8577 119.272C61.3884 119.912 60.8124 120.36 60.1297 120.616C58.5084 121.256 56.6524 121.576 54.5617 121.576Z" fill="#0F172A"/>
<path d="M79.2682 121.64C75.8975 121.64 73.0815 120.723 70.8202 118.888C68.6015 117.011 67.4922 114.429 67.4922 111.144V111.016C67.4922 107.389 68.7295 104.659 71.2042 102.824C73.7215 100.989 77.0922 100.072 81.3162 100.072C84.1749 100.072 86.9695 100.541 89.7002 101.48V100.904C89.7002 98.8561 89.0815 97.2988 87.8442 96.2321C86.6068 95.1654 84.7722 94.6321 82.3402 94.6321C79.9082 94.6321 77.6682 94.9521 75.6202 95.5921C75.1082 95.7628 74.6389 95.8481 74.2122 95.8481C73.1029 95.8481 72.1429 95.4641 71.3322 94.6961C70.5642 93.9281 70.1802 92.9894 70.1802 91.8801C70.1802 91.0268 70.4149 90.2588 70.8842 89.5761C71.3962 88.8934 72.0362 88.4028 72.8042 88.1041C76.0042 86.9094 79.6522 86.3121 83.7482 86.3121C88.9109 86.3121 92.7722 87.5921 95.3322 90.1521C97.8069 92.6268 99.0442 96.2748 99.0442 101.096V116.712C99.0442 118.035 98.5749 119.144 97.6362 120.04C96.7402 120.936 95.6309 121.384 94.3082 121.384C92.9429 121.384 91.8122 120.979 90.9162 120.168C90.0629 119.357 89.6362 118.419 89.6362 117.352V117.288C87.0335 120.189 83.5775 121.64 79.2682 121.64ZM82.2122 114.92C84.4735 114.92 86.3082 114.365 87.7162 113.256C89.1242 112.104 89.8282 110.653 89.8282 108.904V107.176C87.9935 106.323 85.9242 105.896 83.6202 105.896C81.5295 105.896 79.8868 106.301 78.6922 107.112C77.4975 107.923 76.9002 109.096 76.9002 110.632V110.76C76.9002 112.04 77.3909 113.064 78.3722 113.832C79.3535 114.557 80.6335 114.92 82.2122 114.92Z" fill="#0F172A"/>
<path d="M107.415 91.1761C107.415 89.8108 107.885 88.6588 108.823 87.7201C109.805 86.7814 110.957 86.3121 112.279 86.3121C113.645 86.3121 114.797 86.7814 115.735 87.7201C116.674 88.6588 117.143 89.8108 117.143 91.1761V92.7121C117.911 90.8774 118.871 89.3628 120.023 88.1681C121.175 86.9308 122.413 86.3121 123.735 86.3121C125.229 86.3121 126.381 86.7601 127.191 87.6561C128.045 88.5094 128.471 89.6401 128.471 91.0481C128.471 92.2854 128.13 93.2881 127.447 94.0561C126.765 94.8241 125.89 95.3361 124.823 95.5921C119.703 96.7868 117.143 100.733 117.143 107.432V116.52C117.143 117.843 116.674 118.995 115.735 119.976C114.797 120.915 113.645 121.384 112.279 121.384C110.957 121.384 109.805 120.915 108.823 119.976C107.885 118.995 107.415 117.843 107.415 116.52V91.1761Z" fill="#0F172A"/>
<path d="M145.749 121.576C142.549 121.576 140.075 120.808 138.325 119.272C136.619 117.693 135.765 115.027 135.765 111.272V95.0161H135.445C134.293 95.0161 133.312 94.6108 132.501 93.8001C131.691 92.9894 131.285 92.0081 131.285 90.8561C131.285 89.7041 131.691 88.7228 132.501 87.9121C133.312 87.1014 134.293 86.6961 135.445 86.6961H135.765V82.4081C135.765 81.0428 136.235 79.8908 137.173 78.9521C138.155 78.0134 139.307 77.5441 140.629 77.5441C141.995 77.5441 143.147 78.0134 144.085 78.9521C145.024 79.8908 145.493 81.0428 145.493 82.4081V86.6961H149.781C150.933 86.6961 151.915 87.1014 152.725 87.9121C153.536 88.7228 153.941 89.7041 153.941 90.8561C153.941 92.0081 153.536 92.9894 152.725 93.8001C151.915 94.6108 150.933 95.0161 149.781 95.0161H145.493V109.672C145.493 110.781 145.749 111.613 146.261 112.168C146.773 112.723 147.563 113 148.629 113L149.781 112.936C150.891 112.936 151.829 113.341 152.597 114.152C153.408 114.92 153.813 115.859 153.813 116.968C153.813 117.821 153.557 118.589 153.045 119.272C152.576 119.912 152 120.36 151.317 120.616C149.696 121.256 147.84 121.576 145.749 121.576Z" fill="#0F172A"/>
<path d="M180.363 91.1761C180.363 89.8108 180.833 88.6588 181.771 87.7201C182.753 86.7814 183.905 86.3121 185.227 86.3121C186.593 86.3121 187.745 86.7814 188.683 87.7201C189.622 88.6588 190.091 89.8108 190.091 91.1761V116.52C190.091 117.843 189.622 118.995 188.683 119.976C187.745 120.915 186.593 121.384 185.227 121.384C183.905 121.384 182.753 120.915 181.771 119.976C180.833 118.995 180.363 117.843 180.363 116.52V91.1761Z" fill="#0F172A"/>
<path d="M211.26 121.64C206.652 121.64 202.342 120.339 198.332 117.736C197.777 117.395 197.329 116.947 196.988 116.392C196.646 115.795 196.476 115.133 196.476 114.408C196.476 113.299 196.838 112.381 197.564 111.656C198.332 110.931 199.249 110.568 200.316 110.568C201.041 110.568 201.681 110.739 202.236 111.08C205.521 113.128 208.614 114.152 211.516 114.152C212.881 114.152 213.905 113.939 214.588 113.512C215.27 113.043 215.612 112.403 215.612 111.592V111.464C215.612 110.653 215.142 110.013 214.204 109.544C213.308 109.032 211.836 108.477 209.788 107.88L208.508 107.496C205.393 106.6 202.897 105.405 201.02 103.912C199.185 102.419 198.268 100.179 198.268 97.1921V97.0641C198.268 94.8028 198.822 92.8614 199.932 91.2401C201.041 89.5761 202.534 88.3174 204.412 87.4641C206.332 86.6108 208.465 86.1841 210.812 86.1841C214.396 86.1841 217.937 87.0588 221.436 88.8081C222.161 89.1494 222.716 89.6401 223.1 90.2801C223.526 90.9201 223.74 91.6454 223.74 92.4561C223.74 93.5228 223.356 94.4401 222.588 95.2081C221.862 95.9334 220.945 96.2961 219.836 96.2961C219.238 96.2961 218.641 96.1468 218.044 95.8481C215.057 94.3974 212.582 93.6721 210.62 93.6721C209.468 93.6721 208.572 93.9068 207.932 94.3761C207.334 94.8028 207.036 95.3574 207.036 96.0401V96.1681C207.036 96.7654 207.334 97.2988 207.932 97.7681C208.529 98.1948 209.382 98.6214 210.492 99.0481C211.644 99.4748 212.817 99.8801 214.012 100.264C217.169 101.331 219.686 102.611 221.564 104.104C223.441 105.555 224.38 107.667 224.38 110.44V110.568C224.38 114.237 223.164 117.011 220.732 118.888C218.342 120.723 215.185 121.64 211.26 121.64Z" fill="#0F172A"/>
<path d="M251.564 80.8721C251.564 79.5068 252.034 78.3548 252.972 77.4161C253.954 76.4348 255.127 75.9441 256.492 75.9441H257.516C258.626 75.9441 259.564 76.2001 260.332 76.7121C261.143 77.1814 261.911 77.8854 262.636 78.8241L281.644 103.784V80.6801C281.644 79.3148 282.114 78.1628 283.052 77.2241C284.034 76.2854 285.186 75.8161 286.508 75.8161C287.874 75.8161 289.026 76.2854 289.964 77.2241C290.903 78.1628 291.372 79.3148 291.372 80.6801V116.328C291.372 117.693 290.882 118.867 289.9 119.848C288.962 120.787 287.81 121.256 286.444 121.256H286.124C285.015 121.256 284.055 121.021 283.244 120.552C282.476 120.04 281.73 119.315 281.004 118.376L261.292 92.5201V116.52C261.292 117.843 260.823 118.995 259.884 119.976C258.946 120.915 257.794 121.384 256.428 121.384C255.106 121.384 253.954 120.915 252.972 119.976C252.034 118.995 251.564 117.843 251.564 116.52V80.8721Z" fill="#0F172A"/>
<path d="M329.263 117.608C326.02 120.381 322.052 121.768 317.359 121.768C313.945 121.768 310.873 121.021 308.143 119.528C305.455 118.035 303.321 115.944 301.743 113.256C300.207 110.568 299.439 107.496 299.439 104.04V103.912C299.439 100.669 300.164 97.6828 301.615 94.9521C303.065 92.2214 305.071 90.0668 307.631 88.4881C310.233 86.8668 313.156 86.0561 316.399 86.0561C319.983 86.0561 323.012 86.9094 325.487 88.6161C328.004 90.2801 329.86 92.3921 331.055 94.9521C332.292 97.4694 332.911 100.008 332.911 102.568C332.911 103.933 332.484 105.064 331.631 105.96C330.777 106.813 329.689 107.24 328.367 107.24H309.103C309.572 109.416 310.532 111.08 311.983 112.232C313.433 113.384 315.268 113.96 317.487 113.96C320.004 113.96 322.308 113.192 324.399 111.656C325.124 111.144 325.913 110.888 326.767 110.888C327.833 110.888 328.729 111.251 329.455 111.976C330.18 112.701 330.543 113.619 330.543 114.728C330.543 115.88 330.116 116.84 329.263 117.608ZM323.631 101.16C323.332 98.9414 322.543 97.1708 321.263 95.8481C320.025 94.5254 318.404 93.8641 316.399 93.8641C314.436 93.8641 312.793 94.5254 311.471 95.8481C310.191 97.1281 309.359 98.8988 308.975 101.16H323.631Z" fill="#0F172A"/>
<path d="M368.513 117.608C365.27 120.381 361.302 121.768 356.609 121.768C353.195 121.768 350.123 121.021 347.393 119.528C344.705 118.035 342.571 115.944 340.993 113.256C339.457 110.568 338.689 107.496 338.689 104.04V103.912C338.689 100.669 339.414 97.6828 340.865 94.9521C342.315 92.2214 344.321 90.0668 346.881 88.4881C349.483 86.8668 352.406 86.0561 355.649 86.0561C359.233 86.0561 362.262 86.9094 364.737 88.6161C367.254 90.2801 369.11 92.3921 370.305 94.9521C371.542 97.4694 372.161 100.008 372.161 102.568C372.161 103.933 371.734 105.064 370.881 105.96C370.027 106.813 368.939 107.24 367.617 107.24H348.353C348.822 109.416 349.782 111.08 351.233 112.232C352.683 113.384 354.518 113.96 356.737 113.96C359.254 113.96 361.558 113.192 363.649 111.656C364.374 111.144 365.163 110.888 366.017 110.888C367.083 110.888 367.979 111.251 368.705 111.976C369.43 112.701 369.793 113.619 369.793 114.728C369.793 115.88 369.366 116.84 368.513 117.608ZM362.881 101.16C362.582 98.9414 361.793 97.1708 360.513 95.8481C359.275 94.5254 357.654 93.8641 355.649 93.8641C353.686 93.8641 352.043 94.5254 350.721 95.8481C349.441 97.1281 348.609 98.8988 348.225 101.16H362.881Z" fill="#0F172A"/>
<path d="M414.099 116.52C414.099 117.843 413.629 118.995 412.691 119.976C411.752 120.915 410.6 121.384 409.235 121.384C407.912 121.384 406.76 120.915 405.779 119.976C404.84 118.995 404.371 117.843 404.371 116.52V116.072C401.64 119.784 398.077 121.64 393.683 121.64C390.952 121.64 388.392 120.957 386.003 119.592C383.613 118.184 381.693 116.136 380.243 113.448C378.792 110.76 378.067 107.581 378.067 103.912V103.784C378.067 100.115 378.771 96.9361 380.179 94.2481C381.629 91.5601 383.549 89.5334 385.939 88.1681C388.328 86.7601 390.909 86.0561 393.683 86.0561C396.072 86.0561 398.12 86.5254 399.827 87.4641C401.533 88.3601 403.048 89.5974 404.371 91.1761V78.7601C404.371 77.3948 404.84 76.2428 405.779 75.3041C406.76 74.3654 407.912 73.8961 409.235 73.8961C410.6 73.8961 411.752 74.3654 412.691 75.3041C413.629 76.2428 414.099 77.3948 414.099 78.7601V116.52ZM396.179 94.3121C394.643 94.3121 393.235 94.7174 391.955 95.5281C390.675 96.2961 389.651 97.4054 388.883 98.8561C388.157 100.264 387.795 101.907 387.795 103.784V103.912C387.795 105.747 388.157 107.389 388.883 108.84C389.651 110.291 390.675 111.421 391.955 112.232C393.235 113 394.643 113.384 396.179 113.384C397.715 113.384 399.101 113 400.339 112.232C401.619 111.421 402.621 110.291 403.347 108.84C404.115 107.389 404.499 105.747 404.499 103.912V103.784C404.499 101.949 404.115 100.307 403.347 98.8561C402.621 97.4054 401.619 96.2961 400.339 95.5281C399.101 94.7174 397.715 94.3121 396.179 94.3121Z" fill="#0F172A"/>
<path d="M450.95 117.608C447.708 120.381 443.74 121.768 439.046 121.768C435.633 121.768 432.561 121.021 429.83 119.528C427.142 118.035 425.009 115.944 423.43 113.256C421.894 110.568 421.126 107.496 421.126 104.04V103.912C421.126 100.669 421.852 97.6828 423.302 94.9521C424.753 92.2214 426.758 90.0668 429.318 88.4881C431.921 86.8668 434.844 86.0561 438.086 86.0561C441.67 86.0561 444.7 86.9094 447.174 88.6161C449.692 90.2801 451.548 92.3921 452.742 94.9521C453.98 97.4694 454.598 100.008 454.598 102.568C454.598 103.933 454.172 105.064 453.318 105.96C452.465 106.813 451.377 107.24 450.054 107.24H430.79C431.26 109.416 432.22 111.08 433.67 112.232C435.121 113.384 436.956 113.96 439.174 113.96C441.692 113.96 443.996 113.192 446.086 111.656C446.812 111.144 447.601 110.888 448.454 110.888C449.521 110.888 450.417 111.251 451.142 111.976C451.868 112.701 452.23 113.619 452.23 114.728C452.23 115.88 451.804 116.84 450.95 117.608ZM445.318 101.16C445.02 98.9414 444.23 97.1708 442.95 95.8481C441.713 94.5254 440.092 93.8641 438.086 93.8641C436.124 93.8641 434.481 94.5254 433.158 95.8481C431.878 97.1281 431.046 98.8988 430.662 101.16H445.318Z" fill="#0F172A"/>
<path d="M496.536 116.52C496.536 117.843 496.067 118.995 495.128 119.976C494.19 120.915 493.038 121.384 491.672 121.384C490.35 121.384 489.198 120.915 488.216 119.976C487.278 118.995 486.808 117.843 486.808 116.52V116.072C484.078 119.784 480.515 121.64 476.12 121.64C473.39 121.64 470.83 120.957 468.44 119.592C466.051 118.184 464.131 116.136 462.68 113.448C461.23 110.76 460.504 107.581 460.504 103.912V103.784C460.504 100.115 461.208 96.9361 462.616 94.2481C464.067 91.5601 465.987 89.5334 468.376 88.1681C470.766 86.7601 473.347 86.0561 476.12 86.0561C478.51 86.0561 480.558 86.5254 482.264 87.4641C483.971 88.3601 485.486 89.5974 486.808 91.1761V78.7601C486.808 77.3948 487.278 76.2428 488.216 75.3041C489.198 74.3654 490.35 73.8961 491.672 73.8961C493.038 73.8961 494.19 74.3654 495.128 75.3041C496.067 76.2428 496.536 77.3948 496.536 78.7601V116.52ZM478.616 94.3121C477.08 94.3121 475.672 94.7174 474.392 95.5281C473.112 96.2961 472.088 97.4054 471.32 98.8561C470.595 100.264 470.232 101.907 470.232 103.784V103.912C470.232 105.747 470.595 107.389 471.32 108.84C472.088 110.291 473.112 111.421 474.392 112.232C475.672 113 477.08 113.384 478.616 113.384C480.152 113.384 481.539 113 482.776 112.232C484.056 111.421 485.059 110.291 485.784 108.84C486.552 107.389 486.936 105.747 486.936 103.912V103.784C486.936 101.949 486.552 100.307 485.784 98.8561C485.059 97.4054 484.056 96.2961 482.776 95.5281C481.539 94.7174 480.152 94.3121 478.616 94.3121Z" fill="#0F172A"/>
</svg>
