<svg width="122" height="58" viewBox="0 0 122 58" fill="none" xmlns="http://www.w3.org/2000/svg">
<mask id="mask0_2357_6147" style="mask-type:luminance" maskUnits="userSpaceOnUse" x="3" y="1" width="118" height="57">
<path d="M79.5498 39.3382H79.492H79.3925C79.2589 39.3286 79.126 39.3113 78.9944 39.2864C78.8597 39.2624 78.7267 39.2299 78.5962 39.1889C78.5286 39.1695 78.4621 39.1463 78.3972 39.1192C78.3768 39.1143 78.3573 39.1063 78.3394 39.0953L78.2598 39.0515C78.2242 39.033 78.1877 39.0164 78.1503 39.0017C78.0498 38.9597 77.9514 38.9126 77.8557 38.8604C77.7475 38.799 77.6499 38.7204 77.5671 38.6275C77.4582 38.4956 77.3739 38.3453 77.3183 38.1836C77.2847 38.0912 77.2567 37.9968 77.2346 37.9009C77.2092 37.8001 77.1965 37.6964 77.1968 37.5924C77.187 37.0471 77.3751 36.5167 77.7263 36.0994C78.2808 35.4721 79.0254 35.0435 79.8464 34.8791C81.4528 34.5587 82.7606 35.4126 83.0314 35.5958C84.803 36.7503 85.2609 38.8146 85.3743 39.3043C85.5029 39.8716 85.561 40.4526 85.5475 41.0342C85.4014 40.4992 85.1075 40.0163 84.6995 39.6407C84.4491 39.4137 84.1607 39.2325 83.8475 39.1053C83.2725 38.9042 82.6551 38.8562 82.056 38.9659C82.0221 38.9659 81.6578 39.0416 81.19 39.165L81.0845 39.1909L80.989 39.2068C80.9253 39.2167 80.8596 39.2307 80.7899 39.2446C80.7296 39.2586 80.6684 39.2686 80.6068 39.2745L80.4296 39.3043C80.3699 39.3163 80.3221 39.3043 80.2644 39.3202C80.2067 39.3362 80.1549 39.3421 80.1012 39.3421C80.0481 39.3392 79.995 39.3392 79.9419 39.3421H79.8603H79.7767C79.7184 39.3382 79.6598 39.3382 79.6015 39.3421H79.5856H79.5438M68.3843 1.43652C65.7129 1.51217 61.5982 1.62165 58.7457 4.6932C56.556 7.04613 55.5606 10.6432 56.329 13.5794C56.7968 15.3709 57.9554 17.0451 58.7536 18.2056C59.0363 18.6157 59.7012 19.4498 61.0289 21.1219C61.9008 22.2207 62.8902 23.4589 63.9233 24.928L64.3115 25.4913C64.4309 25.6745 64.5623 25.8576 64.6797 26.0487C64.9266 26.4289 65.1615 26.829 65.3924 27.2431C65.8639 28.1305 66.2563 29.0577 66.5649 30.014C66.963 31.2383 67.1939 31.9629 67.2258 32.8985C67.2457 33.4957 67.3094 35.3509 66.2125 36.6926C64.2776 39.0635 59.9102 38.3747 58.029 37.7636C57.4318 37.5645 56.5301 37.2062 56.1897 37.0629C54.9834 36.5553 53.8149 35.9999 52.6742 35.4425C50.395 34.3218 48.2311 33.201 46.135 32.1798C41.9885 30.1574 37.1075 28.1986 34.3266 27.3605C30.4866 26.2099 19.0345 22.7821 10.6261 28.6823C9.45163 29.5064 4.87716 32.7014 3.85796 38.5339C3.39895 41.3076 3.75079 44.1549 4.87119 46.7334C6.42551 43.7864 8.59359 41.207 11.2293 39.169C11.49 38.9699 14.8841 36.408 19.3232 35.1976C33.4407 31.3498 56.2594 41.6991 61.9625 42.0335C63.0935 42.0895 64.2261 41.959 65.3147 41.6473C66.4072 41.3046 67.4217 40.7507 68.3007 40.017C71.6848 37.1465 71.7027 32.4128 71.7067 31.1328C71.7067 30.5993 71.6728 30.1016 71.6629 29.9603C71.5308 28.3252 71.1689 26.7169 70.5879 25.1828C70.2882 24.3655 69.9379 23.5677 69.5389 22.794C69.4135 22.5472 68.9417 21.5996 68.2669 20.5227C67.6298 19.5035 66.8913 18.4823 66.1847 17.5666C66.6943 18.1976 67.811 19.2328 69.7081 20.1544C72.8234 21.6793 77.2366 22.5213 82.4481 23.9108C83.9257 24.3003 85.3754 24.7885 86.7877 25.3719C87.5282 25.6784 88.2847 26.0109 89.0232 26.403C89.7859 26.793 90.5214 27.2339 91.2248 27.7228C91.9572 28.2294 92.6445 28.7981 93.2792 29.4228L93.7509 29.9205L94.1948 30.452C94.4888 30.8149 94.755 31.1996 94.9911 31.6026C95.4873 32.4242 95.8198 33.334 95.9705 34.282C96.0054 34.5221 96.0273 34.764 96.0362 35.0065C96.0386 35.2566 96.026 35.5065 95.9984 35.755C95.9434 36.2824 95.8292 36.8019 95.658 37.3037C95.5158 37.7279 95.3148 38.1299 95.0608 38.4981C94.9366 38.6684 94.8002 38.8294 94.6527 38.9799C94.5028 39.1204 94.341 39.2476 94.169 39.3601C94.0826 39.4214 93.9929 39.4779 93.9002 39.5293C93.8067 39.579 93.7131 39.6268 93.6195 39.6686C93.4402 39.7517 93.2536 39.8183 93.0622 39.8677C92.6811 39.9695 92.2827 39.9885 91.8937 39.9234C91.513 39.8539 91.1535 39.6979 90.8426 39.4676C89.8314 38.7334 88.9523 37.8328 88.2428 36.8041C87.9502 36.3542 86.5309 34.1804 84.6597 32.8786C81.8131 30.9039 78.5505 31.3776 78.1085 31.4473C77.2061 31.5657 76.3338 31.852 75.5366 32.2913C75.5366 32.2913 73.5858 33.3862 72.6502 35.3489C72.4826 35.6965 72.3441 36.0574 72.2362 36.4279C72.1804 36.6269 72.1287 36.826 72.0889 37.025C72.0491 37.2241 72.0192 37.4232 71.9993 37.6362C71.9097 38.4899 71.9771 39.3528 72.1983 40.1822C72.4469 41.1034 72.8886 41.9611 73.4943 42.6983C73.7936 43.061 74.1269 43.3943 74.4896 43.6937L74.5991 43.7832L74.7165 43.8768C74.8061 43.9445 74.8957 44.0161 74.9872 44.0759C75.1724 44.2092 75.3635 44.3346 75.5585 44.4541C76.3509 44.9276 77.2137 45.2717 78.1145 45.4733C78.226 45.4992 78.3395 45.5211 78.4469 45.543C78.5544 45.5649 78.6679 45.5768 78.7854 45.5927C79.0222 45.6246 79.2631 45.6524 79.506 45.6783C79.9944 45.7046 80.4842 45.6939 80.9711 45.6465C81.8782 45.5479 82.7704 45.3414 83.6286 45.0314C84.2815 44.8005 84.8488 44.5676 85.3186 44.4003L85.2887 44.4979C85.0979 45.1096 84.8458 45.7005 84.5363 46.2616C84.1969 46.8618 83.7967 47.4254 83.3419 47.9437C82.8739 48.4838 82.3425 48.9657 81.7594 49.3789C81.1425 49.8145 80.4738 50.1716 79.7687 50.4419C78.2223 51.0406 76.5439 51.2145 74.9076 50.9455C74.0994 50.8022 71.7644 50.426 69.9728 48.4572C67.4706 45.7082 68.024 42.0673 68.1096 41.5557C67.3731 41.9041 65.8263 42.7501 64.9047 44.4063C64.6524 44.8657 64.4521 45.3517 64.3075 45.8555C64.0928 46.6801 64.0049 47.5325 64.0467 48.3836C64.196 50.9117 65.8005 53.0815 66.0035 53.3502C68.5475 56.7124 72.5726 57.4051 73.6714 57.5942C79.2551 58.5577 83.4832 55.6594 84.1481 55.1856C87.2316 52.9959 88.5912 50.0856 89.0072 49.1918C89.398 48.3612 89.7067 47.4945 89.9289 46.604C90.2803 45.1426 90.3853 43.6329 90.2394 42.137C90.5002 42.2817 90.7734 42.403 91.0556 42.4993C91.9896 42.8022 92.9861 42.8578 93.948 42.6605C93.7424 43.5656 93.7554 44.5066 93.9858 45.4056C94.7104 48.1646 97.3221 49.363 97.7103 49.5342C101.065 51.0072 105.064 49.2555 107.108 46.9145C108.104 45.7265 108.798 44.3146 109.129 42.7999C109.397 41.5833 109.455 40.3295 109.3 39.0933C109.578 39.3019 109.873 39.4889 110.18 39.6527C111.052 40.1312 112.012 40.4284 113.002 40.5266C113.603 40.59 114.21 40.5699 114.806 40.4669C115.49 40.3489 116.15 40.1203 116.761 39.79C117.412 39.4338 118 38.9709 118.498 38.4205C118.997 37.8651 119.409 37.2376 119.721 36.5592C120.038 35.8686 120.256 35.1369 120.37 34.3855C120.413 34.1008 120.433 33.838 120.437 33.8002C120.467 33.3947 120.467 32.9875 120.437 32.582C120.437 32.5521 120.419 32.2834 120.378 31.9848C120.265 31.2003 120.06 30.4319 119.767 29.6955C119.475 28.9715 119.115 28.2769 118.692 27.6213C118.273 26.9749 117.807 26.3602 117.298 25.782C116.802 25.2126 116.281 24.6851 115.763 24.1895C114.73 23.1941 113.699 22.2824 112.893 21.3787C112.504 20.9536 112.153 20.4953 111.844 20.0091C111.583 19.5998 111.382 19.1554 111.247 18.6893C110.331 19.0652 109.523 19.6615 108.894 20.4252C108.48 20.9483 108.183 21.5536 108.022 22.2008C107.836 22.9281 107.862 23.6936 108.097 24.4064C108.274 24.952 108.522 25.4715 108.836 25.9512C109.244 26.5767 109.71 27.162 110.229 27.6989C110.797 28.2961 111.464 28.9132 112.148 29.5502L112.664 30.0339C112.829 30.1952 113 30.3604 113.166 30.5316C113.506 30.8773 113.825 31.2443 114.119 31.6304C114.417 32.0164 114.668 32.4368 114.866 32.8825C114.887 32.9403 114.911 32.998 114.935 33.0537C114.959 33.1095 114.973 33.1572 114.993 33.211C115.031 33.3247 115.063 33.4403 115.089 33.5574C115.141 33.8194 115.162 34.0866 115.152 34.3536C115.144 34.9344 114.953 35.4978 114.607 35.964C114.393 36.2288 114.12 36.4401 113.811 36.5811C113.406 36.7541 112.972 36.8474 112.533 36.8558C111.511 36.8608 110.513 36.5477 109.678 35.9601C109.011 35.4981 108.404 34.9544 107.872 34.3417C107.659 34.1008 107.474 33.8838 107.313 33.6947C107.247 33.5832 107.184 33.4718 107.114 33.3643C106.805 32.8493 106.524 32.3177 106.274 31.7718C106.116 31.443 106.019 31.0882 105.987 30.7247C105.459 30.7971 104.941 30.9376 104.449 31.1427C104.045 31.3154 103.668 31.5468 103.332 31.8295C102.831 32.2547 102.436 32.7894 102.175 33.3921C101.89 34.0398 101.778 34.7503 101.849 35.4544C101.895 35.9378 101.987 36.4156 102.124 36.8817C102.261 37.3853 102.452 37.9208 102.597 38.4046C102.77 38.9473 102.912 39.4997 103.021 40.0588C103.161 40.7574 103.186 41.474 103.097 42.1808C102.982 43.1461 102.545 44.0445 101.857 44.7308C100.78 45.7599 99.1635 46.0944 97.9571 45.6903C97.5137 45.5505 97.1131 45.3005 96.7926 44.9637C96.4881 44.6362 96.2866 44.2264 96.2133 43.7852C96.146 43.3879 96.1637 42.9809 96.2651 42.5909C96.3555 42.2399 96.4892 41.9015 96.6632 41.5836C96.6991 41.5119 96.7369 41.4442 96.7767 41.3845L96.9757 41.2153L97.1469 41.072L97.3042 40.9207L97.6128 40.6062C97.7143 40.4987 97.7999 40.3872 97.8934 40.2757C98.0751 40.054 98.2439 39.8221 98.3991 39.581C98.701 39.1115 98.9589 38.615 99.1694 38.098C99.3789 37.5874 99.5492 37.0617 99.679 36.5254C99.7427 36.2507 99.8025 35.98 99.8482 35.6754C99.8937 35.3646 99.9236 35.0516 99.9378 34.7378C99.9893 33.4928 99.8222 32.2484 99.4441 31.0611C99.0666 29.8584 98.5197 28.7156 97.8198 27.6671C96.4423 25.5232 94.4894 23.654 92.2321 22.1391C89.8594 20.5808 87.3041 19.3199 84.6239 18.3848C82.3725 17.5726 81.1044 17.1904 75.9288 15.7611C75.9288 15.7611 63.4873 12.3133 61.3633 9.06463C61.1742 8.77598 60.6865 8.0295 60.8199 7.1357C60.91 6.63556 61.151 6.17499 61.5107 5.81591C62.285 5.00175 63.352 4.86041 63.7222 4.8206C67.8707 4.27517 77.5054 7.80655 77.5054 7.80655C79.6592 8.6028 82.6213 9.71556 86.1467 10.7746C88.4897 11.4995 90.8857 12.0399 93.313 12.391C93.8485 12.4706 94.376 12.5184 94.8816 12.5701C95.1344 12.592 95.3872 12.606 95.6321 12.6239C95.8769 12.6418 96.1118 12.6557 96.3666 12.6637C96.8683 12.6816 97.3619 12.6796 97.8158 12.6637L98.4667 12.6298C98.6658 12.6179 98.8828 12.598 99.0958 12.5761C100.543 12.4486 101.968 12.1362 103.336 11.6465C104.293 11.3117 105.204 10.8575 106.047 10.2948C107.044 9.65976 107.866 8.78427 108.436 7.74882C108.629 7.3854 108.787 7.00488 108.91 6.61217C108.979 6.39718 109.041 6.17224 109.093 5.94331C109.139 5.70048 109.173 5.45526 109.192 5.20877C109.24 4.67996 109.212 4.14708 109.109 3.62622C108.983 3.05032 108.776 2.49531 108.494 1.97798C107.743 2.83378 106.86 3.56483 105.88 4.14378C104.892 4.72383 103.837 5.18235 102.739 5.50936C101.647 5.82972 100.528 6.04699 99.3964 6.1583C99.1177 6.19413 98.839 6.20011 98.5623 6.22399C98.4309 6.23395 98.2617 6.23992 98.1204 6.24589L97.6904 6.26182C97.4117 6.26182 97.1469 6.26182 96.8802 6.26182L96.4821 6.25186L96.0561 6.22798C93.8551 6.09469 91.666 5.808 89.5049 5.37001C87.4108 4.96591 85.4201 4.49214 83.5091 4.02435C81.5981 3.55655 79.7906 3.10666 78.0548 2.71252C76.319 2.31837 74.6468 1.98992 73.0384 1.761C71.6578 1.55949 70.2652 1.45109 68.87 1.43652C68.7088 1.43652 68.5455 1.43652 68.3843 1.43652Z" fill="white"/>
</mask>
<g mask="url(#mask0_2357_6147)">
<path d="M105.236 -37.9908L-15.998 8.8623L18.4522 98.0032L139.686 51.15L105.236 -37.9908Z" fill="#343434"/>
</g>
<mask id="mask1_2357_6147" style="mask-type:luminance" maskUnits="userSpaceOnUse" x="93" y="40" width="6" height="9">
<path d="M96.7668 41.371C95.9845 41.9681 95.1902 42.2349 93.9381 42.6609C93.7325 43.5659 93.7455 44.5069 93.976 45.406C94.315 46.6232 95.0306 47.7019 96.0203 48.4875L98.1722 45.7543C98.0986 45.7364 98.0269 45.7145 97.9552 45.6906C97.5118 45.5509 97.1111 45.3009 96.7907 44.9641C96.4862 44.6366 96.2847 44.2267 96.2114 43.7856C96.1441 43.3883 96.1618 42.9812 96.2632 42.5912C96.3536 42.2402 96.4873 41.9019 96.6613 41.584C96.6972 41.5123 96.735 41.4446 96.7748 41.3849M96.9918 41.2077L97.153 41.0724L97.3103 40.9211L97.6188 40.6066C97.6378 40.5883 97.6557 40.569 97.6726 40.5488C97.5312 40.6364 97.3859 40.8733 96.9918 41.2077Z" fill="white"/>
</mask>
<g mask="url(#mask1_2357_6147)">
<path d="M97.6099 39.0391L91.0391 41.5352L94.2462 49.978L100.817 47.482L97.6099 39.0391Z" fill="#343434"/>
</g>
<mask id="mask2_2357_6147" style="mask-type:luminance" maskUnits="userSpaceOnUse" x="113" y="43" width="7" height="7">
<path d="M113.646 46.6515C113.646 47.2276 113.817 47.7909 114.136 48.27C114.456 48.7492 114.911 49.1228 115.443 49.3435C115.975 49.5643 116.561 49.6222 117.126 49.5101C117.691 49.3979 118.21 49.1207 118.617 48.7135C119.025 48.3063 119.302 47.7874 119.415 47.2224C119.528 46.6574 119.47 46.0717 119.25 45.5395C119.029 45.0072 118.656 44.5523 118.177 44.2322C117.698 43.9121 117.135 43.7412 116.559 43.7412C115.787 43.7412 115.046 44.0478 114.5 44.5935C113.954 45.1392 113.647 45.8795 113.646 46.6515Z" fill="white"/>
</mask>
<g mask="url(#mask2_2357_6147)">
<path d="M118.716 41.7915L111.689 44.5068L114.405 51.5329L121.431 48.8176L118.716 41.7915Z" fill="#343434"/>
</g>
<mask id="mask3_2357_6147" style="mask-type:luminance" maskUnits="userSpaceOnUse" x="101" y="48" width="12" height="10">
<path d="M106.39 51.6003C106.392 51.956 106.46 52.3082 106.589 52.6394C106.149 52.1153 105.538 51.7631 104.863 51.6447C104.189 51.5263 103.495 51.6492 102.902 51.9919C102.309 52.3346 101.856 52.8751 101.622 53.5186C101.389 54.162 101.389 54.8673 101.623 55.5105C101.858 56.1537 102.311 56.6938 102.904 57.0358C103.497 57.3779 104.192 57.5001 104.866 57.381C105.54 57.2619 106.151 56.9091 106.591 56.3846C107.031 55.86 107.272 55.1972 107.272 54.5126C107.271 54.1569 107.203 53.8045 107.073 53.4735C107.513 53.9976 108.124 54.3498 108.799 54.4682C109.473 54.5866 110.167 54.4637 110.76 54.121C111.353 53.7783 111.806 53.2378 112.04 52.5944C112.273 51.9509 112.273 51.2457 112.038 50.6024C111.804 49.9592 111.35 49.4192 110.757 49.0771C110.164 48.735 109.47 48.6128 108.796 48.7319C108.121 48.851 107.511 49.2038 107.071 49.7284C106.631 50.2529 106.39 50.9157 106.39 51.6003Z" fill="white"/>
</mask>
<g mask="url(#mask3_2357_6147)">
<path d="M110.815 45.0741L98.5059 49.8311L102.843 61.0535L115.152 56.2966L110.815 45.0741Z" fill="#343434"/>
</g>
<mask id="mask4_2357_6147" style="mask-type:luminance" maskUnits="userSpaceOnUse" x="4" y="49" width="8" height="9">
<path d="M8.00375 52.9941H7.04824V51.1607H8.00375C8.60094 51.1607 9.03888 51.5588 9.03888 52.0684C9.03888 52.578 8.61686 52.9941 8.01569 52.9941H8.00375ZM4.79883 49.0685V57.5725H7.04824V55.0643H8.00375C9.79532 55.0643 11.2186 53.6868 11.2186 52.0445C11.2186 50.4023 9.7555 49.0586 8.00375 49.0586L4.79883 49.0685Z" fill="white"/>
</mask>
<g mask="url(#mask4_2357_6147)">
<path d="M10.3232 46.7846L1.89062 50.0488L5.58341 59.5885L14.016 56.3243L10.3232 46.7846Z" fill="#343434"/>
</g>
<mask id="mask5_2357_6147" style="mask-type:luminance" maskUnits="userSpaceOnUse" x="12" y="49" width="6" height="9">
<path d="M12.1797 49.0684V57.5803H17.6977V55.4623H14.4132V54.244H17.1165V52.3589H14.4132V51.1705H17.6977V49.0684H12.1797Z" fill="white"/>
</mask>
<g mask="url(#mask5_2357_6147)">
<path d="M16.9774 47.2152L9.31445 50.1768L12.8938 59.4384L20.5568 56.4769L16.9774 47.2152Z" fill="#343434"/>
</g>
<mask id="mask6_2357_6147" style="mask-type:luminance" maskUnits="userSpaceOnUse" x="18" y="48" width="10" height="10">
<path d="M22.8188 52.9183L23.6907 54.9348H21.943L22.8188 52.9183ZM22.2814 48.9629L18.3359 57.5724H20.8063L21.2403 56.5771H24.4253L24.8513 57.5724H27.3276L23.3523 48.9629H22.2814Z" fill="white"/>
</mask>
<g mask="url(#mask6_2357_6147)">
<path d="M26.1432 45.943L15.4258 50.085L19.4909 60.6037L30.2084 56.4617L26.1432 45.943Z" fill="#343434"/>
</g>
<mask id="mask7_2357_6147" style="mask-type:luminance" maskUnits="userSpaceOnUse" x="26" y="48" width="9" height="10">
<path d="M27.0001 53.3242C27.0001 55.9956 29.2435 57.7712 31.6462 57.7712C32.8277 57.77 33.9652 57.3228 34.8312 56.5191L33.5433 54.8032C32.9939 55.2949 32.3489 55.6313 31.6422 55.6313C30.4279 55.6313 29.2873 54.6599 29.2873 53.3401C29.2927 53.0309 29.3593 52.7258 29.4832 52.4424C29.6072 52.159 29.786 51.903 30.0093 51.689C30.2327 51.4751 30.4962 51.3075 30.7847 51.1959C31.0731 51.0844 31.3808 51.031 31.69 51.0389C32.3781 51.0721 33.0315 51.3511 33.5313 51.8252L34.8312 50.1571C33.9681 49.3682 32.8526 48.9117 31.684 48.8691C29.0325 48.8691 26.9961 50.806 26.9961 53.3242" fill="white"/>
</mask>
<g mask="url(#mask7_2357_6147)">
<path d="M33.8152 46.2366L24.0039 50.0283L28.016 60.4096L37.8273 56.6179L33.8152 46.2366Z" fill="#343434"/>
</g>
<mask id="mask8_2357_6147" style="mask-type:luminance" maskUnits="userSpaceOnUse" x="35" y="48" width="10" height="10">
<path d="M37.3479 53.3207C37.3336 52.8455 37.4615 52.3768 37.7151 51.9746C37.9688 51.5725 38.3367 51.2552 38.7717 51.0634C39.2068 50.8715 39.6892 50.8139 40.1572 50.8978C40.6251 50.9817 41.0575 51.2034 41.3987 51.5344C41.74 51.8655 41.9747 52.2908 42.0729 52.756C42.171 53.2213 42.1281 53.7052 41.9496 54.1459C41.7711 54.5865 41.4651 54.9639 41.0709 55.2297C40.6767 55.4955 40.2121 55.6376 39.7366 55.6378C39.4264 55.6471 39.1175 55.5941 38.8282 55.4819C38.5389 55.3696 38.275 55.2005 38.0523 54.9844C37.8295 54.7683 37.6524 54.5097 37.5314 54.224C37.4104 53.9382 37.348 53.6311 37.3479 53.3207ZM35.0626 53.3366C35.0626 55.8707 37.0851 57.7977 39.7287 57.7977C42.3722 57.7977 44.4126 55.8707 44.4126 53.3366C44.4126 50.8026 42.3842 48.8418 39.7386 48.8418C37.0931 48.8418 35.0566 50.7807 35.0566 53.3366" fill="white"/>
</mask>
<g mask="url(#mask8_2357_6147)">
<path d="M43.1914 45.7035L32.0488 50.0098L36.2747 60.9444L47.4173 56.6381L43.1914 45.7035Z" fill="#343434"/>
</g>
<mask id="mask9_2357_6147" style="mask-type:luminance" maskUnits="userSpaceOnUse" x="45" y="48" width="8" height="10">
<path d="M45.1447 53.3242C45.1447 55.9956 47.3981 57.7712 49.7869 57.7712C50.9683 57.7696 52.1056 57.3225 52.9719 56.5191L51.6839 54.8032C51.1345 55.2949 50.4896 55.6313 49.7829 55.6313C48.5686 55.6313 47.428 54.6599 47.428 53.3401C47.4334 53.0309 47.5 52.7258 47.6239 52.4424C47.7478 52.159 47.9266 51.903 48.15 51.689C48.3734 51.4751 48.6369 51.3075 48.9253 51.1959C49.2138 51.0844 49.5215 51.031 49.8307 51.0389C50.5188 51.0721 51.1722 51.3511 51.672 51.8252L52.9719 50.1571C52.1087 49.3682 50.9933 48.9117 49.8247 48.8691C47.1732 48.8691 45.1348 50.806 45.1348 53.3242" fill="white"/>
</mask>
<g mask="url(#mask9_2357_6147)">
<path d="M51.9617 46.2356L42.1504 50.0273L46.1625 60.4087L55.9737 56.6169L51.9617 46.2356Z" fill="#343434"/>
</g>
<mask id="mask10_2357_6147" style="mask-type:luminance" maskUnits="userSpaceOnUse" x="53" y="49" width="9" height="9">
<path d="M58.1715 49.0684L56.1968 52.2414V49.0684H53.9414V57.5803H56.1968V54.3435L58.3507 57.5803H61.0918L58.1596 53.2188L60.7693 49.0684H58.1715Z" fill="white"/>
</mask>
<g mask="url(#mask10_2357_6147)">
<path d="M60.1596 46.6712L51.0762 50.1816L54.8672 59.9911L63.9506 56.4806L60.1596 46.6712Z" fill="#343434"/>
</g>
<mask id="mask11_2357_6147" style="mask-type:luminance" maskUnits="userSpaceOnUse" x="0" y="10" width="57" height="20">
<path d="M3.98109 15.1894C0.342218 18.9059 -0.561528 25.4511 2.35475 29.8405C1.98449 29.2851 4.13039 26.2573 4.50861 25.7298C5.49221 24.3629 6.66823 23.1453 8.00018 22.1148C10.6457 20.0585 13.9263 18.7108 17.2845 18.5078C24.6498 18.0639 31.3563 22.507 37.6447 25.694C40.2325 27.0058 42.892 28.2519 45.7047 29.0084C48.9495 29.936 53.1318 29.715 55.6081 27.2924C55.9525 26.954 57.1429 25.899 56.8025 24.5772L56.4343 25.5725C56.3148 25.5268 56.1337 25.7238 55.7773 25.8811C55.2618 26.112 54.7482 26.3867 54.2107 26.5898C50.0025 28.1823 45.8361 25.4949 42.4162 23.2435C34.7682 17.9882 27.2416 11.1544 17.5333 10.5711C17.0894 10.5413 16.6395 10.5273 16.1896 10.5273C11.7306 10.5273 7.12629 11.9706 3.97114 15.1894" fill="white"/>
</mask>
<g mask="url(#mask11_2357_6147)">
<path d="M40.1719 -15.7655L-9.40625 16.2344L16.4081 56.229L65.9862 24.2291L40.1719 -15.7655Z" fill="#343434"/>
</g>
<mask id="mask12_2357_6147" style="mask-type:luminance" maskUnits="userSpaceOnUse" x="60" y="7" width="20" height="16">
<path d="M75.1513 22.0595C75.1513 22.0595 84.7959 17.9449 73.6145 15.0664C62.4332 12.188 60.8168 7.13574 60.8168 7.13574C60.0862 18.5202 75.1493 22.0655 75.1493 22.0655" fill="white"/>
</mask>
<g mask="url(#mask12_2357_6147)">
<path d="M61.9246 0.654468L56.1738 20.9502L82.9622 28.5406L88.713 8.24491L61.9246 0.654468Z" fill="#343434"/>
</g>
<mask id="mask13_2357_6147" style="mask-type:luminance" maskUnits="userSpaceOnUse" x="45" y="9" width="6" height="7">
<path d="M47.157 9.70605C46.9942 9.7121 46.8329 9.73954 46.6772 9.78767C46.5717 9.81952 45.881 10.0524 45.6401 10.6655C45.5597 10.9004 45.5384 11.1515 45.5779 11.3966C45.6175 11.6417 45.7168 11.8733 45.867 12.0709C46.5638 13.0006 47.8577 12.27 48.9963 13.1379C50.0513 13.9342 49.916 15.3276 50.1907 15.2918C50.5629 15.2539 51.2835 12.7696 50.0095 11.1114C49.6665 10.6948 49.2393 10.3552 48.756 10.1151C48.2726 9.87496 47.744 9.73964 47.2047 9.718H47.151" fill="white"/>
</mask>
<g mask="url(#mask13_2357_6147)">
<path d="M48.7271 6.81198L42.6719 12.1768L48.0235 18.2171L54.0787 12.8523L48.7271 6.81198Z" fill="#343434"/>
</g>
<mask id="mask14_2357_6147" style="mask-type:luminance" maskUnits="userSpaceOnUse" x="46" y="13" width="4" height="3">
<path d="M46.4612 13.8419C46.3885 13.8825 46.3215 13.9328 46.2621 13.9912C46.1797 14.0766 46.1175 14.1794 46.0799 14.2921C46.0424 14.4047 46.0305 14.5243 46.0451 14.6421C46.0785 14.7735 46.1413 14.8956 46.229 14.9991C46.3166 15.1026 46.4266 15.1847 46.5508 15.2393C46.8653 15.3806 47.1221 15.2592 47.4107 15.1358C47.6777 14.9997 47.9796 14.9476 48.2766 14.9865C48.9853 15.1059 49.3197 15.7708 49.4392 15.6912C49.5964 15.5857 49.2103 14.2738 48.1552 13.814C47.9003 13.7031 47.625 13.6468 47.347 13.6488C47.0388 13.6431 46.7336 13.7113 46.4572 13.8478" fill="white"/>
</mask>
<g mask="url(#mask14_2357_6147)">
<path d="M48.011 11.8482L44.9297 14.5781L47.5751 17.564L50.6564 14.8341L48.011 11.8482Z" fill="#343434"/>
</g>
<mask id="mask15_2357_6147" style="mask-type:luminance" maskUnits="userSpaceOnUse" x="49" y="15" width="8" height="10">
<path d="M52.1462 15.6993C51.5779 15.7395 51.0294 15.9252 50.5537 16.2388C50.0825 16.5591 49.6981 16.9914 49.435 17.4969C49.2402 17.869 49.116 18.2739 49.0687 18.6913C49.034 18.994 49.0407 19.3 49.0886 19.601C49.1381 19.9276 49.2326 20.2458 49.3693 20.5465C49.6514 21.1303 50.0411 21.6558 50.5179 22.0952C50.9638 22.5222 51.4528 22.9018 51.977 23.2279C52.9036 23.8127 53.9401 24.2016 55.0227 24.3705C55.9026 24.49 56.5137 24.3705 56.6371 24.1973C56.6192 23.9784 56.1076 23.7355 55.4228 23.3513C54.6001 22.9066 53.8324 22.3667 53.1356 21.7429C52.7682 21.4078 52.4299 21.0422 52.1243 20.65C51.8779 20.3544 51.6858 20.0174 51.557 19.6547C51.52 19.5415 51.4999 19.4234 51.4973 19.3044C51.4956 19.2206 51.5049 19.1369 51.5252 19.0555C51.5544 18.9414 51.5986 18.8316 51.6565 18.7291C51.7338 18.5944 51.8395 18.4783 51.9664 18.3889C52.0933 18.2994 52.2383 18.2389 52.3911 18.2115C52.5582 18.1739 52.7303 18.1638 52.9007 18.1816C53.0879 18.2003 53.2698 18.255 53.4362 18.3429C53.6533 18.4548 53.8587 18.5881 54.0493 18.741C54.2643 18.8983 54.4693 19.0794 54.7241 19.0934C54.9789 19.1073 55.1899 18.8206 55.2377 18.4046C55.2746 17.9336 55.1572 17.4633 54.9033 17.0649C54.6252 16.6146 54.2248 16.2528 53.7487 16.0218C53.3219 15.8091 52.852 15.6967 52.3752 15.6934C52.3015 15.6934 52.2259 15.6934 52.1522 15.6934" fill="white"/>
</mask>
<g mask="url(#mask15_2357_6147)">
<path d="M55.6496 13.1365L46.0723 16.8379L50.0162 27.0428L59.5935 23.3415L55.6496 13.1365Z" fill="#343434"/>
</g>
<mask id="mask16_2357_6147" style="mask-type:luminance" maskUnits="userSpaceOnUse" x="48" y="23" width="9" height="5">
<path d="M48.2217 23.5329H48.2077C47.9788 23.8514 48.4725 24.6038 48.6736 24.9462C49.9874 26.9667 52.5135 27.7868 54.4623 27.1618C55.3621 26.8891 56.2877 26.2759 56.7038 25.2528C56.9028 24.7412 56.8411 24.1997 56.3972 23.929C54.9162 23.2522 53.4312 24.3988 51.9123 24.4864C51.0463 24.5875 50.1696 24.4332 49.3902 24.0425C49.0577 23.9031 48.5939 23.5169 48.2993 23.5169C48.2742 23.5139 48.2488 23.5139 48.2237 23.5169" fill="white"/>
</mask>
<g mask="url(#mask16_2357_6147)">
<path d="M55.7464 20.2541L46.4531 23.8457L49.1384 30.7938L58.4316 27.2023L55.7464 20.2541Z" fill="#343434"/>
</g>
</svg>
