<svg width="214" height="70" viewBox="0 0 214 70" fill="none" xmlns="http://www.w3.org/2000/svg">
<rect width="214" height="70" rx="8" fill="#FED85F"/>
<path d="M33.58 41V26.84H38.58C41.3 26.84 43.78 27.8 43.78 30.9C43.78 33 42.52 34.44 40.5 34.74L44.26 41H41.22L37.94 35H36.1V41H33.58ZM36.1 29V32.84H38.18C39.04 32.84 39.56 32.78 40.2 32.52C40.82 32.28 41.14 31.7 41.14 30.88C41.14 29.62 40.22 29 38.36 29H36.1ZM50.6977 31.16C52.1577 31.16 53.2577 31.64 54.0377 32.6C54.8177 33.58 55.1977 34.82 55.1977 36.36V37.04H47.8777C48.0377 38.42 49.0777 39.32 50.4577 39.32C51.4777 39.32 52.3377 38.88 53.0377 38.02L54.7577 39.32C53.7177 40.6 52.3577 41.24 50.6977 41.24C49.1977 41.24 47.9577 40.76 46.9777 39.82C45.9777 38.88 45.4777 37.68 45.4777 36.2C45.4777 34.72 45.9777 33.5 46.9777 32.56C47.9577 31.62 49.1977 31.16 50.6977 31.16ZM47.8777 35.24H52.7977C52.7777 33.78 51.7977 32.96 50.3377 32.96C48.9577 32.96 48.0577 33.86 47.8777 35.24ZM61.682 31.16C63.222 31.16 64.322 31.72 65.002 32.84H65.042V31.4H67.322V45.56H64.922V39.78H64.862C64.082 40.76 62.982 41.24 61.602 41.24C60.222 41.24 59.102 40.74 58.242 39.76C57.382 38.78 56.962 37.6 56.962 36.2C56.962 34.74 57.382 33.54 58.242 32.58C59.102 31.64 60.242 31.16 61.682 31.16ZM60.162 34.14C59.622 34.68 59.362 35.38 59.362 36.2C59.362 37.02 59.622 37.72 60.162 38.26C60.702 38.8 61.362 39.08 62.182 39.08C63.802 39.08 65.002 37.86 65.002 36.2C65.002 35.4 64.742 34.72 64.222 34.16C63.702 33.6 63.022 33.32 62.162 33.32C61.362 33.32 60.702 33.6 60.162 34.14ZM70.0397 31.4H72.4397V36.36C72.4397 38.18 73.0197 39.08 74.1997 39.08C75.5797 39.08 76.3997 38.14 76.3997 36.64V31.4H78.7997V41H76.5197V39.46H76.4797C75.9197 40.64 74.9397 41.24 73.5397 41.24C70.7397 41.24 70.0397 39.12 70.0397 37.54V31.4ZM86.2641 31.16C87.7241 31.16 88.8241 31.64 89.6041 32.6C90.3841 33.58 90.7641 34.82 90.7641 36.36V37.04H83.4441C83.6041 38.42 84.6441 39.32 86.0241 39.32C87.0441 39.32 87.9041 38.88 88.6041 38.02L90.3241 39.32C89.2841 40.6 87.9241 41.24 86.2641 41.24C84.7641 41.24 83.5241 40.76 82.5441 39.82C81.5441 38.88 81.0441 37.68 81.0441 36.2C81.0441 34.72 81.5441 33.5 82.5441 32.56C83.5241 31.62 84.7641 31.16 86.2641 31.16ZM83.4441 35.24H88.3641C88.3441 33.78 87.3641 32.96 85.9041 32.96C84.5241 32.96 83.6241 33.86 83.4441 35.24ZM96.2884 31.16C97.8684 31.16 99.0084 31.64 99.7284 32.62L98.1284 34.06C97.6484 33.4 97.0284 33.08 96.2484 33.08C95.4484 33.08 94.8484 33.48 94.8484 34.1C94.8284 34.86 95.9484 35.04 97.1284 35.3C98.9484 35.72 100.028 36.38 100.028 38.16C100.028 40.1 98.3284 41.24 95.8684 41.24C94.2684 41.24 93.0284 40.74 92.1484 39.76L93.7484 38.26C94.4684 39.04 95.2284 39.44 96.0284 39.44C96.9284 39.44 97.6284 38.98 97.6284 38.34C97.6284 37.82 97.2484 37.56 96.7484 37.36C96.6084 37.3 96.2084 37.18 96.0484 37.16C95.8884 37.14 95.3884 37 95.2484 36.98C94.4484 36.8 94.0084 36.64 93.3884 36.24C92.7484 35.86 92.4484 35.2 92.4484 34.26C92.4484 32.8 93.4484 31.78 94.5484 31.42C95.0884 31.24 95.6684 31.16 96.2884 31.16ZM102.755 28.62H105.155V31.4H107.795V33.44H105.155V37.7C105.155 38.7 105.595 39.2 106.495 39.2C107.115 39.2 107.535 39.1 107.795 38.9V40.92C107.355 41.14 106.715 41.24 105.895 41.24C103.635 41.24 102.755 40.34 102.755 37.94V33.44H100.775V31.4H102.755V28.62ZM120.527 26.48C122.187 26.48 123.547 26.96 124.587 27.94L122.747 29.88C122.207 29.14 121.387 28.76 120.267 28.76C118.847 28.76 117.947 29.48 117.947 30.58C117.947 31.48 118.647 32.02 120.147 32.5C120.727 32.68 121.187 32.84 121.507 32.94C121.827 33.06 122.227 33.24 122.687 33.48C123.147 33.74 123.507 34 123.747 34.26C124.227 34.8 124.667 35.72 124.667 36.84C124.667 38.26 124.187 39.36 123.227 40.16C122.247 40.96 121.047 41.36 119.587 41.36C117.487 41.36 115.907 40.72 114.847 39.44L116.747 37.6C117.407 38.58 118.327 39.08 119.547 39.08C120.927 39.08 122.027 38.26 122.027 37.14C122.027 36.1 121.327 35.52 119.487 34.96C118.047 34.52 116.987 34 116.327 33.42C115.647 32.84 115.307 31.94 115.307 30.76C115.307 29.48 115.787 28.44 116.767 27.66C117.727 26.88 118.987 26.48 120.527 26.48ZM131.811 31.16C133.271 31.16 134.371 31.64 135.151 32.6C135.931 33.58 136.311 34.82 136.311 36.36V37.04H128.991C129.151 38.42 130.191 39.32 131.571 39.32C132.591 39.32 133.451 38.88 134.151 38.02L135.871 39.32C134.831 40.6 133.471 41.24 131.811 41.24C130.311 41.24 129.071 40.76 128.091 39.82C127.091 38.88 126.591 37.68 126.591 36.2C126.591 34.72 127.091 33.5 128.091 32.56C129.071 31.62 130.311 31.16 131.811 31.16ZM128.991 35.24H133.911C133.891 33.78 132.911 32.96 131.451 32.96C130.071 32.96 129.171 33.86 128.991 35.24ZM143.835 31.16C144.035 31.16 144.315 31.2 144.695 31.3V33.62C144.235 33.5 143.855 33.44 143.535 33.44C141.835 33.44 140.955 34.58 140.955 36V41H138.555V31.4H140.955V32.92H140.995C141.535 31.82 142.575 31.16 143.835 31.16ZM145.029 31.4H147.649L150.209 38.12H150.249L152.829 31.4H155.289L151.509 41H148.949L145.029 31.4ZM157.92 26.7C158.8 26.7 159.48 27.32 159.48 28.14C159.48 29 158.8 29.58 157.92 29.58C157.06 29.58 156.4 28.94 156.4 28.14C156.4 27.34 157.06 26.7 157.92 26.7ZM156.74 31.4H159.14V41H156.74V31.4ZM166.635 31.16C168.075 31.16 169.235 31.64 170.115 32.62L168.455 34.28C167.835 33.64 167.235 33.32 166.635 33.32C165.795 33.32 165.115 33.6 164.595 34.16C164.075 34.72 163.815 35.4 163.815 36.2C163.815 37.86 165.015 39.08 166.635 39.08C167.415 39.08 168.035 38.78 168.495 38.18L170.095 39.9C169.295 40.68 167.855 41.24 166.635 41.24C165.135 41.24 163.895 40.76 162.915 39.82C161.915 38.88 161.415 37.68 161.415 36.2C161.415 34.78 161.895 33.58 162.875 32.6C163.855 31.64 165.095 31.16 166.635 31.16ZM176.284 31.16C177.744 31.16 178.844 31.64 179.624 32.6C180.404 33.58 180.784 34.82 180.784 36.36V37.04H173.464C173.624 38.42 174.664 39.32 176.044 39.32C177.064 39.32 177.924 38.88 178.624 38.02L180.344 39.32C179.304 40.6 177.944 41.24 176.284 41.24C174.784 41.24 173.544 40.76 172.564 39.82C171.564 38.88 171.064 37.68 171.064 36.2C171.064 34.72 171.564 33.5 172.564 32.56C173.544 31.62 174.784 31.16 176.284 31.16ZM173.464 35.24H178.384C178.364 33.78 177.384 32.96 175.924 32.96C174.544 32.96 173.644 33.86 173.464 35.24Z" fill="#343434"/>
</svg>
