<svg width="24" height="24" viewBox="0 0 24 24" fill="none" xmlns="http://www.w3.org/2000/svg">
<path fill-rule="evenodd" clip-rule="evenodd" d="M21.84 6.056C21.8836 5.79132 21.8555 5.51978 21.7585 5.26968C21.6615 5.01958 21.4992 4.80006 21.2885 4.63401C21.0778 4.46796 20.8265 4.36144 20.5606 4.32556C20.2948 4.28968 20.0242 4.32574 19.777 4.43L2.67703 11.63C1.48503 12.132 1.42403 13.856 2.67703 14.376C3.91775 14.8934 5.17655 15.3664 6.45103 15.794C7.61903 16.18 8.89303 16.537 9.91403 16.638C10.193 16.972 10.544 17.294 10.902 17.588C11.449 18.038 12.107 18.501 12.787 18.945C14.149 19.835 15.66 20.686 16.678 21.24C17.895 21.9 19.352 21.14 19.57 19.813L21.84 6.056ZM4.59403 12.993L19.718 6.625L17.6 19.465C16.601 18.922 15.162 18.109 13.88 17.271C13.2892 16.8916 12.7187 16.4814 12.171 16.042C12.0246 15.9224 11.8825 15.7977 11.745 15.668L15.706 11.708C15.8937 11.5205 15.9991 11.2661 15.9992 11.0009C15.9993 10.7356 15.894 10.4811 15.7065 10.2935C15.519 10.1059 15.2647 10.0004 14.9994 10.0003C14.7341 10.0002 14.4797 10.1055 14.292 10.293L9.95503 14.63C9.22103 14.536 8.19903 14.264 7.07703 13.894C6.24172 13.6157 5.41409 13.315 4.59503 12.992L4.59403 12.993Z" fill="#343434"/>
</svg>
