<svg width="46" height="56" viewBox="0 0 46 56" fill="none" xmlns="http://www.w3.org/2000/svg">
<mask id="mask0_572_10935" style="mask-type:luminance" maskUnits="userSpaceOnUse" x="0" y="0" width="46" height="49">
<path d="M14.4817 0.148926C13.0693 0.201383 11.67 0.439441 10.3198 0.856972C9.40447 1.13328 3.41197 3.15381 1.32237 8.47279C0.62494 10.5106 0.439732 12.6887 0.783068 14.8149C1.1264 16.9412 1.98773 18.9503 3.29108 20.665C9.33538 28.7298 20.5605 22.3919 30.4386 29.9214C39.5914 36.8292 38.4171 48.9178 40.8003 48.6069C44.0297 48.2788 50.2812 26.7266 39.2288 12.3411C36.2529 8.72623 32.5471 5.78071 28.3538 3.69748C24.1606 1.61426 19.5746 0.440314 14.8961 0.252538H14.4299" fill="white"/>
</mask>
<g mask="url(#mask0_572_10935)">
<path d="M28.1037 -24.9598L-24.4277 21.5815L21.9991 73.9837L74.5305 27.4424L28.1037 -24.9598Z" fill="white"/>
</g>
<mask id="mask1_572_10935" style="mask-type:luminance" maskUnits="userSpaceOnUse" x="11" y="32" width="23" height="24">
<path d="M18.2318 32.4307C17.5449 32.4562 16.8644 32.5719 16.2078 32.775C15.7627 32.9094 12.8484 33.892 11.8322 36.4787C11.493 37.4697 11.4029 38.529 11.5699 39.563C11.7369 40.5971 12.1558 41.5742 12.7896 42.408C15.7291 46.3301 21.1881 43.2479 25.992 46.9096C30.4432 50.269 29.8721 56.1479 31.0311 55.9968C32.6016 55.8372 35.6418 45.3559 30.2668 38.36C28.8196 36.602 27.0174 35.1695 24.9781 34.1564C22.9389 33.1433 20.7086 32.5724 18.4334 32.4811H18.2066" fill="white"/>
</mask>
<g mask="url(#mask1_572_10935)">
<path d="M24.8576 20.2205L-0.689453 42.8545L21.8888 68.3387L47.4359 45.7048L24.8576 20.2205Z" fill="white"/>
</g>
</svg>
