<svg width="318" height="118" viewBox="0 0 318 118" fill="none" xmlns="http://www.w3.org/2000/svg">
<path d="M2.50069 1.5C-9.49944 67 106.186 138.693 166.087 95.7171C182.364 84.0389 191.59 71.3925 199.071 56.4285C202.464 49.6434 206.989 36.2887 201.203 30.0198C191.595 19.6112 173.698 29.1496 167.501 39.5C158.082 55.2303 172.922 84.2582 186.378 91.5473C211.355 105.078 248.376 101.847 275.789 100.628C286.734 100.142 297.873 97.385 308.681 97.385C312.874 97.385 302.741 92.1219 301.176 90.7134C291.943 82.4026 291.454 82.5571 302.844 89.8794C304.421 90.8933 316.001 97.1314 316.001 98.219C316.001 98.978 296.304 113.483 294.505 115.732" stroke="#1C1C1C" stroke-width="3" stroke-linecap="round"/>
</svg>
