<svg width="16" height="18" viewBox="0 0 16 18" fill="none" xmlns="http://www.w3.org/2000/svg">
<path fill-rule="evenodd" clip-rule="evenodd" d="M9.07285 0.707159C9.01787 0.307804 8.67047 0 8.25011 0C7.79154 0 7.41979 0.366312 7.41979 0.818182V15.1999L2.16866 10.0047L2.0757 9.92528C1.75114 9.68696 1.2898 9.71243 0.994412 10.0023C0.669481 10.3212 0.668393 10.8392 0.991981 11.1594L7.65045 17.7477C7.68858 17.787 7.73063 17.8224 7.77599 17.8536C8.10024 18.0766 8.55006 18.0452 8.83894 17.7593L15.5081 11.1593L15.5883 11.0674C15.8287 10.7466 15.801 10.2921 15.5055 10.0023C15.1806 9.68342 14.6549 9.68454 14.3313 10.0047L9.08043 15.2012V0.818182L9.07285 0.707159Z" fill="#1EA48B"/>
</svg>
