<svg width="48" height="900" viewBox="0 0 48 900" fill="none" xmlns="http://www.w3.org/2000/svg">
<path d="M8.48213 15.4918C9.06653 14.8957 9.98102 14.8415 10.6254 15.3292L10.8101 15.4918L24 28.9468L37.1899 15.4918C37.7743 14.8957 38.6888 14.8415 39.3332 15.3292L39.5179 15.4918C40.1023 16.0879 40.1554 17.0207 39.6773 17.6781L39.5179 17.8664L25.164 32.5082C24.5796 33.1043 23.6651 33.1585 23.0207 32.6708L22.836 32.5082L8.48213 17.8664C7.83929 17.2107 7.83929 16.1475 8.48213 15.4918Z" fill="white"/>
<path d="M8.48213 103.492C9.06653 102.896 9.98102 102.841 10.6254 103.329L10.8101 103.492L24 116.947L37.1899 103.492C37.7743 102.896 38.6888 102.841 39.3332 103.329L39.5179 103.492C40.1023 104.088 40.1554 105.021 39.6773 105.678L39.5179 105.866L25.164 120.508C24.5796 121.104 23.6651 121.159 23.0207 120.671L22.836 120.508L8.48213 105.866C7.83929 105.211 7.83929 104.148 8.48213 103.492Z" fill="white"/>
<path d="M8.48213 191.492C9.06653 190.896 9.98102 190.841 10.6254 191.329L10.8101 191.492L24 204.947L37.1899 191.492C37.7743 190.896 38.6888 190.841 39.3332 191.329L39.5179 191.492C40.1023 192.088 40.1554 193.021 39.6773 193.678L39.5179 193.866L25.164 208.508C24.5796 209.104 23.6651 209.159 23.0207 208.671L22.836 208.508L8.48213 193.866C7.83929 193.211 7.83929 192.148 8.48213 191.492Z" fill="white"/>
<path d="M8.48213 279.492C9.06653 278.896 9.98102 278.841 10.6254 279.329L10.8101 279.492L24 292.947L37.1899 279.492C37.7743 278.896 38.6888 278.841 39.3332 279.329L39.5179 279.492C40.1023 280.088 40.1554 281.021 39.6773 281.678L39.5179 281.866L25.164 296.508C24.5796 297.104 23.6651 297.159 23.0207 296.671L22.836 296.508L8.48213 281.866C7.83929 281.211 7.83929 280.148 8.48213 279.492Z" fill="white"/>
<path d="M8.48213 367.492C9.06653 366.896 9.98102 366.841 10.6254 367.329L10.8101 367.492L24 380.947L37.1899 367.492C37.7743 366.896 38.6888 366.841 39.3332 367.329L39.5179 367.492C40.1023 368.088 40.1554 369.021 39.6773 369.678L39.5179 369.866L25.164 384.508C24.5796 385.104 23.6651 385.159 23.0207 384.671L22.836 384.508L8.48213 369.866C7.83929 369.211 7.83929 368.148 8.48213 367.492Z" fill="white"/>
<path d="M8.48213 455.492C9.06653 454.896 9.98102 454.841 10.6254 455.329L10.8101 455.492L24 468.947L37.1899 455.492C37.7743 454.896 38.6888 454.841 39.3332 455.329L39.5179 455.492C40.1023 456.088 40.1554 457.021 39.6773 457.678L39.5179 457.866L25.164 472.508C24.5796 473.104 23.6651 473.159 23.0207 472.671L22.836 472.508L8.48213 457.866C7.83929 457.211 7.83929 456.148 8.48213 455.492Z" fill="white"/>
<path d="M8.48213 543.492C9.06653 542.896 9.98102 542.841 10.6254 543.329L10.8101 543.492L24 556.947L37.1899 543.492C37.7743 542.896 38.6888 542.841 39.3332 543.329L39.5179 543.492C40.1023 544.088 40.1554 545.021 39.6773 545.678L39.5179 545.866L25.164 560.508C24.5796 561.104 23.6651 561.159 23.0207 560.671L22.836 560.508L8.48213 545.866C7.83929 545.211 7.83929 544.148 8.48213 543.492Z" fill="white"/>
<path d="M8.48213 631.492C9.06653 630.896 9.98102 630.841 10.6254 631.329L10.8101 631.492L24 644.947L37.1899 631.492C37.7743 630.896 38.6888 630.841 39.3332 631.329L39.5179 631.492C40.1023 632.088 40.1554 633.021 39.6773 633.678L39.5179 633.866L25.164 648.508C24.5796 649.104 23.6651 649.159 23.0207 648.671L22.836 648.508L8.48213 633.866C7.83929 633.211 7.83929 632.148 8.48213 631.492Z" fill="white"/>
<path d="M8.48213 719.492C9.06653 718.896 9.98102 718.841 10.6254 719.329L10.8101 719.492L24 732.947L37.1899 719.492C37.7743 718.896 38.6888 718.841 39.3332 719.329L39.5179 719.492C40.1023 720.088 40.1554 721.021 39.6773 721.678L39.5179 721.866L25.164 736.508C24.5796 737.104 23.6651 737.159 23.0207 736.671L22.836 736.508L8.48213 721.866C7.83929 721.211 7.83929 720.148 8.48213 719.492Z" fill="white"/>
<path d="M8.48213 807.492C9.06653 806.896 9.98102 806.841 10.6254 807.329L10.8101 807.492L24 820.947L37.1899 807.492C37.7743 806.896 38.6888 806.841 39.3332 807.329L39.5179 807.492C40.1023 808.088 40.1554 809.021 39.6773 809.678L39.5179 809.866L25.164 824.508C24.5796 825.104 23.6651 825.159 23.0207 824.671L22.836 824.508L8.48213 809.866C7.83929 809.211 7.83929 808.148 8.48213 807.492Z" fill="white"/>
<path d="M8.48213 895.492C9.06653 894.896 9.98102 894.841 10.6254 895.329L10.8101 895.492L24 908.947L37.1899 895.492C37.7743 894.896 38.6888 894.841 39.3332 895.329L39.5179 895.492C40.1023 896.088 40.1554 897.021 39.6773 897.678L39.5179 897.866L25.164 912.508C24.5796 913.104 23.6651 913.159 23.0207 912.671L22.836 912.508L8.48213 897.866C7.83929 897.211 7.83929 896.148 8.48213 895.492Z" fill="white"/>
</svg>
