<svg width="29" height="35" viewBox="0 0 29 35" fill="none" xmlns="http://www.w3.org/2000/svg">
<mask id="mask0_2717_7495" style="mask-type:luminance" maskUnits="userSpaceOnUse" x="0" y="0" width="29" height="31">
<path d="M8.68963 0C7.80455 0.0328732 6.92766 0.182056 6.0815 0.443709C5.50792 0.616864 1.75262 1.88306 0.443138 5.21629C0.00608219 6.49329 -0.109981 7.85823 0.105176 9.19069C0.320333 10.5232 0.860098 11.7822 1.67686 12.8567C5.46463 17.9107 12.499 13.939 18.6893 18.6574C24.4251 22.9863 23.6892 30.5618 25.1826 30.367C27.2064 30.1614 31.124 16.6553 24.1978 7.64045C22.333 5.37511 20.0106 3.52925 17.3829 2.22376C14.7551 0.918274 11.8812 0.182603 8.94937 0.0649304H8.65717" fill="white"/>
</mask>
<g mask="url(#mask0_2717_7495)">
<path d="M17.2264 -15.7347L-15.6934 13.4312L13.4008 46.2699L46.3205 17.104L17.2264 -15.7347Z" fill="#343434"/>
</g>
<mask id="mask1_2717_7495" style="mask-type:luminance" maskUnits="userSpaceOnUse" x="6" y="20" width="15" height="15">
<path d="M11.0404 20.23C10.61 20.246 10.1835 20.3185 9.77201 20.4458C9.49307 20.53 7.66679 21.1457 7.02996 22.7668C6.81741 23.3878 6.76097 24.0516 6.8656 24.6996C6.97024 25.3476 7.23274 25.9599 7.62995 26.4825C9.47201 28.9403 12.893 27.0088 15.9034 29.3035C18.6929 31.4087 18.335 35.0928 19.0613 34.9981C20.0455 34.8981 21.9507 28.3298 18.5823 23.9457C17.6754 22.844 16.546 21.9463 15.2681 21.3114C13.9902 20.6766 12.5925 20.3188 11.1667 20.2616H11.0246" fill="white"/>
</mask>
<g mask="url(#mask1_2717_7495)">
<path d="M15.1912 12.5782L-0.818359 26.7622L13.3307 42.7323L29.3402 28.5484L15.1912 12.5782Z" fill="#343434"/>
</g>
</svg>
