<svg width="42" height="51" viewBox="0 0 42 51" fill="none" xmlns="http://www.w3.org/2000/svg">
<mask id="path-1-outside-1_585_4948" maskUnits="userSpaceOnUse" x="0.0429688" y="0" width="42" height="45" fill="black">
<rect fill="white" x="0.0429688" width="42" height="45"/>
<path d="M13.2084 1C11.9693 1.04602 10.7417 1.25488 9.55706 1.62119C8.75406 1.86361 3.49664 3.63628 1.66336 8.3028C1.05148 10.0906 0.888995 12.0015 1.19021 13.867C1.49144 15.7324 2.24711 17.4951 3.39058 18.9994C8.69344 26.075 18.5416 20.5145 27.208 27.1204C35.2381 33.1808 34.2078 43.7865 36.2986 43.5138C39.1319 43.2259 44.6166 24.3174 34.9199 11.6966C32.3091 8.52515 29.0578 5.94095 25.379 4.11327C21.7001 2.28558 17.6766 1.25564 13.5721 1.0909H13.163"/>
</mask>
<path d="M9.55706 1.62119L9.84608 2.57854L9.85249 2.57656L9.55706 1.62119ZM1.66336 8.3028L0.73261 7.93715L0.724458 7.9579L0.71724 7.97899L1.66336 8.3028ZM3.39058 18.9994L4.1908 18.3997L4.1867 18.3943L3.39058 18.9994ZM27.208 27.1204L26.6018 27.9157L26.6056 27.9186L27.208 27.1204ZM36.2986 43.5138L36.1976 42.5189L36.1834 42.5204L36.1693 42.5222L36.2986 43.5138ZM34.9199 11.6966L35.7129 11.0874L35.7026 11.074L35.6919 11.0611L34.9199 11.6966ZM13.5721 1.0909L13.6122 0.0917071L13.5921 0.0909026H13.5721V1.0909ZM13.1713 0.00068903C11.8446 0.0499673 10.5301 0.273599 9.26164 0.665826L9.85249 2.57656C10.9533 2.23616 12.0941 2.04208 13.2456 1.99931L13.1713 0.00068903ZM9.26806 0.663865C8.81375 0.801013 7.20421 1.33781 5.45581 2.46178C3.71091 3.5835 1.75348 5.33857 0.73261 7.93715L2.59411 8.66845C3.40652 6.60051 4.99444 5.13599 6.53732 4.14414C8.0767 3.15454 9.49737 2.68379 9.84607 2.57852L9.26806 0.663865ZM0.71724 7.97899C0.0522228 9.92206 -0.124377 11.9989 0.203002 14.0264L2.17743 13.7076C1.90237 12.0041 2.05074 10.2592 2.60948 8.62661L0.71724 7.97899ZM0.203002 14.0264C0.530381 16.0538 1.35168 17.9696 2.59446 19.6046L4.1867 18.3943C3.14253 17.0206 2.45249 15.411 2.17743 13.7076L0.203002 14.0264ZM2.59037 19.5992C5.54683 23.5439 9.80484 23.917 13.9621 24.2332C18.2065 24.556 22.5369 24.8173 26.6018 27.9157L27.8142 26.3251C23.2127 22.8177 18.2858 22.5562 14.1138 22.2389C9.8547 21.915 6.53719 21.5305 4.19078 18.3997L2.59037 19.5992ZM26.6056 27.9186C30.3694 30.7592 32.0383 34.682 33.0223 37.9781C33.268 38.8012 33.4693 39.5787 33.652 40.2926C33.8321 40.9962 33.9993 41.6596 34.1695 42.2134C34.334 42.7487 34.5319 43.2896 34.8103 43.6988C35.1056 44.1329 35.6383 44.6084 36.428 44.5054L36.1693 42.5222C36.4363 42.4874 36.5438 42.6912 36.4639 42.5737C36.3671 42.4315 36.2397 42.1412 36.0813 41.6259C35.9286 41.129 35.7752 40.5223 35.5896 39.7967C35.4065 39.0813 35.1968 38.2703 34.9387 37.406C33.9077 33.9523 32.0767 29.542 27.8104 26.3222L26.6056 27.9186ZM36.3997 44.5087C36.8395 44.464 37.2068 44.252 37.4877 44.0234C37.7741 43.7904 38.0334 43.4898 38.2673 43.1587C38.7354 42.4962 39.1796 41.6003 39.5773 40.5498C40.3759 38.4403 41.0416 35.5617 41.3047 32.3108C41.83 25.8219 40.7636 17.6612 35.7129 11.0874L34.1269 12.3059C38.7728 18.3528 39.8125 25.9569 39.3112 32.1494C39.0611 35.2391 38.4304 37.9305 37.7069 39.8417C37.3435 40.8015 36.9701 41.5287 36.6338 42.0046C36.4656 42.2428 36.3259 42.3903 36.2255 42.472C36.1195 42.5582 36.1119 42.5276 36.1976 42.5189L36.3997 44.5087ZM35.6919 11.0611C32.9916 7.78085 29.6289 5.10805 25.8239 3.2177L24.934 5.00884C28.4868 6.77385 31.6266 9.26945 34.1478 12.3322L35.6919 11.0611ZM25.8239 3.2177C22.0189 1.32735 17.8575 0.262098 13.6122 0.0917071L13.532 2.0901C17.4958 2.24919 21.3813 3.24382 24.934 5.00884L25.8239 3.2177ZM13.5721 0.0909026H13.163V2.0909H13.5721V0.0909026Z" fill="#E5E5E5" mask="url(#path-1-outside-1_585_4948)"/>
<mask id="path-3-outside-2_585_4948" maskUnits="userSpaceOnUse" x="9.58203" y="28.3223" width="22" height="23" fill="black">
<rect fill="white" x="9.58203" y="28.3223" width="22" height="23"/>
<path d="M16.4983 29.3223C15.8957 29.3446 15.2987 29.4462 14.7226 29.6244C14.3321 29.7423 11.7753 30.6043 10.8837 32.8738C10.5862 33.7432 10.5072 34.6725 10.6536 35.5797C10.8001 36.4869 11.1676 37.3441 11.7237 38.0758C14.3026 41.5167 19.092 38.8126 23.3066 42.0251C27.2118 44.9724 26.7108 50.1302 27.7276 49.9976C29.1054 49.8576 31.7727 40.662 27.0571 34.5243C25.7874 32.9819 24.2062 31.7251 22.4171 30.8363C20.628 29.9475 18.6713 29.4466 16.6752 29.3665H16.4762"/>
</mask>
<path d="M14.7226 29.6244L15.0116 30.5817L15.018 30.5797L14.7226 29.6244ZM10.8837 32.8738L9.95299 32.5081L9.94484 32.5289L9.93762 32.55L10.8837 32.8738ZM11.7237 38.0758L12.5239 37.476L12.5198 37.4706L11.7237 38.0758ZM23.3066 42.0251L22.7004 42.8204L22.7042 42.8233L23.3066 42.0251ZM27.7276 49.9976L27.6265 49.0027L27.6123 49.0041L27.5982 49.006L27.7276 49.9976ZM27.0571 34.5243L27.85 33.915L27.8398 33.9017L27.8291 33.8887L27.0571 34.5243ZM16.6752 29.3665L16.7153 28.3673L16.6953 28.3665H16.6752V29.3665ZM16.4612 28.323C15.771 28.3486 15.0871 28.4649 14.4272 28.669L15.018 30.5797C15.5103 30.4275 16.0205 30.3407 16.5355 30.3216L16.4612 28.323ZM14.4336 28.667C14.1855 28.7419 13.3543 29.0199 12.4503 29.6011C11.5498 30.1799 10.503 31.1081 9.95299 32.5081L11.8145 33.2394C12.156 32.37 12.8334 31.7324 13.5318 31.2834C14.2268 30.8367 14.8692 30.6247 15.0116 30.5817L14.4336 28.667ZM9.93762 32.55C9.58691 33.5747 9.49378 34.6699 9.66643 35.7391L11.6409 35.4203C11.5205 34.6751 11.5854 33.9118 11.8299 33.1976L9.93762 32.55ZM9.66643 35.7391C9.83908 36.8083 10.2722 37.8186 10.9276 38.6809L12.5198 37.4706C12.0631 36.8697 11.7612 36.1655 11.6409 35.4203L9.66643 35.7391ZM10.9235 38.6755C12.518 40.803 14.8303 40.9814 16.8259 41.1332C18.9086 41.2916 20.8614 41.4187 22.7004 42.8204L23.9128 41.2298C21.5372 39.4191 18.988 39.2919 16.9776 39.139C14.8802 38.9795 13.5083 38.7895 12.5239 37.476L10.9235 38.6755ZM22.7042 42.8233C24.4056 44.1074 25.1756 45.8899 25.642 47.4524C25.7584 47.8421 25.8541 48.2116 25.9428 48.5584C26.0289 48.8949 26.1139 49.2321 26.2011 49.5161C26.2827 49.7815 26.397 50.109 26.5791 50.3765C26.778 50.6689 27.2015 51.0747 27.8569 50.9892L27.5982 49.006C27.9995 48.9537 28.2162 49.2272 28.2326 49.2514C28.2392 49.2612 28.2269 49.2449 28.2009 49.1818C28.176 49.1217 28.1469 49.0393 28.1129 48.9285C28.0431 48.7015 27.9721 48.4211 27.8804 48.0625C27.7912 47.7142 27.6871 47.3112 27.5584 46.8803C27.0449 45.1602 26.1128 42.8902 23.909 41.2269L22.7042 42.8233ZM27.8287 50.9925C28.1775 50.957 28.4485 50.7916 28.63 50.6439C28.8171 50.4917 28.9739 50.3061 29.1045 50.1213C29.366 49.7512 29.6002 49.2722 29.8025 48.738C30.2101 47.6612 30.5428 46.2132 30.6741 44.5908C30.9357 41.359 30.4103 37.2473 27.85 33.915L26.2641 35.1335C28.4195 37.9389 28.9183 41.494 28.6807 44.4294C28.5624 45.8906 28.2646 47.1513 27.932 48.0299C27.7641 48.4734 27.6007 48.7837 27.4711 48.9672C27.4403 49.0107 27.4148 49.0423 27.3955 49.064C27.3758 49.0861 27.3662 49.0938 27.3678 49.0925C27.369 49.0915 27.3889 49.0753 27.4285 49.0563C27.4688 49.037 27.5361 49.0119 27.6265 49.0027L27.8287 50.9925ZM27.8291 33.8887C26.4699 32.2376 24.7773 30.8922 22.862 29.9407L21.9722 31.7319C23.6352 32.5581 25.1048 33.7262 26.285 35.1598L27.8291 33.8887ZM22.862 29.9407C20.9468 28.9892 18.8522 28.453 16.7153 28.3673L16.6351 30.3657C18.4905 30.4401 20.3092 30.9057 21.9722 31.7319L22.862 29.9407ZM16.6752 28.3665H16.4762V30.3665H16.6752V28.3665Z" fill="#E5E5E5" mask="url(#path-3-outside-2_585_4948)"/>
</svg>
