<svg width="63" height="79" viewBox="0 0 63 79" fill="none" xmlns="http://www.w3.org/2000/svg">
<mask id="path-1-inside-1_585_4958" fill="white">
<path d="M19.4609 0C17.4788 0.0736216 15.5149 0.407726 13.6199 0.993712C12.3353 1.3815 3.9251 4.21722 0.992433 11.6822C0.0136214 14.5421 -0.24631 17.599 0.235548 20.5831C0.717405 23.5672 1.92624 26.3869 3.75544 28.7934C12.2384 40.1121 27.9923 31.2171 41.8558 41.7844C54.7014 51.4792 53.0533 68.445 56.398 68.0087C60.9303 67.5482 69.704 37.3006 54.1924 17.1112C50.016 12.0379 44.815 7.90397 38.9299 4.98025C33.0449 2.05653 26.6086 0.408951 20.0426 0.145415H19.3882"/>
</mask>
<path d="M13.6199 0.993712L13.9089 1.95106L13.9153 1.94908L13.6199 0.993712ZM0.992433 11.6822L0.0616815 11.3165L0.0535299 11.3373L0.0463112 11.3584L0.992433 11.6822ZM3.75544 28.7934L4.55566 28.1937L4.55156 28.1883L3.75544 28.7934ZM41.8558 41.7844L41.2496 42.5797L41.2534 42.5826L41.8558 41.7844ZM56.398 68.0087L56.2969 67.0138L56.2827 67.0153L56.2686 67.0171L56.398 68.0087ZM54.1924 17.1112L54.9854 16.502L54.9752 16.4887L54.9645 16.4757L54.1924 17.1112ZM20.0426 0.145415L20.0827 -0.85378L20.0627 -0.854585H20.0426V0.145415ZM19.4238 -0.999311C17.354 -0.922434 15.3033 -0.573554 13.3245 0.0383457L13.9153 1.94908C15.7265 1.38901 17.6035 1.06968 19.4981 0.999311L19.4238 -0.999311ZM13.3309 0.0363847C12.6358 0.24622 10.1177 1.08512 7.38344 2.84283C4.65272 4.59829 1.63225 7.31873 0.0616815 11.3165L1.92318 12.0478C3.28528 8.58067 5.93625 6.15078 8.46495 4.52519C10.9901 2.90185 13.3194 2.12899 13.9089 1.95104L13.3309 0.0363847ZM0.0463112 11.3584C-0.98564 14.3736 -1.25968 17.5964 -0.751665 20.7425L1.22276 20.4237C0.767062 17.6016 1.01288 14.7107 1.93855 12.006L0.0463112 11.3584ZM-0.751665 20.7425C-0.243649 23.8886 1.03081 26.8614 2.95932 29.3986L4.55156 28.1883C2.82167 25.9124 1.67846 23.2458 1.22276 20.4237L-0.751665 20.7425ZM2.95523 29.3932C7.50172 35.4595 14.0312 36.0597 20.7121 36.5678C27.4801 37.0825 34.5862 37.5006 41.2496 42.5797L42.4621 40.9891C35.262 35.501 27.5594 35.0828 20.8638 34.5735C14.081 34.0577 8.49207 33.446 4.55564 28.1937L2.95523 29.3932ZM41.2534 42.5826C47.425 47.2404 50.1433 53.6618 51.7315 58.9818C52.1283 60.3108 52.4528 61.5646 52.7452 62.7071C53.0349 63.8393 53.2982 64.8835 53.5653 65.7523C53.8266 66.6026 54.122 67.3928 54.5129 67.9673C54.9208 68.5667 55.5809 69.1238 56.5273 69.0003L56.2686 67.0171C56.2678 67.0172 56.2802 67.0158 56.2998 67.0199C56.3087 67.0217 56.3164 67.0241 56.3225 67.0265C56.3286 67.0289 56.3314 67.0306 56.3311 67.0303C56.3258 67.0273 56.2658 66.9882 56.1665 66.8423C55.9572 66.5346 55.7322 65.9952 55.477 65.1648C55.2275 64.3529 54.9781 63.3654 54.6827 62.2112C54.39 61.0672 54.057 59.78 53.6479 58.4096C52.0127 52.932 49.1322 46.0232 42.4583 40.9862L41.2534 42.5826ZM56.4991 69.0036C57.045 68.9481 57.5247 68.6817 57.9216 68.3587C58.3241 68.0313 58.7029 67.5964 59.0574 67.0946C59.7667 66.0907 60.456 64.7082 61.082 63.0549C62.337 59.7398 63.3914 55.1912 63.8084 50.039C64.6414 39.7476 62.9436 26.8601 54.9854 16.502L53.3994 17.7205C60.9528 27.5517 62.624 39.8827 61.8149 49.8776C61.4109 54.8685 60.3915 59.23 59.2115 62.3468C58.6199 63.9094 58.0014 65.1233 57.424 65.9405C57.1351 66.3494 56.8759 66.6312 56.6594 66.8074C56.4375 66.9879 56.3175 67.0118 56.2969 67.0138L56.4991 69.0036ZM54.9645 16.4757C50.6985 11.2936 45.386 7.07106 39.3749 4.08468L38.485 5.87582C44.2439 8.73687 49.3334 12.7822 53.4204 17.7468L54.9645 16.4757ZM39.3749 4.08468C33.3637 1.0983 26.7895 -0.584596 20.0827 -0.85378L20.0025 1.14461C26.4278 1.4025 32.7261 3.01476 38.485 5.87582L39.3749 4.08468ZM20.0426 -0.854585H19.3882V1.14542H20.0426V-0.854585Z" fill="#E5E5E5" mask="url(#path-1-inside-1_585_4958)"/>
<mask id="path-3-inside-2_585_4958" fill="white">
<path d="M24.724 45.3066C23.76 45.3424 22.805 45.5049 21.8834 45.7899C21.2587 45.9785 17.1686 47.3576 15.7424 50.9879C15.2664 52.3788 15.14 53.8654 15.3743 55.3166C15.6087 56.7679 16.1965 58.1391 17.0861 59.3095C21.2115 64.8139 28.873 60.4882 35.6151 65.6272C41.8622 70.342 41.0606 78.5928 42.6872 78.3806C44.8914 78.1567 49.1582 63.4467 41.6146 53.6282C39.5835 51.1609 37.0542 49.1505 34.1922 47.7286C31.3302 46.3068 28.2001 45.5055 25.0069 45.3774H24.6887"/>
</mask>
<path d="M21.8834 45.7899L22.1724 46.7473L22.1788 46.7453L21.8834 45.7899ZM15.7424 50.9879L14.8117 50.6223L14.8035 50.643L14.7963 50.6641L15.7424 50.9879ZM17.0861 59.3095L17.8863 58.7097L17.8822 58.7043L17.0861 59.3095ZM35.6151 65.6272L35.0089 66.4226L35.0127 66.4254L35.6151 65.6272ZM42.6872 78.3806L42.5862 77.3858L42.572 77.3872L42.5579 77.389L42.6872 78.3806ZM41.6146 53.6282L42.4076 53.0189L42.3974 53.0056L42.3867 52.9926L41.6146 53.6282ZM25.0069 45.3774L25.047 44.3782L25.027 44.3774H25.0069V45.3774ZM24.6869 44.3073C23.6353 44.3464 22.5933 44.5236 21.588 44.8345L22.1788 46.7453C23.0166 46.4862 23.8848 46.3385 24.7611 46.306L24.6869 44.3073ZM21.5944 44.8326C21.2292 44.9428 19.9561 45.3677 18.5727 46.2571C17.1928 47.1441 15.629 48.5418 14.8117 50.6223L16.6732 51.3536C17.282 49.8037 18.4763 48.6966 19.6542 47.9394C20.8286 47.1845 21.9128 46.8256 22.1724 46.7472L21.5944 44.8326ZM14.7963 50.6641C14.2671 52.2102 14.1266 53.8628 14.3871 55.476L16.3615 55.1572C16.1534 53.868 16.2657 52.5473 16.6885 51.3117L14.7963 50.6641ZM14.3871 55.476C14.6476 57.0893 15.3011 58.6136 16.29 59.9146L17.8822 58.7043C17.092 57.6646 16.5697 56.4465 16.3615 55.1572L14.3871 55.476ZM16.2859 59.9092C18.6536 63.0684 22.0706 63.3574 25.2935 63.6025C28.6035 63.8542 31.9061 64.0575 35.0089 66.4225L36.2213 64.8319C32.582 62.0579 28.6828 61.8545 25.4452 61.6083C22.1205 61.3554 19.644 61.055 17.8863 58.7097L16.2859 59.9092ZM35.0127 66.4254C37.885 68.5932 39.1653 71.5909 39.9256 74.1376C40.1154 74.7734 40.2711 75.3745 40.4132 75.9297C40.5526 76.4747 40.6843 76.9971 40.8186 77.4342C40.9473 77.8528 41.109 78.3015 41.3458 78.6495C41.5995 79.0223 42.0849 79.4677 42.8166 79.3723L42.5579 77.389C42.8829 77.3467 43.0376 77.5806 42.9993 77.5244C42.9442 77.4434 42.8529 77.2454 42.7304 76.8467C42.6135 76.4665 42.4958 76.0008 42.3507 75.4339C42.2082 74.8771 42.0442 74.2425 41.8421 73.5655C41.0347 70.8611 39.5922 67.376 36.2175 64.829L35.0127 66.4254ZM42.7883 79.3755C43.1888 79.3348 43.5144 79.143 43.7524 78.9493C43.9959 78.7512 44.2109 78.5004 44.4001 78.2325C44.7789 77.6964 45.1323 76.9807 45.4456 76.1534C46.0752 74.4903 46.5969 72.2301 46.8031 69.683C47.2144 64.602 46.3818 58.1916 42.4076 53.0189L40.8216 54.2374C44.3911 58.8832 45.1969 64.7371 44.8096 69.5217C44.6165 71.9075 44.1297 73.9804 43.5751 75.4453C43.2962 76.1819 43.0136 76.7289 42.7667 77.0784C42.643 77.2534 42.5477 77.3512 42.4902 77.3979C42.4272 77.4492 42.4612 77.3985 42.5862 77.3858L42.7883 79.3755ZM42.3867 52.9926C40.2661 50.4166 37.6252 48.3176 34.6371 46.8331L33.7472 48.6242C36.4831 49.9834 38.901 51.9052 40.8426 54.2637L42.3867 52.9926ZM34.6371 46.8331C31.649 45.3485 28.3809 44.512 25.047 44.3782L24.9668 46.3766C28.0192 46.4991 31.0114 47.265 33.7472 48.6242L34.6371 46.8331ZM25.0069 44.3774H24.6887V46.3774H25.0069V44.3774Z" fill="#E5E5E5" mask="url(#path-3-inside-2_585_4958)"/>
</svg>
