<svg width="24" height="30" viewBox="0 0 24 30" fill="none" xmlns="http://www.w3.org/2000/svg">
<mask id="mask0_585_4963" style="mask-type:luminance" maskUnits="userSpaceOnUse" x="0" y="0" width="24" height="26">
<path d="M7.26078 0C6.52124 0.0274679 5.78853 0.152121 5.08151 0.370749C4.60225 0.515432 1.46444 1.57342 0.370272 4.35857C0.00508209 5.42559 -0.091897 6.56609 0.0878817 7.67946C0.26766 8.79282 0.718671 9.84483 1.40114 10.7427C4.56607 14.9656 10.4438 11.647 15.6162 15.5896C20.4088 19.2066 19.7939 25.5365 21.0418 25.3737C22.7328 25.2019 26.0062 13.9167 20.2189 6.38412C18.6607 4.49127 16.7202 2.94893 14.5246 1.85811C12.3289 0.767281 9.92755 0.152578 7.47781 0.0542538H7.23366" fill="white"/>
</mask>
<g mask="url(#mask0_585_4963)">
<path d="M14.3934 -13.1455L-13.1133 11.2246L11.1969 38.6636L38.7035 14.2935L14.3934 -13.1455Z" fill="url(#paint0_linear_585_4963)"/>
</g>
<mask id="mask1_585_4963" style="mask-type:luminance" maskUnits="userSpaceOnUse" x="5" y="16" width="13" height="14">
<path d="M9.22442 16.9033C8.86477 16.9167 8.50844 16.9773 8.1646 17.0836C7.93153 17.154 6.40554 17.6685 5.87343 19.023C5.69583 19.5419 5.64867 20.0965 5.7361 20.638C5.82353 21.1794 6.04286 21.6911 6.37476 22.1277C7.91393 24.1814 10.7724 22.5675 13.2878 24.4848C15.6186 26.2439 15.3195 29.3222 15.9264 29.2431C16.7488 29.1595 18.3407 23.6713 15.5262 20.008C14.7684 19.0875 13.8248 18.3374 12.757 17.807C11.6891 17.2765 10.5213 16.9775 9.32997 16.9297H9.21123" fill="white"/>
</mask>
<g mask="url(#mask1_585_4963)">
<path d="M12.6935 10.5097L-0.683594 22.3613L11.1389 35.7055L24.516 23.8538L12.6935 10.5097Z" fill="url(#paint1_linear_585_4963)"/>
</g>
<defs>
<linearGradient id="paint0_linear_585_4963" x1="-122.663" y1="131.32" x2="11.9127" y2="12.0903" gradientUnits="userSpaceOnUse">
<stop stop-color="#FFE28A"/>
<stop offset="0.37" stop-color="#FFCD0B"/>
<stop offset="1" stop-color="#E2B125"/>
</linearGradient>
<linearGradient id="paint1_linear_585_4963" x1="-53.9598" y1="80.7663" x2="11.487" y2="22.7823" gradientUnits="userSpaceOnUse">
<stop stop-color="#FFE28A"/>
<stop offset="0.37" stop-color="#FFCD0B"/>
<stop offset="1" stop-color="#E2B125"/>
</linearGradient>
</defs>
</svg>
