<svg width="121" height="57" viewBox="0 0 121 57" fill="none" xmlns="http://www.w3.org/2000/svg">
<mask id="mask0_585_4849" style="mask-type:luminance" maskUnits="userSpaceOnUse" x="3" y="0" width="118" height="57">
<path d="M79.5498 38.3382H79.492H79.3925C79.2589 38.3286 79.126 38.3113 78.9944 38.2864C78.8597 38.2624 78.7267 38.2299 78.5962 38.1889C78.5286 38.1695 78.4621 38.1463 78.3972 38.1192C78.3768 38.1143 78.3573 38.1063 78.3394 38.0953L78.2598 38.0515C78.2242 38.033 78.1877 38.0164 78.1503 38.0017C78.0498 37.9597 77.9514 37.9126 77.8557 37.8604C77.7475 37.799 77.6499 37.7204 77.5671 37.6275C77.4582 37.4956 77.3739 37.3453 77.3183 37.1836C77.2847 37.0912 77.2567 36.9968 77.2346 36.9009C77.2092 36.8001 77.1965 36.6964 77.1968 36.5924C77.187 36.0471 77.3751 35.5167 77.7263 35.0994C78.2808 34.4721 79.0254 34.0435 79.8464 33.8791C81.4528 33.5587 82.7606 34.4126 83.0314 34.5958C84.803 35.7503 85.2609 37.8146 85.3743 38.3043C85.5029 38.8716 85.561 39.4526 85.5475 40.0342C85.4014 39.4992 85.1075 39.0163 84.6995 38.6407C84.4491 38.4137 84.1607 38.2325 83.8475 38.1053C83.2725 37.9042 82.6551 37.8562 82.056 37.9659C82.0221 37.9659 81.6578 38.0416 81.19 38.165L81.0845 38.1909L80.989 38.2068C80.9253 38.2167 80.8596 38.2307 80.7899 38.2446C80.7296 38.2586 80.6684 38.2686 80.6068 38.2745L80.4296 38.3043C80.3699 38.3163 80.3221 38.3043 80.2644 38.3202C80.2067 38.3362 80.1549 38.3421 80.1012 38.3421C80.0481 38.3392 79.995 38.3392 79.9419 38.3421H79.8603H79.7767C79.7184 38.3382 79.6598 38.3382 79.6015 38.3421H79.5856H79.5438M68.3843 0.436523C65.7129 0.512167 61.5982 0.621652 58.7457 3.6932C56.556 6.04613 55.5606 9.6432 56.329 12.5794C56.7968 14.3709 57.9554 16.0451 58.7536 17.2056C59.0363 17.6157 59.7012 18.4498 61.0289 20.1219C61.9008 21.2207 62.8902 22.4589 63.9233 23.928L64.3115 24.4913C64.4309 24.6745 64.5623 24.8576 64.6797 25.0487C64.9266 25.4289 65.1615 25.829 65.3924 26.2431C65.8639 27.1305 66.2563 28.0577 66.5649 29.014C66.963 30.2383 67.1939 30.9629 67.2258 31.8985C67.2457 32.4957 67.3094 34.3509 66.2125 35.6926C64.2776 38.0635 59.9102 37.3747 58.029 36.7636C57.4318 36.5645 56.5301 36.2062 56.1897 36.0629C54.9834 35.5553 53.8149 34.9999 52.6742 34.4425C50.395 33.3218 48.2311 32.201 46.135 31.1798C41.9885 29.1574 37.1075 27.1986 34.3266 26.3605C30.4866 25.2099 19.0345 21.7821 10.6261 27.6823C9.45163 28.5064 4.87716 31.7014 3.85796 37.5339C3.39895 40.3076 3.75079 43.1549 4.87119 45.7334C6.42551 42.7864 8.59359 40.207 11.2293 38.169C11.49 37.9699 14.8841 35.408 19.3232 34.1976C33.4407 30.3498 56.2594 40.6991 61.9625 41.0335C63.0935 41.0895 64.2261 40.959 65.3147 40.6473C66.4072 40.3046 67.4217 39.7507 68.3007 39.017C71.6848 36.1465 71.7027 31.4128 71.7067 30.1328C71.7067 29.5993 71.6728 29.1016 71.6629 28.9603C71.5308 27.3252 71.1689 25.7169 70.5879 24.1828C70.2882 23.3655 69.9379 22.5677 69.5389 21.794C69.4135 21.5472 68.9417 20.5996 68.2669 19.5227C67.6298 18.5035 66.8913 17.4823 66.1847 16.5666C66.6943 17.1976 67.811 18.2328 69.7081 19.1544C72.8234 20.6793 77.2366 21.5213 82.4481 22.9108C83.9257 23.3003 85.3754 23.7885 86.7877 24.3719C87.5282 24.6784 88.2847 25.0109 89.0232 25.403C89.7859 25.793 90.5214 26.2339 91.2248 26.7228C91.9572 27.2294 92.6445 27.7981 93.2792 28.4228L93.7509 28.9205L94.1948 29.452C94.4888 29.8149 94.755 30.1996 94.9911 30.6026C95.4873 31.4242 95.8198 32.334 95.9705 33.282C96.0054 33.5221 96.0273 33.764 96.0362 34.0065C96.0386 34.2566 96.026 34.5065 95.9984 34.755C95.9434 35.2824 95.8292 35.8019 95.658 36.3037C95.5158 36.7279 95.3148 37.1299 95.0608 37.4981C94.9366 37.6684 94.8002 37.8294 94.6527 37.9799C94.5028 38.1204 94.341 38.2476 94.169 38.3601C94.0826 38.4214 93.9929 38.4779 93.9002 38.5293C93.8067 38.579 93.7131 38.6268 93.6195 38.6686C93.4402 38.7517 93.2536 38.8183 93.0622 38.8677C92.6811 38.9695 92.2827 38.9885 91.8937 38.9234C91.513 38.8539 91.1535 38.6979 90.8426 38.4676C89.8314 37.7334 88.9523 36.8328 88.2428 35.8041C87.9502 35.3542 86.5309 33.1804 84.6597 31.8786C81.8131 29.9039 78.5505 30.3776 78.1085 30.4473C77.2061 30.5657 76.3338 30.852 75.5366 31.2913C75.5366 31.2913 73.5858 32.3862 72.6502 34.3489C72.4826 34.6965 72.3441 35.0574 72.2362 35.4279C72.1804 35.6269 72.1287 35.826 72.0889 36.025C72.0491 36.2241 72.0192 36.4232 71.9993 36.6362C71.9097 37.4899 71.9771 38.3528 72.1983 39.1822C72.4469 40.1034 72.8886 40.9611 73.4943 41.6983C73.7936 42.061 74.1269 42.3943 74.4896 42.6937L74.5991 42.7832L74.7165 42.8768C74.8061 42.9445 74.8957 43.0161 74.9872 43.0759C75.1724 43.2092 75.3635 43.3346 75.5585 43.4541C76.3509 43.9276 77.2137 44.2717 78.1145 44.4733C78.226 44.4992 78.3395 44.5211 78.4469 44.543C78.5544 44.5649 78.6679 44.5768 78.7854 44.5927C79.0222 44.6246 79.2631 44.6524 79.506 44.6783C79.9944 44.7046 80.4842 44.6939 80.9711 44.6465C81.8782 44.5479 82.7704 44.3414 83.6286 44.0314C84.2815 43.8005 84.8488 43.5676 85.3186 43.4003L85.2887 43.4979C85.0979 44.1096 84.8458 44.7005 84.5363 45.2616C84.1969 45.8618 83.7967 46.4254 83.3419 46.9437C82.8739 47.4838 82.3425 47.9657 81.7594 48.3789C81.1425 48.8145 80.4738 49.1716 79.7687 49.4419C78.2223 50.0406 76.5439 50.2145 74.9076 49.9455C74.0994 49.8022 71.7644 49.426 69.9728 47.4572C67.4706 44.7082 68.024 41.0673 68.1096 40.5557C67.3731 40.9041 65.8263 41.7501 64.9047 43.4063C64.6524 43.8657 64.4521 44.3517 64.3075 44.8555C64.0928 45.6801 64.0049 46.5325 64.0467 47.3836C64.196 49.9117 65.8005 52.0815 66.0035 52.3502C68.5475 55.7124 72.5726 56.4051 73.6714 56.5942C79.2551 57.5577 83.4832 54.6594 84.1481 54.1856C87.2316 51.9959 88.5912 49.0856 89.0072 48.1918C89.398 47.3612 89.7067 46.4945 89.9289 45.604C90.2803 44.1426 90.3853 42.6329 90.2394 41.137C90.5002 41.2817 90.7734 41.403 91.0556 41.4993C91.9896 41.8022 92.9861 41.8578 93.948 41.6605C93.7424 42.5656 93.7554 43.5066 93.9858 44.4056C94.7104 47.1646 97.3221 48.363 97.7103 48.5342C101.065 50.0072 105.064 48.2555 107.108 45.9145C108.104 44.7265 108.798 43.3146 109.129 41.7999C109.397 40.5833 109.455 39.3295 109.3 38.0933C109.578 38.3019 109.873 38.4889 110.18 38.6527C111.052 39.1312 112.012 39.4284 113.002 39.5266C113.603 39.59 114.21 39.5699 114.806 39.4669C115.49 39.3489 116.15 39.1203 116.761 38.79C117.412 38.4338 118 37.9709 118.498 37.4205C118.997 36.8651 119.409 36.2376 119.721 35.5592C120.038 34.8686 120.256 34.1369 120.37 33.3855C120.413 33.1008 120.433 32.838 120.437 32.8002C120.467 32.3947 120.467 31.9875 120.437 31.582C120.437 31.5521 120.419 31.2834 120.378 30.9848C120.265 30.2003 120.06 29.4319 119.767 28.6955C119.475 27.9715 119.115 27.2769 118.692 26.6213C118.273 25.9749 117.807 25.3602 117.298 24.782C116.802 24.2126 116.281 23.6851 115.763 23.1895C114.73 22.1941 113.699 21.2824 112.893 20.3787C112.504 19.9536 112.153 19.4953 111.844 19.0091C111.583 18.5998 111.382 18.1554 111.247 17.6893C110.331 18.0652 109.523 18.6615 108.894 19.4252C108.48 19.9483 108.183 20.5536 108.022 21.2008C107.836 21.9281 107.862 22.6936 108.097 23.4064C108.274 23.952 108.522 24.4715 108.836 24.9512C109.244 25.5767 109.71 26.162 110.229 26.6989C110.797 27.2961 111.464 27.9132 112.148 28.5502L112.664 29.0339C112.829 29.1952 113 29.3604 113.166 29.5316C113.506 29.8773 113.825 30.2443 114.119 30.6304C114.417 31.0164 114.668 31.4368 114.866 31.8825C114.887 31.9403 114.911 31.998 114.935 32.0537C114.959 32.1095 114.973 32.1572 114.993 32.211C115.031 32.3247 115.063 32.4403 115.089 32.5574C115.141 32.8194 115.162 33.0866 115.152 33.3536C115.144 33.9344 114.953 34.4978 114.607 34.964C114.393 35.2288 114.12 35.4401 113.811 35.5811C113.406 35.7541 112.972 35.8474 112.533 35.8558C111.511 35.8608 110.513 35.5477 109.678 34.9601C109.011 34.4981 108.404 33.9544 107.872 33.3417C107.659 33.1008 107.474 32.8838 107.313 32.6947C107.247 32.5832 107.184 32.4718 107.114 32.3643C106.805 31.8493 106.524 31.3177 106.274 30.7718C106.116 30.443 106.019 30.0882 105.987 29.7247C105.459 29.7971 104.941 29.9376 104.449 30.1427C104.045 30.3154 103.668 30.5468 103.332 30.8295C102.831 31.2547 102.436 31.7894 102.175 32.3921C101.89 33.0398 101.778 33.7503 101.849 34.4544C101.895 34.9378 101.987 35.4156 102.124 35.8817C102.261 36.3853 102.452 36.9208 102.597 37.4046C102.77 37.9473 102.912 38.4997 103.021 39.0588C103.161 39.7574 103.186 40.474 103.097 41.1808C102.982 42.1461 102.545 43.0445 101.857 43.7308C100.78 44.7599 99.1635 45.0944 97.9571 44.6903C97.5137 44.5505 97.1131 44.3005 96.7926 43.9637C96.4881 43.6362 96.2866 43.2264 96.2133 42.7852C96.146 42.3879 96.1637 41.9809 96.2651 41.5909C96.3555 41.2399 96.4892 40.9015 96.6632 40.5836C96.6991 40.5119 96.7369 40.4442 96.7767 40.3845L96.9757 40.2153L97.1469 40.072L97.3042 39.9207L97.6128 39.6062C97.7143 39.4987 97.7999 39.3872 97.8934 39.2757C98.0751 39.054 98.2439 38.8221 98.3991 38.581C98.701 38.1115 98.9589 37.615 99.1694 37.098C99.3789 36.5874 99.5492 36.0617 99.679 35.5254C99.7427 35.2507 99.8025 34.98 99.8482 34.6754C99.8937 34.3646 99.9236 34.0516 99.9378 33.7378C99.9893 32.4928 99.8222 31.2484 99.4441 30.0611C99.0666 28.8584 98.5197 27.7156 97.8198 26.6671C96.4423 24.5232 94.4894 22.654 92.2321 21.1391C89.8594 19.5808 87.3041 18.3199 84.6239 17.3848C82.3725 16.5726 81.1044 16.1904 75.9288 14.7611C75.9288 14.7611 63.4873 11.3133 61.3633 8.06463C61.1742 7.77598 60.6865 7.0295 60.8199 6.1357C60.91 5.63556 61.151 5.17499 61.5107 4.81591C62.285 4.00175 63.352 3.86041 63.7222 3.8206C67.8707 3.27517 77.5054 6.80655 77.5054 6.80655C79.6592 7.6028 82.6213 8.71556 86.1467 9.77458C88.4897 10.4995 90.8857 11.0399 93.313 11.391C93.8485 11.4706 94.376 11.5184 94.8816 11.5701C95.1344 11.592 95.3872 11.606 95.6321 11.6239C95.8769 11.6418 96.1118 11.6557 96.3666 11.6637C96.8683 11.6816 97.3619 11.6796 97.8158 11.6637L98.4667 11.6298C98.6658 11.6179 98.8828 11.598 99.0958 11.5761C100.543 11.4486 101.968 11.1362 103.336 10.6465C104.293 10.3117 105.204 9.85754 106.047 9.29484C107.044 8.65976 107.866 7.78427 108.436 6.74882C108.629 6.3854 108.787 6.00488 108.91 5.61217C108.979 5.39718 109.041 5.17224 109.093 4.94331C109.139 4.70048 109.173 4.45526 109.192 4.20877C109.24 3.67996 109.212 3.14708 109.109 2.62622C108.983 2.05032 108.776 1.49531 108.494 0.977975C107.743 1.83378 106.86 2.56483 105.88 3.14378C104.892 3.72383 103.837 4.18235 102.739 4.50936C101.647 4.82972 100.528 5.04699 99.3964 5.1583C99.1177 5.19413 98.839 5.20011 98.5623 5.22399C98.4309 5.23395 98.2617 5.23992 98.1204 5.24589L97.6904 5.26182C97.4117 5.26182 97.1469 5.26182 96.8802 5.26182L96.4821 5.25186L96.0561 5.22798C93.8551 5.09469 91.666 4.808 89.5049 4.37001C87.4108 3.96591 85.4201 3.49214 83.5091 3.02435C81.5981 2.55655 79.7906 2.10666 78.0548 1.71252C76.319 1.31837 74.6468 0.989919 73.0384 0.760996C71.6578 0.559493 70.2652 0.45109 68.87 0.436523C68.7088 0.436523 68.5455 0.436523 68.3843 0.436523Z" fill="white"/>
</mask>
<g mask="url(#mask0_585_4849)">
<path d="M105.236 -38.9908L-15.998 7.8623L18.4522 97.0032L139.686 50.15L105.236 -38.9908Z" fill="url(#paint0_linear_585_4849)"/>
</g>
<mask id="mask1_585_4849" style="mask-type:luminance" maskUnits="userSpaceOnUse" x="93" y="39" width="6" height="9">
<path d="M96.7668 40.371C95.9845 40.9681 95.1902 41.2349 93.9381 41.6609C93.7325 42.5659 93.7455 43.5069 93.976 44.406C94.315 45.6232 95.0306 46.7019 96.0203 47.4875L98.1722 44.7543C98.0986 44.7364 98.0269 44.7145 97.9552 44.6906C97.5118 44.5509 97.1111 44.3009 96.7907 43.9641C96.4862 43.6366 96.2847 43.2267 96.2114 42.7856C96.1441 42.3883 96.1618 41.9812 96.2632 41.5912C96.3536 41.2402 96.4873 40.9019 96.6613 40.584C96.6972 40.5123 96.735 40.4446 96.7748 40.3849M96.9918 40.2077L97.153 40.0724L97.3103 39.9211L97.6188 39.6066C97.6378 39.5883 97.6557 39.569 97.6726 39.5488C97.5312 39.6364 97.3859 39.8733 96.9918 40.2077Z" fill="white"/>
</mask>
<g mask="url(#mask1_585_4849)">
<path d="M97.6099 38.0391L91.0391 40.5352L94.2462 48.978L100.817 46.482L97.6099 38.0391Z" fill="url(#paint1_linear_585_4849)"/>
</g>
<mask id="mask2_585_4849" style="mask-type:luminance" maskUnits="userSpaceOnUse" x="113" y="42" width="7" height="7">
<path d="M113.646 45.6515C113.646 46.2276 113.817 46.7909 114.136 47.27C114.456 47.7492 114.911 48.1228 115.443 48.3435C115.975 48.5643 116.561 48.6222 117.126 48.5101C117.691 48.3979 118.21 48.1207 118.617 47.7135C119.025 47.3063 119.302 46.7874 119.415 46.2224C119.528 45.6574 119.47 45.0717 119.25 44.5395C119.029 44.0072 118.656 43.5523 118.177 43.2322C117.698 42.9121 117.135 42.7412 116.559 42.7412C115.787 42.7412 115.046 43.0478 114.5 43.5935C113.954 44.1392 113.647 44.8795 113.646 45.6515Z" fill="white"/>
</mask>
<g mask="url(#mask2_585_4849)">
<path d="M118.716 40.7915L111.689 43.5068L114.405 50.5329L121.431 47.8176L118.716 40.7915Z" fill="url(#paint2_linear_585_4849)"/>
</g>
<mask id="mask3_585_4849" style="mask-type:luminance" maskUnits="userSpaceOnUse" x="101" y="47" width="12" height="10">
<path d="M106.39 50.6003C106.392 50.956 106.46 51.3082 106.589 51.6394C106.149 51.1153 105.538 50.7631 104.863 50.6447C104.189 50.5263 103.495 50.6492 102.902 50.9919C102.309 51.3346 101.856 51.8751 101.622 52.5186C101.389 53.162 101.389 53.8673 101.623 54.5105C101.858 55.1537 102.311 55.6938 102.904 56.0358C103.497 56.3779 104.192 56.5001 104.866 56.381C105.54 56.2619 106.151 55.9091 106.591 55.3846C107.031 54.86 107.272 54.1972 107.272 53.5126C107.271 53.1569 107.203 52.8045 107.073 52.4735C107.513 52.9976 108.124 53.3498 108.799 53.4682C109.473 53.5866 110.167 53.4637 110.76 53.121C111.353 52.7783 111.806 52.2378 112.04 51.5944C112.273 50.9509 112.273 50.2457 112.038 49.6024C111.804 48.9592 111.35 48.4192 110.757 48.0771C110.164 47.735 109.47 47.6128 108.796 47.7319C108.121 47.851 107.511 48.2038 107.071 48.7284C106.631 49.2529 106.39 49.9157 106.39 50.6003Z" fill="white"/>
</mask>
<g mask="url(#mask3_585_4849)">
<path d="M110.815 44.0741L98.5059 48.8311L102.843 60.0535L115.152 55.2966L110.815 44.0741Z" fill="url(#paint3_linear_585_4849)"/>
</g>
<mask id="mask4_585_4849" style="mask-type:luminance" maskUnits="userSpaceOnUse" x="4" y="48" width="8" height="9">
<path d="M8.00375 51.9941H7.04824V50.1607H8.00375C8.60094 50.1607 9.03888 50.5588 9.03888 51.0684C9.03888 51.578 8.61686 51.9941 8.01569 51.9941H8.00375ZM4.79883 48.0685V56.5725H7.04824V54.0643H8.00375C9.79532 54.0643 11.2186 52.6868 11.2186 51.0445C11.2186 49.4023 9.7555 48.0586 8.00375 48.0586L4.79883 48.0685Z" fill="white"/>
</mask>
<g mask="url(#mask4_585_4849)">
<path d="M10.3232 45.7846L1.89062 49.0488L5.58341 58.5885L14.016 55.3243L10.3232 45.7846Z" fill="url(#paint4_linear_585_4849)"/>
</g>
<mask id="mask5_585_4849" style="mask-type:luminance" maskUnits="userSpaceOnUse" x="12" y="48" width="6" height="9">
<path d="M12.1797 48.0684V56.5803H17.6977V54.4623H14.4132V53.244H17.1165V51.3589H14.4132V50.1705H17.6977V48.0684H12.1797Z" fill="white"/>
</mask>
<g mask="url(#mask5_585_4849)">
<path d="M16.9774 46.2152L9.31445 49.1768L12.8938 58.4384L20.5568 55.4769L16.9774 46.2152Z" fill="url(#paint5_linear_585_4849)"/>
</g>
<mask id="mask6_585_4849" style="mask-type:luminance" maskUnits="userSpaceOnUse" x="18" y="47" width="10" height="10">
<path d="M22.8188 51.9183L23.6907 53.9348H21.943L22.8188 51.9183ZM22.2814 47.9629L18.3359 56.5724H20.8063L21.2403 55.5771H24.4253L24.8513 56.5724H27.3276L23.3523 47.9629H22.2814Z" fill="white"/>
</mask>
<g mask="url(#mask6_585_4849)">
<path d="M26.1432 44.943L15.4258 49.085L19.4909 59.6037L30.2084 55.4617L26.1432 44.943Z" fill="url(#paint6_linear_585_4849)"/>
</g>
<mask id="mask7_585_4849" style="mask-type:luminance" maskUnits="userSpaceOnUse" x="26" y="47" width="9" height="10">
<path d="M27.0001 52.3242C27.0001 54.9956 29.2435 56.7712 31.6462 56.7712C32.8277 56.77 33.9652 56.3228 34.8312 55.5191L33.5433 53.8032C32.9939 54.2949 32.3489 54.6313 31.6422 54.6313C30.4279 54.6313 29.2873 53.6599 29.2873 52.3401C29.2927 52.0309 29.3593 51.7258 29.4832 51.4424C29.6072 51.159 29.786 50.903 30.0093 50.689C30.2327 50.4751 30.4962 50.3075 30.7847 50.1959C31.0731 50.0844 31.3808 50.031 31.69 50.0389C32.3781 50.0721 33.0315 50.3511 33.5313 50.8252L34.8312 49.1571C33.9681 48.3682 32.8526 47.9117 31.684 47.8691C29.0325 47.8691 26.9961 49.806 26.9961 52.3242" fill="white"/>
</mask>
<g mask="url(#mask7_585_4849)">
<path d="M33.8152 45.2366L24.0039 49.0283L28.016 59.4096L37.8273 55.6179L33.8152 45.2366Z" fill="url(#paint7_linear_585_4849)"/>
</g>
<mask id="mask8_585_4849" style="mask-type:luminance" maskUnits="userSpaceOnUse" x="35" y="47" width="10" height="10">
<path d="M37.3479 52.3207C37.3336 51.8455 37.4615 51.3768 37.7151 50.9746C37.9688 50.5725 38.3367 50.2552 38.7717 50.0634C39.2068 49.8715 39.6892 49.8139 40.1572 49.8978C40.6251 49.9817 41.0575 50.2034 41.3987 50.5344C41.74 50.8655 41.9747 51.2908 42.0729 51.756C42.171 52.2213 42.1281 52.7052 41.9496 53.1459C41.7711 53.5865 41.4651 53.9639 41.0709 54.2297C40.6767 54.4955 40.2121 54.6376 39.7366 54.6378C39.4264 54.6471 39.1175 54.5941 38.8282 54.4819C38.5389 54.3696 38.275 54.2005 38.0523 53.9844C37.8295 53.7683 37.6524 53.5097 37.5314 53.224C37.4104 52.9382 37.348 52.6311 37.3479 52.3207ZM35.0626 52.3366C35.0626 54.8707 37.0851 56.7977 39.7287 56.7977C42.3722 56.7977 44.4126 54.8707 44.4126 52.3366C44.4126 49.8026 42.3842 47.8418 39.7386 47.8418C37.0931 47.8418 35.0566 49.7807 35.0566 52.3366" fill="white"/>
</mask>
<g mask="url(#mask8_585_4849)">
<path d="M43.1914 44.7035L32.0488 49.0098L36.2747 59.9444L47.4173 55.6381L43.1914 44.7035Z" fill="url(#paint8_linear_585_4849)"/>
</g>
<mask id="mask9_585_4849" style="mask-type:luminance" maskUnits="userSpaceOnUse" x="45" y="47" width="8" height="10">
<path d="M45.1447 52.3242C45.1447 54.9956 47.3981 56.7712 49.7869 56.7712C50.9683 56.7696 52.1056 56.3225 52.9719 55.5191L51.6839 53.8032C51.1345 54.2949 50.4896 54.6313 49.7829 54.6313C48.5686 54.6313 47.428 53.6599 47.428 52.3401C47.4334 52.0309 47.5 51.7258 47.6239 51.4424C47.7478 51.159 47.9266 50.903 48.15 50.689C48.3734 50.4751 48.6369 50.3075 48.9253 50.1959C49.2138 50.0844 49.5215 50.031 49.8307 50.0389C50.5188 50.0721 51.1722 50.3511 51.672 50.8252L52.9719 49.1571C52.1087 48.3682 50.9933 47.9117 49.8247 47.8691C47.1732 47.8691 45.1348 49.806 45.1348 52.3242" fill="white"/>
</mask>
<g mask="url(#mask9_585_4849)">
<path d="M51.9617 45.2356L42.1504 49.0273L46.1625 59.4087L55.9737 55.6169L51.9617 45.2356Z" fill="url(#paint9_linear_585_4849)"/>
</g>
<mask id="mask10_585_4849" style="mask-type:luminance" maskUnits="userSpaceOnUse" x="53" y="48" width="9" height="9">
<path d="M58.1715 48.0684L56.1968 51.2414V48.0684H53.9414V56.5803H56.1968V53.3435L58.3507 56.5803H61.0918L58.1596 52.2188L60.7693 48.0684H58.1715Z" fill="white"/>
</mask>
<g mask="url(#mask10_585_4849)">
<path d="M60.1596 45.6712L51.0762 49.1816L54.8672 58.9911L63.9506 55.4806L60.1596 45.6712Z" fill="url(#paint10_linear_585_4849)"/>
</g>
<mask id="mask11_585_4849" style="mask-type:luminance" maskUnits="userSpaceOnUse" x="0" y="9" width="57" height="20">
<path d="M3.98109 14.1894C0.342218 17.9059 -0.561528 24.4511 2.35475 28.8405C1.98449 28.2851 4.13039 25.2573 4.50861 24.7298C5.49221 23.3629 6.66823 22.1453 8.00018 21.1148C10.6457 19.0585 13.9263 17.7108 17.2845 17.5078C24.6498 17.0639 31.3563 21.507 37.6447 24.694C40.2325 26.0058 42.892 27.2519 45.7047 28.0084C48.9495 28.936 53.1318 28.715 55.6081 26.2924C55.9525 25.954 57.1429 24.899 56.8025 23.5772L56.4343 24.5725C56.3148 24.5268 56.1337 24.7238 55.7773 24.8811C55.2618 25.112 54.7482 25.3867 54.2107 25.5898C50.0025 27.1823 45.8361 24.4949 42.4162 22.2435C34.7682 16.9882 27.2416 10.1544 17.5333 9.57114C17.0894 9.54128 16.6395 9.52734 16.1896 9.52734C11.7306 9.52734 7.12629 10.9706 3.97114 14.1894" fill="white"/>
</mask>
<g mask="url(#mask11_585_4849)">
<path d="M40.1719 -16.7655L-9.40625 15.2344L16.4081 55.229L65.9862 23.2291L40.1719 -16.7655Z" fill="url(#paint11_linear_585_4849)"/>
</g>
<mask id="mask12_585_4849" style="mask-type:luminance" maskUnits="userSpaceOnUse" x="60" y="6" width="20" height="16">
<path d="M75.1513 21.0595C75.1513 21.0595 84.7959 16.9449 73.6145 14.0664C62.4332 11.188 60.8168 6.13574 60.8168 6.13574C60.0862 17.5202 75.1493 21.0655 75.1493 21.0655" fill="white"/>
</mask>
<g mask="url(#mask12_585_4849)">
<path d="M61.9246 -0.345532L56.1738 19.9502L82.9622 27.5406L88.713 7.24491L61.9246 -0.345532Z" fill="url(#paint12_linear_585_4849)"/>
</g>
<mask id="mask13_585_4849" style="mask-type:luminance" maskUnits="userSpaceOnUse" x="45" y="8" width="6" height="7">
<path d="M47.157 8.70605C46.9942 8.7121 46.8329 8.73954 46.6772 8.78767C46.5717 8.81952 45.881 9.05242 45.6401 9.66554C45.5597 9.90043 45.5384 10.1515 45.5779 10.3966C45.6175 10.6417 45.7168 10.8733 45.867 11.0709C46.5638 12.0006 47.8577 11.27 48.9963 12.1379C50.0513 12.9342 49.916 14.3276 50.1907 14.2918C50.5629 14.2539 51.2835 11.7696 50.0095 10.1114C49.6665 9.69475 49.2393 9.35523 48.756 9.11509C48.2726 8.87496 47.744 8.73964 47.2047 8.718H47.151" fill="white"/>
</mask>
<g mask="url(#mask13_585_4849)">
<path d="M48.7271 5.81198L42.6719 11.1768L48.0235 17.2171L54.0787 11.8523L48.7271 5.81198Z" fill="url(#paint13_linear_585_4849)"/>
</g>
<mask id="mask14_585_4849" style="mask-type:luminance" maskUnits="userSpaceOnUse" x="46" y="12" width="4" height="3">
<path d="M46.4612 12.8419C46.3885 12.8825 46.3215 12.9328 46.2621 12.9912C46.1797 13.0766 46.1175 13.1794 46.0799 13.2921C46.0424 13.4047 46.0305 13.5243 46.0451 13.6421C46.0785 13.7735 46.1413 13.8956 46.229 13.9991C46.3166 14.1026 46.4266 14.1847 46.5508 14.2393C46.8653 14.3806 47.1221 14.2592 47.4107 14.1358C47.6777 13.9997 47.9796 13.9476 48.2766 13.9865C48.9853 14.1059 49.3197 14.7708 49.4392 14.6912C49.5964 14.5857 49.2103 13.2738 48.1552 12.814C47.9003 12.7031 47.625 12.6468 47.347 12.6488C47.0388 12.6431 46.7336 12.7113 46.4572 12.8478" fill="white"/>
</mask>
<g mask="url(#mask14_585_4849)">
<path d="M48.011 10.8482L44.9297 13.5781L47.5751 16.564L50.6564 13.8341L48.011 10.8482Z" fill="url(#paint14_linear_585_4849)"/>
</g>
<mask id="mask15_585_4849" style="mask-type:luminance" maskUnits="userSpaceOnUse" x="49" y="14" width="8" height="10">
<path d="M52.1462 14.6993C51.5779 14.7395 51.0294 14.9252 50.5537 15.2388C50.0825 15.5591 49.6981 15.9914 49.435 16.4969C49.2402 16.869 49.116 17.2739 49.0687 17.6913C49.034 17.994 49.0407 18.3 49.0886 18.601C49.1381 18.9276 49.2326 19.2458 49.3693 19.5465C49.6514 20.1303 50.0411 20.6558 50.5179 21.0952C50.9638 21.5222 51.4528 21.9018 51.977 22.2279C52.9036 22.8127 53.9401 23.2016 55.0227 23.3705C55.9026 23.49 56.5137 23.3705 56.6371 23.1973C56.6192 22.9784 56.1076 22.7355 55.4228 22.3513C54.6001 21.9066 53.8324 21.3667 53.1356 20.7429C52.7682 20.4078 52.4299 20.0422 52.1243 19.65C51.8779 19.3544 51.6858 19.0174 51.557 18.6547C51.52 18.5415 51.4999 18.4234 51.4973 18.3044C51.4956 18.2206 51.5049 18.1369 51.5252 18.0555C51.5544 17.9414 51.5986 17.8316 51.6565 17.7291C51.7338 17.5944 51.8395 17.4783 51.9664 17.3889C52.0933 17.2994 52.2383 17.2389 52.3911 17.2115C52.5582 17.1739 52.7303 17.1638 52.9007 17.1816C53.0879 17.2003 53.2698 17.255 53.4362 17.3429C53.6533 17.4548 53.8587 17.5881 54.0493 17.741C54.2643 17.8983 54.4693 18.0794 54.7241 18.0934C54.9789 18.1073 55.1899 17.8206 55.2377 17.4046C55.2746 16.9336 55.1572 16.4633 54.9033 16.0649C54.6252 15.6146 54.2248 15.2528 53.7487 15.0218C53.3219 14.8091 52.852 14.6967 52.3752 14.6934C52.3015 14.6934 52.2259 14.6934 52.1522 14.6934" fill="white"/>
</mask>
<g mask="url(#mask15_585_4849)">
<path d="M55.6496 12.1365L46.0723 15.8379L50.0162 26.0428L59.5935 22.3415L55.6496 12.1365Z" fill="url(#paint15_linear_585_4849)"/>
</g>
<mask id="mask16_585_4849" style="mask-type:luminance" maskUnits="userSpaceOnUse" x="48" y="22" width="9" height="5">
<path d="M48.2217 22.5329H48.2077C47.9788 22.8514 48.4725 23.6038 48.6736 23.9462C49.9874 25.9667 52.5135 26.7868 54.4623 26.1618C55.3621 25.8891 56.2877 25.2759 56.7038 24.2528C56.9028 23.7412 56.8411 23.1997 56.3972 22.929C54.9162 22.2522 53.4312 23.3988 51.9123 23.4864C51.0463 23.5875 50.1696 23.4332 49.3902 23.0425C49.0577 22.9031 48.5939 22.5169 48.2993 22.5169C48.2742 22.5139 48.2488 22.5139 48.2237 22.5169" fill="white"/>
</mask>
<g mask="url(#mask16_585_4849)">
<path d="M55.7464 19.2541L46.4531 22.8457L49.1384 29.7938L58.4316 26.2023L55.7464 19.2541Z" fill="url(#paint16_linear_585_4849)"/>
</g>
<defs>
<linearGradient id="paint0_linear_585_4849" x1="109.64" y1="11.3754" x2="15.6289" y2="47.7078" gradientUnits="userSpaceOnUse">
<stop stop-color="#00A38B"/>
<stop offset="0.01" stop-color="#00A38B"/>
<stop offset="0.5" stop-color="#049776"/>
<stop offset="1" stop-color="#056B5C"/>
</linearGradient>
<linearGradient id="paint1_linear_585_4849" x1="96.7403" y1="46.8488" x2="94.8967" y2="41.9956" gradientUnits="userSpaceOnUse">
<stop stop-color="#00A38B"/>
<stop offset="0.01" stop-color="#00A38B"/>
<stop offset="0.1" stop-color="#029D80"/>
<stop offset="0.23" stop-color="#049878"/>
<stop offset="0.47" stop-color="#049776"/>
<stop offset="1" stop-color="#056B5C"/>
</linearGradient>
<linearGradient id="paint2_linear_585_4849" x1="122.113" y1="43.5569" x2="28.1015" y2="79.8893" gradientUnits="userSpaceOnUse">
<stop stop-color="#00A38B"/>
<stop offset="0.01" stop-color="#00A38B"/>
<stop offset="0.5" stop-color="#049776"/>
<stop offset="1" stop-color="#056B5C"/>
</linearGradient>
<linearGradient id="paint3_linear_585_4849" x1="122.997" y1="45.8601" x2="28.9857" y2="82.1926" gradientUnits="userSpaceOnUse">
<stop stop-color="#00A38B"/>
<stop offset="0.01" stop-color="#00A38B"/>
<stop offset="0.5" stop-color="#049776"/>
<stop offset="1" stop-color="#056B5C"/>
</linearGradient>
<linearGradient id="paint4_linear_585_4849" x1="109.922" y1="13.0572" x2="16.1892" y2="49.3408" gradientUnits="userSpaceOnUse">
<stop stop-color="#00A38B"/>
<stop offset="0.01" stop-color="#00A38B"/>
<stop offset="0.5" stop-color="#049776"/>
<stop offset="1" stop-color="#056B5C"/>
</linearGradient>
<linearGradient id="paint5_linear_585_4849" x1="111.112" y1="15.2153" x2="17.1005" y2="51.5478" gradientUnits="userSpaceOnUse">
<stop stop-color="#00A38B"/>
<stop offset="0.01" stop-color="#00A38B"/>
<stop offset="0.5" stop-color="#049776"/>
<stop offset="1" stop-color="#056B5C"/>
</linearGradient>
<linearGradient id="paint6_linear_585_4849" x1="112.395" y1="18.4683" x2="18.3839" y2="54.8008" gradientUnits="userSpaceOnUse">
<stop stop-color="#00A38B"/>
<stop offset="0.01" stop-color="#00A38B"/>
<stop offset="0.5" stop-color="#049776"/>
<stop offset="1" stop-color="#056B5C"/>
</linearGradient>
<linearGradient id="paint7_linear_585_4849" x1="113.295" y1="20.8092" x2="19.2838" y2="57.1417" gradientUnits="userSpaceOnUse">
<stop stop-color="#00A38B"/>
<stop offset="0.01" stop-color="#00A38B"/>
<stop offset="0.5" stop-color="#049776"/>
<stop offset="1" stop-color="#056B5C"/>
</linearGradient>
<linearGradient id="paint8_linear_585_4849" x1="114.341" y1="23.5426" x2="20.3295" y2="59.8751" gradientUnits="userSpaceOnUse">
<stop stop-color="#00A38B"/>
<stop offset="0.01" stop-color="#00A38B"/>
<stop offset="0.5" stop-color="#049776"/>
<stop offset="1" stop-color="#056B5C"/>
</linearGradient>
<linearGradient id="paint9_linear_585_4849" x1="115.661" y1="26.9027" x2="21.6498" y2="63.2352" gradientUnits="userSpaceOnUse">
<stop stop-color="#00A38B"/>
<stop offset="0.01" stop-color="#00A38B"/>
<stop offset="0.5" stop-color="#049776"/>
<stop offset="1" stop-color="#056B5C"/>
</linearGradient>
<linearGradient id="paint10_linear_585_4849" x1="116.66" y1="29.523" x2="22.6486" y2="65.8555" gradientUnits="userSpaceOnUse">
<stop stop-color="#00A38B"/>
<stop offset="0.01" stop-color="#00A38B"/>
<stop offset="0.5" stop-color="#049776"/>
<stop offset="1" stop-color="#056B5C"/>
</linearGradient>
<linearGradient id="paint11_linear_585_4849" x1="5.14446" y1="33.6265" x2="45.9804" y2="7.26914" gradientUnits="userSpaceOnUse">
<stop stop-color="#FFE28A"/>
<stop offset="0.37" stop-color="#FFCD0B"/>
<stop offset="1" stop-color="#E2B125"/>
</linearGradient>
<linearGradient id="paint12_linear_585_4849" x1="87.428" y1="17.928" x2="64.857" y2="11.5326" gradientUnits="userSpaceOnUse">
<stop stop-color="#00A38B"/>
<stop offset="0.01" stop-color="#00A38B"/>
<stop offset="0.5" stop-color="#049776"/>
<stop offset="1" stop-color="#056B5C"/>
</linearGradient>
<linearGradient id="paint13_linear_585_4849" x1="18.5559" y1="37.6143" x2="48.181" y2="11.3673" gradientUnits="userSpaceOnUse">
<stop stop-color="#FFE28A"/>
<stop offset="0.37" stop-color="#FFCD0B"/>
<stop offset="1" stop-color="#E2B125"/>
</linearGradient>
<linearGradient id="paint14_linear_585_4849" x1="19.1973" y1="38.4164" x2="48.8224" y2="12.1694" gradientUnits="userSpaceOnUse">
<stop stop-color="#FFE28A"/>
<stop offset="0.37" stop-color="#FFCD0B"/>
<stop offset="1" stop-color="#E2B125"/>
</linearGradient>
<linearGradient id="paint15_linear_585_4849" x1="120.596" y1="-7.47536" x2="1.65561" y2="38.4915" gradientUnits="userSpaceOnUse">
<stop stop-color="#00A38B"/>
<stop offset="0.01" stop-color="#00A38B"/>
<stop offset="0.5" stop-color="#049776"/>
<stop offset="1" stop-color="#056B5C"/>
</linearGradient>
<linearGradient id="paint16_linear_585_4849" x1="122.466" y1="-2.5355" x2="3.52505" y2="43.4314" gradientUnits="userSpaceOnUse">
<stop stop-color="#00A38B"/>
<stop offset="0.01" stop-color="#00A38B"/>
<stop offset="0.5" stop-color="#049776"/>
<stop offset="1" stop-color="#056B5C"/>
</linearGradient>
</defs>
</svg>
