<svg width="25" height="25" viewBox="0 0 25 25" fill="none" xmlns="http://www.w3.org/2000/svg">
<path d="M12.0459 2.4292C17.5689 2.4292 22.0459 6.9062 22.0459 12.4292C22.0459 17.9522 17.5689 22.4292 12.0459 22.4292C10.3439 22.4317 8.66959 21.9979 7.18291 21.1692L6.87791 20.9912L3.84591 21.8832C3.68091 21.9318 3.50623 21.9375 3.33842 21.8997C3.17062 21.8619 3.01525 21.7818 2.88704 21.6672C2.75884 21.5525 2.66205 21.4069 2.60585 21.2444C2.54965 21.0818 2.5359 20.9076 2.56591 20.7382L2.59191 20.6292L3.48391 17.5972C2.54087 16.0385 2.04348 14.251 2.04591 12.4292C2.04591 6.9062 6.52291 2.4292 12.0459 2.4292ZM12.0459 4.4292C10.6135 4.42894 9.20736 4.81326 7.97424 5.54201C6.74111 6.27077 5.72626 7.31724 5.03567 8.57214C4.34508 9.82704 4.00407 11.2443 4.04827 12.676C4.09246 14.1077 4.52023 15.5013 5.28691 16.7112C5.48491 17.0232 5.56991 17.4072 5.50291 17.7882L5.46391 17.9512L5.02291 19.4522L6.52391 19.0112C6.95691 18.8832 7.40691 18.9612 7.76391 19.1882C8.81224 19.852 10.0006 20.2628 11.2351 20.3882C12.4695 20.5136 13.7162 20.3502 14.8766 19.9108C16.037 19.4714 17.0793 18.7681 17.9211 17.8565C18.7629 16.9449 19.3811 15.85 19.7268 14.6583C20.0725 13.4666 20.1363 12.2109 19.9132 10.9903C19.69 9.76973 19.1859 8.6178 18.4409 7.62558C17.6959 6.63335 16.7302 5.82803 15.6203 5.27328C14.5104 4.71853 13.2867 4.42955 12.0459 4.4292ZM9.14791 7.6132C9.25862 7.56526 9.37991 7.54696 9.49984 7.56011C9.61977 7.57326 9.73421 7.6174 9.83191 7.6882C10.3359 8.0562 10.7359 8.5502 11.0799 9.0322L11.4069 9.5062L11.5599 9.7312C11.6482 9.86028 11.6915 10.0148 11.6832 10.171C11.6749 10.3271 11.6154 10.4762 11.5139 10.5952L11.4389 10.6712L10.5149 11.3572C10.4704 11.3894 10.4391 11.4366 10.4268 11.4901C10.4145 11.5436 10.422 11.5998 10.4479 11.6482C10.6579 12.0282 11.0289 12.5952 11.4549 13.0212C11.8819 13.4472 12.4749 13.8432 12.8809 14.0762C12.9689 14.1262 13.0749 14.1102 13.1469 14.0452L13.1849 14.0002L13.7859 13.0852C13.8962 12.9382 14.0592 12.8397 14.2406 12.8102C14.422 12.7808 14.6077 12.8227 14.7589 12.9272L15.3019 13.3062C15.8419 13.6912 16.3609 14.1052 16.7719 14.6302C16.8483 14.7287 16.8969 14.8459 16.9126 14.9695C16.9282 15.0932 16.9104 15.2188 16.8609 15.3332C16.4649 16.2572 15.4619 17.0442 14.4199 17.0062L14.2609 16.9962L14.0699 16.9782C14.0339 16.9739 13.9979 16.9693 13.9619 16.9642L13.7239 16.9242C12.7999 16.7502 11.3189 16.2262 9.78391 14.6922C8.24991 13.1572 7.72591 11.6762 7.55191 10.7522L7.51191 10.5142L7.48691 10.3062L7.47391 10.1312C7.47232 10.1062 7.47099 10.0812 7.46991 10.0562C7.43191 9.0122 8.22291 8.0092 9.14791 7.6132Z" fill="#343434"/>
</svg>
