<svg width="34" height="44" viewBox="0 0 34 44" fill="none" xmlns="http://www.w3.org/2000/svg">
<mask id="mask0_572_15592" style="mask-type:luminance" maskUnits="userSpaceOnUse" x="0" y="0" width="34" height="38">
<path d="M10.5027 0.733398C9.43298 0.773131 8.37312 0.953441 7.35041 1.26969C6.65716 1.47897 2.11831 3.00936 0.535599 7.03807C0.00735125 8.58152 -0.132929 10.2313 0.127121 11.8417C0.387171 13.4522 1.03956 14.974 2.02674 16.2727C6.60483 22.3812 15.107 17.5807 22.5889 23.2837C29.5214 28.5158 28.6319 37.672 30.437 37.4365C32.883 37.188 37.618 20.8639 29.2467 9.96804C26.9928 7.23003 24.1859 4.99903 21.0098 3.42115C17.8338 1.84327 14.3602 0.954102 10.8167 0.811877H10.4635" fill="white"/>
</mask>
<g mask="url(#mask0_572_15592)">
<path d="M20.8197 -18.2865L-18.9688 16.9648L16.1959 56.6554L55.9843 21.404L20.8197 -18.2865Z" fill="#343434"/>
</g>
<mask id="mask1_572_15592" style="mask-type:luminance" maskUnits="userSpaceOnUse" x="8" y="25" width="17" height="19">
<path d="M13.344 25.1846C12.8238 25.2039 12.3083 25.2916 11.811 25.4454C11.4738 25.5472 9.2665 26.2914 8.4968 28.2507C8.2399 29.0013 8.17168 29.8036 8.29815 30.5868C8.42462 31.37 8.74189 32.11 9.22197 32.7416C11.4484 35.7123 15.5832 33.3778 19.2217 36.1512C22.5932 38.6957 22.1606 43.1485 23.0385 43.034C24.228 42.9132 26.5307 34.9744 22.4596 29.6756C21.3634 28.344 19.9984 27.259 18.4538 26.4917C16.9092 25.7243 15.22 25.2919 13.4967 25.2227H13.3249" fill="white"/>
</mask>
<g mask="url(#mask1_572_15592)">
<path d="M18.3616 15.9356L-0.988281 33.0791L16.113 52.3814L35.4629 35.238L18.3616 15.9356Z" fill="#343434"/>
</g>
</svg>
