<svg width="19" height="25" viewBox="0 0 19 25" fill="none" xmlns="http://www.w3.org/2000/svg">
<mask id="mask0_572_15603" style="mask-type:luminance" maskUnits="userSpaceOnUse" x="0" y="0" width="19" height="22">
<path d="M5.86917 0.663086C5.27137 0.685289 4.67909 0.786051 4.10758 0.962777C3.72018 1.07973 1.18376 1.93495 0.299305 4.18628C0.00410805 5.0488 -0.0742839 5.97071 0.0710382 6.87069C0.21636 7.77066 0.580929 8.62105 1.13259 9.34682C3.69093 12.7604 8.44213 10.0778 12.6232 13.2647C16.4972 16.1885 16.0002 21.3052 17.0089 21.1737C18.3758 21.0348 21.0219 11.9125 16.3437 5.82362C15.0842 4.29356 13.5156 3.04682 11.7408 2.16507C9.96592 1.28331 8.02482 0.78642 6.0446 0.706941H5.84724" fill="white"/>
</mask>
<g mask="url(#mask0_572_15603)">
<path d="M11.6351 -9.9659L-10.5996 9.7334L9.05122 31.9134L31.2859 12.2141L11.6351 -9.9659Z" fill="#343434"/>
</g>
<mask id="mask1_572_15603" style="mask-type:luminance" maskUnits="userSpaceOnUse" x="4" y="14" width="10" height="11">
<path d="M7.45586 14.3271C7.16514 14.3379 6.8771 14.3869 6.59916 14.4729C6.41076 14.5298 5.17725 14.9457 4.74712 16.0406C4.60356 16.46 4.56544 16.9084 4.63611 17.346C4.70678 17.7837 4.88408 18.1973 5.15236 18.5502C6.39654 20.2103 8.70714 18.9057 10.7405 20.4556C12.6245 21.8775 12.3828 24.3658 12.8733 24.3018C13.5381 24.2343 14.8249 19.7979 12.5499 16.8368C11.9373 16.0927 11.1745 15.4864 10.3113 15.0576C9.44819 14.6288 8.5042 14.3871 7.54118 14.3485H7.44519" fill="white"/>
</mask>
<g mask="url(#mask1_572_15603)">
<path d="M10.2605 9.15812L-0.552734 18.7383L9.00386 29.5249L19.817 19.9447L10.2605 9.15812Z" fill="#343434"/>
</g>
</svg>
