<svg width="25" height="24" viewBox="0 0 25 24" fill="none" xmlns="http://www.w3.org/2000/svg">
<path d="M12.0459 2C17.5689 2 22.0459 6.477 22.0459 12C22.0459 17.523 17.5689 22 12.0459 22C10.3439 22.0025 8.66959 21.5687 7.18291 20.74L6.87791 20.562L3.84591 21.454C3.68091 21.5026 3.50623 21.5083 3.33842 21.4705C3.17062 21.4327 3.01525 21.3526 2.88704 21.238C2.75884 21.1233 2.66205 20.9778 2.60585 20.8152C2.54965 20.6526 2.5359 20.4784 2.56591 20.309L2.59191 20.2L3.48391 17.168C2.54087 15.6093 2.04348 13.8218 2.04591 12C2.04591 6.477 6.52291 2 12.0459 2ZM12.0459 4C10.6135 3.99974 9.20736 4.38406 7.97424 5.11281C6.74111 5.84157 5.72626 6.88804 5.03567 8.14294C4.34508 9.39784 4.00407 10.8151 4.04827 12.2468C4.09246 13.6785 4.52023 15.0721 5.28691 16.282C5.48491 16.594 5.56991 16.978 5.50291 17.359L5.46391 17.522L5.02291 19.023L6.52391 18.582C6.95691 18.454 7.40691 18.532 7.76391 18.759C8.81224 19.4228 10.0006 19.8336 11.2351 19.959C12.4695 20.0844 13.7162 19.921 14.8766 19.4816C16.037 19.0422 17.0793 18.3389 17.9211 17.4273C18.7629 16.5157 19.3811 15.4208 19.7268 14.2291C20.0725 13.0374 20.1363 11.7817 19.9132 10.5611C19.69 9.34053 19.1859 8.1886 18.4409 7.19638C17.6959 6.20415 16.7302 5.39883 15.6203 4.84408C14.5104 4.28933 13.2867 4.00036 12.0459 4ZM9.14791 7.184C9.25862 7.13606 9.37991 7.11776 9.49984 7.13091C9.61977 7.14406 9.73421 7.1882 9.83191 7.259C10.3359 7.627 10.7359 8.121 11.0799 8.603L11.4069 9.077L11.5599 9.302C11.6482 9.43108 11.6915 9.58563 11.6832 9.74179C11.6749 9.89795 11.6154 10.047 11.5139 10.166L11.4389 10.242L10.5149 10.928C10.4704 10.9602 10.4391 11.0074 10.4268 11.0609C10.4145 11.1144 10.422 11.1706 10.4479 11.219C10.6579 11.599 11.0289 12.166 11.4549 12.592C11.8819 13.018 12.4749 13.414 12.8809 13.647C12.9689 13.697 13.0749 13.681 13.1469 13.616L13.1849 13.571L13.7859 12.656C13.8962 12.509 14.0592 12.4105 14.2406 12.381C14.422 12.3516 14.6077 12.3935 14.7589 12.498L15.3019 12.877C15.8419 13.262 16.3609 13.676 16.7719 14.201C16.8483 14.2995 16.8969 14.4167 16.9126 14.5403C16.9282 14.664 16.9104 14.7896 16.8609 14.904C16.4649 15.828 15.4619 16.615 14.4199 16.577L14.2609 16.567L14.0699 16.549C14.0339 16.5447 13.9979 16.5401 13.9619 16.535L13.7239 16.495C12.7999 16.321 11.3189 15.797 9.78391 14.263C8.24991 12.728 7.72591 11.247 7.55191 10.323L7.51191 10.085L7.48691 9.877L7.47391 9.702C7.47232 9.67701 7.47099 9.65201 7.46991 9.627C7.43191 8.583 8.22291 7.58 9.14791 7.184Z" fill="#B4B4B4"/>
</svg>
